<svg width="92" height="92" viewBox="0 0 92 92" fill="none" xmlns="http://www.w3.org/2000/svg">
<path d="M71.3019 91.5392H20.6968C11.8742 91.5392 4.69336 84.2659 4.69336 75.3298V24.0736C4.69336 15.1268 11.8742 7.86426 20.6968 7.86426H71.3019C80.1245 7.86426 87.3054 15.1375 87.3054 24.0736V75.3298C87.3054 84.2659 80.1245 91.5392 71.3019 91.5392ZM20.6968 14.3008C15.38 14.3008 11.0481 18.6884 11.0481 24.0736V75.3298C11.0481 80.7151 15.38 85.1026 20.6968 85.1026H71.3019C76.6188 85.1026 80.9506 80.7151 80.9506 75.3298V24.0736C80.9506 18.6884 76.6188 14.3008 71.3019 14.3008H20.6968Z" fill="white"/>
<path d="M59.5781 3.67969H32.4221C30.0823 3.67969 28.1855 5.60084 28.1855 7.97071V15.4585C28.1855 17.8284 30.0823 19.7496 32.4221 19.7496H59.5781C61.9179 19.7496 63.8146 17.8284 63.8146 15.4585V7.97071C63.8146 5.60084 61.9179 3.67969 59.5781 3.67969Z" fill="#6FDCE3"/>
<path d="M59.5758 22.9683H32.4198C28.3315 22.9683 25.0059 19.5999 25.0059 15.459V7.9712C25.0059 3.83037 28.3315 0.461914 32.4198 0.461914H59.5758C63.6641 0.461914 66.9897 3.83037 66.9897 7.9712V15.459C66.9897 19.5999 63.6641 22.9683 59.5758 22.9683ZM32.4198 6.89845C31.8372 6.89845 31.3606 7.38119 31.3606 7.9712V15.459C31.3606 16.049 31.8372 16.5318 32.4198 16.5318H59.5758C60.1583 16.5318 60.6349 16.049 60.6349 15.459V7.9712C60.6349 7.38119 60.1583 6.89845 59.5758 6.89845H32.4198Z" fill="white"/>
<path d="M41.3135 61.7021C40.5195 61.7021 39.7255 61.3483 39.1274 60.6283L34.4048 55.0394C33.1984 53.6116 33.1984 51.2931 34.4048 49.8654C35.6113 48.4376 37.5704 48.4376 38.7769 49.8654L41.3135 52.8673L53.2231 38.773C54.4296 37.3452 56.3887 37.3452 57.5952 38.773C58.8016 40.2007 58.8016 42.5192 57.5952 43.947L43.4995 60.6283C42.8911 61.3483 42.1074 61.7021 41.3135 61.7021Z" fill="#6FDCE3"/>
</svg>
