<svg width="92" height="92" viewBox="0 0 92 92" fill="none" xmlns="http://www.w3.org/2000/svg">
<path d="M40.8097 56.7588H27.6129C25.8548 56.7588 24.4355 55.3213 24.4355 53.5405C24.4355 51.7598 25.8548 50.3223 27.6129 50.3223H40.8097C42.5678 50.3223 43.9871 51.7598 43.9871 53.5405C43.9871 55.3213 42.5678 56.7588 40.8097 56.7588Z" fill="white"/>
<path d="M65.2223 41.1934H27.3903C25.6321 41.1934 24.2129 39.7559 24.2129 37.9751C24.2129 36.1943 25.6321 34.7568 27.3903 34.7568H65.2223C66.9805 34.7568 68.3997 36.1943 68.3997 37.9751C68.3997 39.7559 66.9805 41.1934 65.2223 41.1934Z" fill="white"/>
<path d="M71.6086 91.0772H21.0034C12.1809 91.0772 5 83.804 5 74.8679V23.6117C5 14.6649 12.1809 7.40234 21.0034 7.40234H71.6086C80.4311 7.40234 87.612 14.6756 87.612 23.6117V74.8679C87.612 83.804 80.4311 91.0772 71.6086 91.0772ZM21.0034 13.8389C15.6866 13.8389 11.3548 18.2264 11.3548 23.6117V74.8679C11.3548 80.2532 15.6866 84.6407 21.0034 84.6407H71.6086C76.9254 84.6407 81.2572 80.2532 81.2572 74.8679V23.6117C81.2572 18.2264 76.9254 13.8389 71.6086 13.8389H21.0034Z" fill="white"/>
<path d="M59.8848 3.21875H32.7287C30.3889 3.21875 28.4922 5.13991 28.4922 7.50977V14.9976C28.4922 17.3675 30.3889 19.2886 32.7287 19.2886H59.8848C62.2245 19.2886 64.1213 17.3675 64.1213 14.9976V7.50977C64.1213 5.13991 62.2245 3.21875 59.8848 3.21875Z" fill="#6FDCE3"/>
<path d="M59.8844 22.5064H32.7284C28.6401 22.5064 25.3145 19.138 25.3145 14.9971V7.50929C25.3145 3.36845 28.6401 0 32.7284 0H59.8844C63.9726 0 67.2983 3.36845 67.2983 7.50929V14.9971C67.2983 19.138 63.9726 22.5064 59.8844 22.5064ZM32.7284 6.43653C32.1458 6.43653 31.6692 6.91927 31.6692 7.50929V14.9971C31.6692 15.5871 32.1458 16.0699 32.7284 16.0699H59.8844C60.4669 16.0699 60.9435 15.5871 60.9435 14.9971V7.50929C60.9435 6.91927 60.4669 6.43653 59.8844 6.43653H32.7284Z" fill="white"/>
</svg>
