<svg width="92" height="93" viewBox="0 0 92 93" fill="none" xmlns="http://www.w3.org/2000/svg">
<g clip-path="url(#clip0_2733_31302)">
<path d="M6.48047 89.3135V4.35254H64.8067L85.9983 24.5724V89.3135H6.48047Z" fill="white"/>
<path d="M86.4546 73.8058V24.1845L65.3858 3.33105H5.54297V89.6971H86.4546V73.8058Z" fill="white"/>
<path d="M86.4554 92.0515H5.54382C4.22702 92.0515 3.16406 90.9994 3.16406 89.6961V3.33005C3.16406 2.0267 4.22702 0.974609 5.54382 0.974609H65.3867C66.0213 0.974609 66.6241 1.22586 67.0684 1.66554L88.1292 22.519C88.5734 22.9587 88.8272 23.5633 88.8272 24.1835V89.6961C88.8272 90.9994 87.7643 92.0515 86.4475 92.0515H86.4554ZM7.92357 87.3407H84.0757V25.1571L64.403 5.68548H7.92357V87.3407Z" fill="#333333"/>
<path d="M86.4574 24.1845L65.3887 3.33105V24.1845H86.4574Z" fill="#6FDCE3"/>
<path d="M86.4583 26.5392H65.3895C64.0727 26.5392 63.0098 25.4871 63.0098 24.1837V3.33024C63.0098 2.38021 63.5888 1.51655 64.4773 1.15538C65.3657 0.786365 66.389 0.990503 67.0712 1.66573L88.14 22.5192C88.8222 23.1944 89.0205 24.2073 88.6556 25.0866C88.2907 25.966 87.4181 26.5392 86.4583 26.5392ZM67.7693 21.8283H80.7072L67.7693 9.02255V21.8283Z" fill="#333333"/>
<path d="M19.0547 57.8897C19.0547 57.8897 38.0451 57.6228 48.9682 44.7935C59.8913 31.9642 50.5626 26.7587 40.29 40.4516C32.1909 51.2474 35.2449 60.5435 39.7268 63.5977C46.6202 68.2929 57.5036 63.8725 58.6776 59.2794C60.0261 54.019 52.871 52.1189 51.5859 57.348C49.8963 64.2259 59.4074 70.0202 63.921 70.35" fill="white"/>
<path d="M63.9298 72.6969C63.8743 72.6969 63.8108 72.6969 63.7553 72.6969C60.6695 72.4692 55.9418 70.2865 52.6974 66.9732C47.5571 68.6927 42.2503 68.1745 38.3792 65.5364C35.9042 63.8483 34.0877 60.9983 33.3024 57.6064C25.8379 60.0953 19.5553 60.2367 19.0953 60.2445H19.0635C17.7626 60.2445 16.6996 59.2081 16.6838 57.9205C16.6679 56.6171 17.715 55.5493 19.0239 55.5336C19.1587 55.5336 25.592 55.3688 32.8899 52.7228C33.0803 49.0405 34.4129 44.3453 38.3871 39.0456C43.0038 32.89 48.0886 29.5218 51.9914 30.0635C53.8079 30.3069 55.2199 31.3983 55.8624 33.0549C57.1158 36.2897 55.3151 40.9927 50.7856 46.316C46.9939 50.7678 42.3534 53.7906 37.7922 55.8556C38.2205 58.3837 39.4421 60.5507 41.0683 61.6578C43.694 63.4479 47.0653 63.5107 49.8417 62.8748C48.9691 60.8726 48.7708 58.8077 49.2626 56.7899C49.8417 54.4344 51.3885 52.7307 53.4986 52.1261C55.561 51.5373 57.8059 52.0947 59.3686 53.5943C61.0027 55.1646 61.5897 57.4494 60.971 59.8598C60.5109 61.6421 59.1782 63.338 57.2189 64.7277C59.5511 66.6513 62.4544 67.8761 64.0885 68.0018C65.3973 68.096 66.381 69.2266 66.2858 70.5221C66.1906 71.7626 65.1514 72.7048 63.9139 72.7048L63.9298 72.6969ZM55.1485 56.6093C55.0375 56.6093 54.9343 56.625 54.8312 56.6486C54.268 56.8134 54.0142 57.418 53.8952 57.8969C53.6493 58.9176 53.7603 59.9619 54.2284 61.0375C55.45 60.2288 56.1956 59.3495 56.3622 58.6978C56.497 58.1717 56.5526 57.4416 56.0608 56.9705C55.8148 56.7349 55.4738 56.6014 55.1406 56.6014L55.1485 56.6093ZM51.1585 34.6645C50.1114 34.6645 46.5973 35.9914 42.2027 41.8486C40.0609 44.6986 38.641 47.6429 38.0064 50.4616C41.2825 48.7264 44.4872 46.3945 47.1525 43.2775C51.7534 37.8679 51.6265 35.0413 51.4044 34.7116C51.3488 34.688 51.2695 34.6723 51.1664 34.6723L51.1585 34.6645Z" fill="#00ADB2"/>
</g>
<defs>
<clipPath id="clip0_2733_31302">
<rect width="92" height="92" fill="white" transform="translate(0 0.512695)"/>
</clipPath>
</defs>
</svg>
