<svg width="92" height="92" viewBox="0 0 92 92" fill="none" xmlns="http://www.w3.org/2000/svg">
<g clip-path="url(#clip0_4020_75213)">
<path d="M3.35298 91.5355C2.46943 91.5355 1.61943 91.1897 0.981928 90.5538C0.2214 89.7952 -0.125311 88.7242 0.0424527 87.6756L4.81812 57.1083C4.92996 56.4055 5.2543 55.7585 5.75759 55.2565L50.5616 10.5658C51.8702 9.2606 53.9952 9.2606 55.3037 10.5658L81.1728 36.3695C82.4814 37.6747 82.4814 39.7944 81.1728 41.0996L36.3688 85.7902C35.8655 86.2922 35.2168 86.6269 34.5122 86.7273L3.86746 91.4909C3.69969 91.5132 3.52075 91.5355 3.35298 91.5355ZM11.2714 59.2168L7.36812 84.1838L32.3984 80.2903L74.0597 38.7345L52.9327 17.661L11.2714 59.2168Z" fill="white"/>
<path d="M26.0162 84.2157L6.89115 65.1279L3.35693 87.7298L26.0162 84.2157Z" fill="#6FDCE3"/>
<path d="M3.35689 91.0767C2.47334 91.0767 1.62333 90.7309 0.985834 90.095C0.225307 89.3364 -0.121404 88.2654 0.046359 87.2168L3.58057 64.6149C3.77071 63.3654 4.65426 62.3391 5.85097 61.9486C7.04768 61.5582 8.36742 61.8705 9.26216 62.763L28.3872 81.8396C29.2819 82.7321 29.5951 84.0485 29.2036 85.2422C28.8122 86.4359 27.7832 87.3172 26.5306 87.5068L3.87136 91.0321C3.7036 91.0544 3.52465 91.0767 3.35689 91.0767ZM9.18387 72.1563L7.38321 83.725L18.9812 81.9289L9.19505 72.1675L9.18387 72.1563Z" fill="white"/>
<path d="M78.8061 41.6335C77.9449 41.6335 77.0837 41.3099 76.435 40.6517L50.5659 14.8481C49.2573 13.5429 49.2573 11.4232 50.5659 10.118L57.0416 3.65873C61.9179 -1.20525 69.8587 -1.20525 74.735 3.65873L87.664 16.555C92.5403 21.4189 92.5403 29.3396 87.664 34.2036L81.1883 40.6629C80.5284 41.3211 79.6784 41.6446 78.8172 41.6446L78.8061 41.6335ZM57.6791 12.4719L78.8061 33.5454L82.9107 29.4512C85.1699 27.1977 85.1699 23.5274 82.9107 21.2739L69.9817 8.37768C67.7225 6.12419 64.0429 6.12419 61.7837 8.37768L57.6791 12.4719Z" fill="white"/>
<path d="M85.9167 87.7853H55.4285C53.5719 87.7853 52.0732 86.2905 52.0732 84.4386C52.0732 82.5867 53.5719 81.0918 55.4285 81.0918H85.9167C87.7733 81.0918 89.272 82.5867 89.272 84.4386C89.272 86.2905 87.7733 87.7853 85.9167 87.7853Z" fill="white"/>
</g>
<defs>
<clipPath id="clip0_4020_75213">
<rect width="92" height="92" fill="white"/>
</clipPath>
</defs>
</svg>
