<svg width="92" height="93" viewBox="0 0 92 93" fill="none" xmlns="http://www.w3.org/2000/svg">
<g clip-path="url(#clip0_4022_74576)">
<rect x="9.90137" y="5.21094" width="72.197" height="82.6046" fill="white"/>
<path d="M73.6485 92.0515H18.3508C11.3508 92.0515 5.6543 86.3661 5.6543 79.3797V13.6465C5.6543 6.66005 11.3508 0.974609 18.3508 0.974609H73.6485C80.6486 0.974609 86.3451 6.66005 86.3451 13.6465V79.3797C86.3451 86.3661 80.6486 92.0515 73.6485 92.0515ZM18.3508 6.04336C14.1525 6.04336 10.7329 9.45631 10.7329 13.6465V79.3797C10.7329 83.5698 14.1525 86.9828 18.3508 86.9828H73.6485C77.8469 86.9828 81.2665 83.5698 81.2665 79.3797V13.6465C81.2665 9.45631 77.8469 6.04336 73.6485 6.04336H18.3508Z" fill="#333333"/>
<path d="M66.5306 32.2406H52.6067C51.2016 32.2406 50.0674 31.1086 50.0674 29.7062C50.0674 28.3039 51.2016 27.1719 52.6067 27.1719H66.5306C67.9357 27.1719 69.0699 28.3039 69.0699 29.7062C69.0699 31.1086 67.9357 32.2406 66.5306 32.2406Z" fill="#333333"/>
<path d="M29.3543 35.6198C28.6772 35.6198 28.0339 35.3495 27.5599 34.8764L23.6832 31.0073C22.6928 30.0188 22.6928 28.4137 23.6832 27.4253C24.6735 26.4369 26.2817 26.4369 27.2721 27.4253L29.3543 29.5035L39.1306 19.7462C40.121 18.7578 41.7292 18.7578 42.7195 19.7462C43.7099 20.7346 43.7099 22.3397 42.7195 23.3281L31.1487 34.8764C30.6747 35.3495 30.023 35.6198 29.3543 35.6198Z" fill="#333333"/>
<path d="M66.5306 51.7885H52.6067C51.2016 51.7885 50.0674 50.6565 50.0674 49.2541C50.0674 47.8517 51.2016 46.7197 52.6067 46.7197H66.5306C67.9357 46.7197 69.0699 47.8517 69.0699 49.2541C69.0699 50.6565 67.9357 51.7885 66.5306 51.7885Z" fill="#333333"/>
<path d="M29.3543 55.1677C28.7025 55.1677 28.0508 54.9227 27.5599 54.4242L23.6832 50.5551C22.6928 49.5667 22.6928 47.9616 23.6832 46.9732C24.6735 45.9848 26.2817 45.9848 27.2721 46.9732L29.3543 49.0514L39.1306 39.294C40.121 38.3056 41.7292 38.3056 42.7195 39.294C43.7099 40.2824 43.7099 41.8875 42.7195 42.876L31.1487 54.4242C30.6494 54.9227 30.0061 55.1677 29.3543 55.1677Z" fill="#6FDCE3"/>
<path d="M66.53 69.4281H25.4778C24.0727 69.4281 22.9385 68.2961 22.9385 66.8937C22.9385 65.4914 24.0727 64.3594 25.4778 64.3594H66.53C67.935 64.3594 69.0693 65.4914 69.0693 66.8937C69.0693 68.2961 67.935 69.4281 66.53 69.4281Z" fill="#333333"/>
</g>
<defs>
<clipPath id="clip0_4022_74576">
<rect width="92" height="92" fill="white" transform="translate(0 0.512695)"/>
</clipPath>
</defs>
</svg>
