<svg width="92" height="93" viewBox="0 0 92 93" fill="none" xmlns="http://www.w3.org/2000/svg">
<g clip-path="url(#clip0_2733_31388)">
<rect x="10.6865" y="14.5547" width="71.2734" height="72.5156" rx="4" fill="white"/>
<path d="M40.503 57.7334H27.3063C25.5481 57.7334 24.1289 56.2959 24.1289 54.5151C24.1289 52.7344 25.5481 51.2969 27.3063 51.2969H40.503C42.2612 51.2969 43.6804 52.7344 43.6804 54.5151C43.6804 56.2959 42.2612 57.7334 40.503 57.7334Z" fill="#333333"/>
<path d="M64.9157 42.168H27.0836C25.3255 42.168 23.9062 40.7305 23.9062 38.9497C23.9062 37.1689 25.3255 35.7314 27.0836 35.7314H64.9157C66.6739 35.7314 68.0931 37.1689 68.0931 38.9497C68.0931 40.7305 66.6739 42.168 64.9157 42.168Z" fill="#333333"/>
<path d="M71.3029 92.0509H20.6978C11.8752 92.0509 4.69434 84.7776 4.69434 75.8416V24.5853C4.69434 15.6385 11.8752 8.37598 20.6978 8.37598H71.3029C80.1255 8.37598 87.3064 15.6493 87.3064 24.5853V75.8416C87.3064 84.7776 80.1255 92.0509 71.3029 92.0509ZM20.6978 14.8125C15.3809 14.8125 11.0491 19.2001 11.0491 24.5853V75.8416C11.0491 81.2268 15.3809 85.6144 20.6978 85.6144H71.3029C76.6198 85.6144 80.9516 81.2268 80.9516 75.8416V24.5853C80.9516 19.2001 76.6198 14.8125 71.3029 14.8125H20.6978Z" fill="#333333"/>
<path d="M59.5781 4.19238H32.4221C30.0823 4.19238 28.1855 6.11354 28.1855 8.4834V15.9712C28.1855 18.3411 30.0823 20.2623 32.4221 20.2623H59.5781C61.9179 20.2623 63.8146 18.3411 63.8146 15.9712V8.4834C63.8146 6.11354 61.9179 4.19238 59.5781 4.19238Z" fill="#6FDCE3"/>
<path d="M59.5778 23.48H32.4217C28.3335 23.48 25.0078 20.1116 25.0078 15.9708V8.48292C25.0078 4.34208 28.3335 0.973633 32.4217 0.973633H59.5778C63.666 0.973633 66.9917 4.34208 66.9917 8.48292V15.9708C66.9917 20.1116 63.666 23.48 59.5778 23.48ZM32.4217 7.41016C31.8392 7.41016 31.3626 7.8929 31.3626 8.48292V15.9708C31.3626 16.5608 31.8392 17.0435 32.4217 17.0435H59.5778C60.1603 17.0435 60.6369 16.5608 60.6369 15.9708V8.48292C60.6369 7.8929 60.1603 7.41016 59.5778 7.41016H32.4217Z" fill="#333333"/>
</g>
<defs>
<clipPath id="clip0_2733_31388">
<rect width="92" height="92" fill="white" transform="translate(0 0.512695)"/>
</clipPath>
</defs>
</svg>
