<svg width="92" height="93" viewBox="0 0 92 93" fill="none" xmlns="http://www.w3.org/2000/svg">
<g clip-path="url(#clip0_2733_31336)">
<rect x="6.00781" y="7.16797" width="80.2852" height="79.9019" rx="4" fill="white"/>
<path d="M74.0231 92.0515H17.9757C8.31924 92.0515 0.460938 84.1932 0.460938 74.5367V18.4894C0.460938 8.83291 8.31924 0.974609 17.9757 0.974609H74.0231C83.6796 0.974609 91.5379 8.83291 91.5379 18.4894V74.5367C91.5379 84.1932 83.6796 92.0515 74.0231 92.0515ZM17.9757 7.98053C12.1842 7.98053 7.46685 12.6978 7.46685 18.4894V74.5367C7.46685 80.3283 12.1842 85.0456 17.9757 85.0456H74.0231C79.8146 85.0456 84.5319 80.3283 84.5319 74.5367V18.4894C84.5319 12.6978 79.8146 7.98053 74.0231 7.98053H17.9757Z" fill="#333333"/>
<path d="M45.1002 41.2693L34.1126 29.3009L23.1133 41.2693V4.47656H45.1002V41.2693Z" fill="#6FDCE3"/>
<path d="M45.1012 44.7723C44.1438 44.7723 43.198 44.3753 42.5207 43.6397L34.1136 34.4853L25.7065 43.6397C24.7257 44.7022 23.1961 45.0642 21.8533 44.5388C20.5105 44.0133 19.623 42.7172 19.623 41.281V4.47659C19.623 2.53829 21.1877 0.973633 23.126 0.973633H45.1012C47.0395 0.973633 48.6042 2.53829 48.6042 4.47659V41.2693C48.6042 42.7172 47.7168 44.0133 46.374 44.5271C45.9653 44.6906 45.5333 44.7723 45.1012 44.7723ZM34.1136 25.7979C35.0944 25.7979 36.0286 26.2066 36.6941 26.9306L41.5983 32.2784V7.97955H26.629V32.2784L31.5331 26.9306C32.1987 26.2066 33.1328 25.7979 34.1136 25.7979Z" fill="#333333"/>
</g>
<defs>
<clipPath id="clip0_2733_31336">
<rect width="92" height="92" fill="white" transform="translate(0 0.512695)"/>
</clipPath>
</defs>
</svg>
