<svg width="92" height="93" viewBox="0 0 92 93" fill="none" xmlns="http://www.w3.org/2000/svg">
<g clip-path="url(#clip0_2733_31516)">
<path d="M79.0998 3.33008H11.3496V89.6961H79.0998V3.33008Z" fill="white"/>
<path d="M79.1017 92.0515H11.3515C10.0611 92.0515 9.01953 90.9994 9.01953 89.6961V3.33005C9.01953 2.0267 10.0611 0.974609 11.3515 0.974609H79.1017C80.392 0.974609 81.4336 2.0267 81.4336 3.33005V89.6961C81.4336 90.9994 80.392 92.0515 79.1017 92.0515ZM13.6834 87.3407H76.7698V5.68548H13.6834V87.3407Z" fill="#333333"/>
<path d="M15.0191 24.0267H7.98446C5.65253 24.0267 3.76367 22.1188 3.76367 19.7633C3.76367 17.4079 5.65253 15.5 7.98446 15.5H15.0191C17.351 15.5 19.2399 17.4079 19.2399 19.7633C19.2399 22.1188 17.351 24.0267 15.0191 24.0267Z" fill="#6FDCE3"/>
<path d="M15.021 26.3821H7.98631C4.37182 26.3821 1.43359 23.4142 1.43359 19.7633C1.43359 16.1124 4.37182 13.1445 7.98631 13.1445H15.021C18.6354 13.1445 21.5737 16.1124 21.5737 19.7633C21.5737 23.4142 18.6354 26.3821 15.021 26.3821ZM7.98631 17.8554C6.94471 17.8554 6.09745 18.7112 6.09745 19.7633C6.09745 20.8154 6.94471 21.6712 7.98631 21.6712H15.021C16.0625 21.6712 16.9098 20.8154 16.9098 19.7633C16.9098 18.7112 16.0625 17.8554 15.021 17.8554H7.98631Z" fill="#333333"/>
<path d="M15.0191 41.8646H7.98446C5.65253 41.8646 3.76367 39.9567 3.76367 37.6012C3.76367 35.2458 5.65253 33.3379 7.98446 33.3379H15.0191C17.351 33.3379 19.2399 35.2458 19.2399 37.6012C19.2399 39.9567 17.351 41.8646 15.0191 41.8646Z" fill="#6FDCE3"/>
<path d="M15.021 44.22H7.98631C4.37182 44.22 1.43359 41.2521 1.43359 37.6012C1.43359 33.9503 4.37182 30.9824 7.98631 30.9824H15.021C18.6354 30.9824 21.5737 33.9503 21.5737 37.6012C21.5737 41.2521 18.6354 44.22 15.021 44.22ZM7.98631 35.6854C6.94471 35.6854 6.09745 36.5413 6.09745 37.5933C6.09745 38.6454 6.94471 39.5013 7.98631 39.5013H15.021C16.0625 39.5013 16.9098 38.6454 16.9098 37.5933C16.9098 36.5413 16.0625 35.6854 15.021 35.6854H7.98631Z" fill="#333333"/>
<path d="M15.0269 51.1689H7.98446C5.65338 51.1689 3.76367 53.0777 3.76367 55.4323C3.76367 57.7869 5.65338 59.6956 7.98446 59.6956H15.0269C17.358 59.6956 19.2477 57.7869 19.2477 55.4323C19.2477 53.0777 17.358 51.1689 15.0269 51.1689Z" fill="#6FDCE3"/>
<path d="M15.021 62.051H7.98631C4.37182 62.051 1.43359 59.0832 1.43359 55.4323C1.43359 51.7813 4.37182 48.8135 7.98631 48.8135H15.021C18.6354 48.8135 21.5737 51.7813 21.5737 55.4323C21.5737 59.0832 18.6354 62.051 15.021 62.051ZM7.98631 53.5165C6.94471 53.5165 6.09745 54.3723 6.09745 55.4244C6.09745 56.4765 6.94471 57.3323 7.98631 57.3323H15.021C16.0625 57.3323 16.9098 56.4765 16.9098 55.4244C16.9098 54.3723 16.0625 53.5165 15.021 53.5165H7.98631Z" fill="#333333"/>
<path d="M15.0191 77.5257H7.98446C5.65253 77.5257 3.76367 75.6178 3.76367 73.2624C3.76367 70.9069 5.65253 68.999 7.98446 68.999H15.0191C17.351 68.999 19.2399 70.9069 19.2399 73.2624C19.2399 75.6178 17.351 77.5257 15.0191 77.5257Z" fill="#6FDCE3"/>
<path d="M15.021 79.8811H7.98631C4.37182 79.8811 1.43359 76.9133 1.43359 73.2623C1.43359 69.6114 4.37182 66.6436 7.98631 66.6436H15.021C18.6354 66.6436 21.5737 69.6114 21.5737 73.2623C21.5737 76.9133 18.6354 79.8811 15.021 79.8811ZM7.98631 71.3544C6.94471 71.3544 6.09745 72.2102 6.09745 73.2623C6.09745 74.3144 6.94471 75.1702 7.98631 75.1702H15.021C16.0625 75.1702 16.9098 74.3144 16.9098 73.2623C16.9098 72.2102 16.0625 71.3544 15.021 71.3544H7.98631Z" fill="#333333"/>
<path d="M88.233 10.9141H79.0996V24.1752H88.233V10.9141Z" fill="#FFAF9C"/>
<path d="M88.2348 26.5306H79.1015C77.8111 26.5306 76.7695 25.4785 76.7695 24.1751V10.914C76.7695 9.61069 77.8111 8.55859 79.1015 8.55859H88.2348C89.5252 8.55859 90.5668 9.61069 90.5668 10.914V24.1751C90.5668 25.4785 89.5252 26.5306 88.2348 26.5306ZM81.4334 21.8197H85.9029V13.2695H81.4334V21.8197Z" fill="#333333"/>
<path d="M88.233 24.208H79.0996V37.4691H88.233V24.208Z" fill="#FFDB8A"/>
<path d="M88.2348 39.8245H79.1015C77.8111 39.8245 76.7695 38.7724 76.7695 37.4691V24.208C76.7695 22.9046 77.8111 21.8525 79.1015 21.8525H88.2348C89.5252 21.8525 90.5668 22.9046 90.5668 24.208V37.4691C90.5668 38.7724 89.5252 39.8245 88.2348 39.8245ZM81.4334 35.1137H85.9029V26.5634H81.4334V35.1137Z" fill="#333333"/>
<path d="M88.233 37.5H79.0996V50.7611H88.233V37.5Z" fill="#B0D6B0"/>
<path d="M88.2348 53.1165H79.1015C77.8111 53.1165 76.7695 52.0644 76.7695 50.7611V37.5C76.7695 36.1966 77.8111 35.1445 79.1015 35.1445H88.2348C89.5252 35.1445 90.5668 36.1966 90.5668 37.5V50.7611C90.5668 52.0644 89.5252 53.1165 88.2348 53.1165ZM81.4334 48.4056H85.9029V39.8554H81.4334V48.4056Z" fill="#333333"/>
<path d="M57.658 75.6191H46.0761C44.7857 75.6191 43.7441 74.567 43.7441 73.2636C43.7441 71.9603 44.7857 70.9082 46.0761 70.9082H57.658C58.9483 70.9082 59.9899 71.9603 59.9899 73.2636C59.9899 74.567 58.9483 75.6191 57.658 75.6191Z" fill="#333333"/>
<path d="M67.1011 75.6191H65.1034C63.8131 75.6191 62.7715 74.567 62.7715 73.2636C62.7715 71.9603 63.8131 70.9082 65.1034 70.9082H67.1011C68.3914 70.9082 69.433 71.9603 69.433 73.2636C69.433 74.567 68.3914 75.6191 67.1011 75.6191Z" fill="#333333"/>
</g>
<defs>
<clipPath id="clip0_2733_31516">
<rect width="92" height="92" fill="white" transform="translate(0 0.512695)"/>
</clipPath>
</defs>
</svg>
