<svg width="92" height="92" viewBox="0 0 92 92" fill="none" xmlns="http://www.w3.org/2000/svg">
<path d="M73.6485 91.5388H18.3508C11.3508 91.5388 5.6543 85.8534 5.6543 78.867V13.1338C5.6543 6.14736 11.3508 0.461914 18.3508 0.461914H73.6485C80.6486 0.461914 86.3451 6.14736 86.3451 13.1338V78.867C86.3451 85.8534 80.6486 91.5388 73.6485 91.5388ZM18.3508 5.53066C14.1525 5.53066 10.7329 8.94362 10.7329 13.1338V78.867C10.7329 83.0571 14.1525 86.4701 18.3508 86.4701H73.6485C77.8469 86.4701 81.2665 83.0571 81.2665 78.867V13.1338C81.2665 8.94362 77.8469 5.53066 73.6485 5.53066H18.3508Z" fill="white"/>
<path d="M66.5296 31.7279H52.6057C51.2006 31.7279 50.0664 30.5959 50.0664 29.1936C50.0664 27.7912 51.2006 26.6592 52.6057 26.6592H66.5296C67.9347 26.6592 69.0689 27.7912 69.0689 29.1936C69.0689 30.5959 67.9347 31.7279 66.5296 31.7279Z" fill="white"/>
<path d="M29.3543 35.1071C28.6772 35.1071 28.0339 34.8368 27.5599 34.3637L23.6832 30.4946C22.6928 29.5062 22.6928 27.901 23.6832 26.9126C24.6735 25.9242 26.2817 25.9242 27.2721 26.9126L29.3543 28.9908L39.1306 19.2335C40.121 18.2451 41.7292 18.2451 42.7195 19.2335C43.7099 20.2219 43.7099 21.827 42.7195 22.8154L31.1487 34.3637C30.6747 34.8368 30.023 35.1071 29.3543 35.1071Z" fill="white"/>
<path d="M66.5296 51.2758H52.6057C51.2006 51.2758 50.0664 50.1438 50.0664 48.7414C50.0664 47.3391 51.2006 46.207 52.6057 46.207H66.5296C67.9347 46.207 69.0689 47.3391 69.0689 48.7414C69.0689 50.1438 67.9347 51.2758 66.5296 51.2758Z" fill="white"/>
<path d="M29.3543 54.655C28.7025 54.655 28.0508 54.41 27.5599 53.9116L23.6832 50.0424C22.6928 49.054 22.6928 47.4489 23.6832 46.4605C24.6735 45.4721 26.2817 45.4721 27.2721 46.4605L29.3543 48.5387L39.1306 38.7813C40.121 37.7929 41.7292 37.7929 42.7195 38.7813C43.7099 39.7697 43.7099 41.3749 42.7195 42.3633L31.1487 53.9116C30.6494 54.41 30.0061 54.655 29.3543 54.655Z" fill="#6FDCE3"/>
<path d="M66.53 68.9154H25.4778C24.0727 68.9154 22.9385 67.7834 22.9385 66.3811C22.9385 64.9787 24.0727 63.8467 25.4778 63.8467H66.53C67.935 63.8467 69.0693 64.9787 69.0693 66.3811C69.0693 67.7834 67.935 68.9154 66.53 68.9154Z" fill="white"/>
</svg>
