<svg width="92" height="93" viewBox="0 0 92 93" fill="none" xmlns="http://www.w3.org/2000/svg">
<g clip-path="url(#clip0_4022_74463)">
<path d="M46.0397 91.5648C25.0611 91.5648 8 74.5462 8 53.6197V50.7285C8 48.9705 9.42264 47.5514 11.185 47.5514C12.9474 47.5514 14.37 48.9705 14.37 50.7285V53.6197C14.37 71.0408 28.5752 85.2106 46.0397 85.2106C63.5042 85.2106 77.7094 71.0408 77.7094 53.6197V38.4437C77.7094 36.6857 79.132 35.2666 80.8944 35.2666C82.6568 35.2666 84.0794 36.6857 84.0794 38.4437V53.6197C84.0794 74.5462 67.0183 91.5648 46.0397 91.5648Z" fill="#333333"/>
<path d="M11.185 44.2572C9.42264 44.2572 8 42.8381 8 41.0801V38.4431C8 17.506 25.0611 0.487305 46.0397 0.487305C62.7929 0.487305 77.4015 11.2153 82.3807 27.1856C82.9009 28.8588 81.9667 30.638 80.2892 31.1569C78.6118 31.6864 76.8282 30.7439 76.3079 29.0706C72.1568 15.7798 60.0007 6.84151 46.0503 6.84151C28.5858 6.84151 14.3806 21.0114 14.3806 38.4325V41.0695C14.3806 42.8275 12.958 44.2466 11.1956 44.2466L11.185 44.2572Z" fill="#333333"/>
<path d="M46.0393 79.9786C31.4731 79.9786 19.6143 68.1492 19.6143 53.6193V38.4433C19.6143 23.9134 31.4731 12.084 46.0393 12.084C47.8016 12.084 49.2243 13.5031 49.2243 15.2611C49.2243 17.0191 47.8016 18.4382 46.0393 18.4382C34.9873 18.4382 25.9843 27.4082 25.9843 38.4433V53.6193C25.9843 64.6544 34.9766 73.6244 46.0393 73.6244C47.8016 73.6244 49.2243 75.0435 49.2243 76.8015C49.2243 78.5595 47.8016 79.9786 46.0393 79.9786Z" fill="#333333"/>
<path d="M55.5311 77.9553C54.3102 77.9553 53.1529 77.2563 52.6221 76.0808C51.9002 74.4816 52.6221 72.5966 54.2252 71.887C61.434 68.657 66.0947 61.4873 66.0947 53.6293V38.4533C66.0947 30.3623 61.2535 23.1185 53.7581 19.9943C52.1337 19.3166 51.3693 17.4527 52.0488 15.8323C52.7283 14.212 54.5968 13.4495 56.2212 14.1273C66.0947 18.2469 72.4754 27.7994 72.4754 38.4533V53.6293C72.4754 63.9866 66.3389 73.4332 56.8476 77.6905C56.4229 77.8811 55.977 77.9659 55.5417 77.9659L55.5311 77.9553Z" fill="#333333"/>
<path d="M46.0399 68.3815C37.8757 68.3815 31.2402 61.752 31.2402 53.6186V48.4611C31.2402 46.7031 32.6629 45.284 34.4252 45.284C36.1876 45.284 37.6103 46.7031 37.6103 48.4611V53.6186C37.6103 58.2571 41.3898 62.0273 46.0399 62.0273C50.6901 62.0273 54.4696 58.2571 54.4696 53.6186V38.4426C54.4696 33.8041 50.6901 30.0339 46.0399 30.0339C41.3898 30.0339 37.6103 33.8041 37.6103 38.4426C37.6103 40.2006 36.1876 41.6197 34.4252 41.6197C32.6629 41.6197 31.2402 40.2006 31.2402 38.4426C31.2402 30.2986 37.8863 23.6797 46.0399 23.6797C54.1936 23.6797 60.8396 30.3092 60.8396 38.4426V53.6186C60.8396 61.7625 54.1936 68.3815 46.0399 68.3815Z" fill="#6FDCE3"/>
<path d="M46.0395 56.3199C44.2771 56.3199 42.8545 54.9008 42.8545 53.1428V38.8988C42.8545 37.1408 44.2771 35.7217 46.0395 35.7217C47.8019 35.7217 49.2245 37.1408 49.2245 38.8988V53.1428C49.2245 54.9008 47.8019 56.3199 46.0395 56.3199Z" fill="#333333"/>
</g>
<defs>
<clipPath id="clip0_4022_74463">
<rect width="92" height="92" fill="white" transform="translate(0 0.487305)"/>
</clipPath>
</defs>
</svg>
