<svg width="92" height="93" viewBox="0 0 92 93" fill="none" xmlns="http://www.w3.org/2000/svg">
<g clip-path="url(#clip0_2733_31576)">
<rect x="10.6836" y="14.5557" width="71.2734" height="72.5156" rx="4" fill="white"/>
<path d="M71.3019 92.0509H20.6968C11.8742 92.0509 4.69336 84.7776 4.69336 75.8416V24.5853C4.69336 15.6385 11.8742 8.37598 20.6968 8.37598H71.3019C80.1245 8.37598 87.3054 15.6493 87.3054 24.5853V75.8416C87.3054 84.7776 80.1245 92.0509 71.3019 92.0509ZM20.6968 14.8125C15.38 14.8125 11.0481 19.2001 11.0481 24.5853V75.8416C11.0481 81.2268 15.38 85.6143 20.6968 85.6143H71.3019C76.6188 85.6143 80.9506 81.2268 80.9506 75.8416V24.5853C80.9506 19.2001 76.6188 14.8125 71.3019 14.8125H20.6968Z" fill="#333333"/>
<path d="M59.5781 4.19336H32.4221C30.0823 4.19336 28.1855 6.11451 28.1855 8.48438V15.9722C28.1855 18.3421 30.0823 20.2632 32.4221 20.2632H59.5781C61.9179 20.2632 63.8146 18.3421 63.8146 15.9722V8.48438C63.8146 6.11451 61.9179 4.19336 59.5781 4.19336Z" fill="#6FDCE3"/>
<path d="M59.5778 23.481H32.4217C28.3335 23.481 25.0078 20.1126 25.0078 15.9717V8.4839C25.0078 4.34306 28.3335 0.974609 32.4217 0.974609H59.5778C63.666 0.974609 66.9917 4.34306 66.9917 8.4839V15.9717C66.9917 20.1126 63.666 23.481 59.5778 23.481ZM32.4217 7.41114C31.8392 7.41114 31.3626 7.89388 31.3626 8.4839V15.9717C31.3626 16.5617 31.8392 17.0445 32.4217 17.0445H59.5778C60.1603 17.0445 60.6369 16.5617 60.6369 15.9717V8.4839C60.6369 7.89388 60.1603 7.41114 59.5778 7.41114H32.4217Z" fill="#333333"/>
<path d="M41.5534 61.5983C40.8001 61.5983 40.0469 61.2626 39.4795 60.5795L34.999 55.2772C33.8545 53.9227 33.8545 51.7231 34.999 50.3686C36.1436 49.014 38.0023 49.014 39.1469 50.3686L41.5534 53.2165L52.8523 39.845C53.9969 38.4905 55.8556 38.4905 57.0002 39.845C58.1447 41.1995 58.1447 43.3992 57.0002 44.7537L43.6273 60.5795C43.0501 61.2626 42.3067 61.5983 41.5534 61.5983Z" fill="#6FDCE3"/>
</g>
<defs>
<clipPath id="clip0_2733_31576">
<rect width="92" height="92" fill="white" transform="translate(0 0.512695)"/>
</clipPath>
</defs>
</svg>
