<svg width="92" height="92" viewBox="0 0 92 92" fill="none" xmlns="http://www.w3.org/2000/svg">
<path d="M45.9997 91.5385C25.021 91.5385 7.95996 74.5198 7.95996 53.5933V50.7021C7.95996 48.9441 9.3826 47.525 11.145 47.525C12.9074 47.525 14.33 48.9441 14.33 50.7021V53.5933C14.33 71.0144 28.5352 85.1843 45.9997 85.1843C63.4642 85.1843 77.6693 71.0144 77.6693 53.5933V38.4173C77.6693 36.6593 79.092 35.2402 80.8543 35.2402C82.6167 35.2402 84.0394 36.6593 84.0394 38.4173V53.5933C84.0394 74.5198 66.9783 91.5385 45.9997 91.5385Z" fill="white"/>
<path d="M11.145 44.2318C9.3826 44.2318 7.95996 42.8127 7.95996 41.0547V38.4177C7.95996 17.4806 25.021 0.461914 45.9997 0.461914C62.7528 0.461914 77.3614 11.1899 82.3407 27.1602C82.8609 28.8334 81.9266 30.6126 80.2492 31.1315C78.5717 31.6611 76.7881 30.7185 76.2679 29.0452C72.1168 15.7544 59.9606 6.81612 46.0103 6.81612C28.5458 6.81612 14.3406 20.986 14.3406 38.4071V41.0441C14.3406 42.8021 12.918 44.2212 11.1556 44.2212L11.145 44.2318Z" fill="white"/>
<path d="M45.9992 79.9533C31.4331 79.9533 19.5742 68.1239 19.5742 53.5939V38.4179C19.5742 23.888 31.4331 12.0586 45.9992 12.0586C47.7616 12.0586 49.1842 13.4777 49.1842 15.2357C49.1842 16.9937 47.7616 18.4128 45.9992 18.4128C34.9472 18.4128 25.9442 27.3828 25.9442 38.4179V53.5939C25.9442 64.629 34.9366 73.5991 45.9992 73.5991C47.7616 73.5991 49.1842 75.0182 49.1842 76.7762C49.1842 78.5342 47.7616 79.9533 45.9992 79.9533Z" fill="white"/>
<path d="M55.491 77.9299C54.2701 77.9299 53.1129 77.2309 52.5821 76.0554C51.8601 74.4562 52.5821 72.5712 54.1852 71.8616C61.3939 68.6316 66.0547 61.4619 66.0547 53.6039V38.4279C66.0547 30.3369 61.2135 23.0931 53.7181 19.9689C52.0937 19.2912 51.3293 17.4273 52.0088 15.8069C52.6882 14.1866 54.5568 13.4241 56.1811 14.1019C66.0547 18.2215 72.4353 27.774 72.4353 38.4279V53.6039C72.4353 63.9612 66.2989 73.4078 56.8075 77.6651C56.3828 77.8558 55.9369 77.9405 55.5017 77.9405L55.491 77.9299Z" fill="white"/>
<path d="M45.9999 68.3561C37.8356 68.3561 31.2002 61.7266 31.2002 53.5932V48.4357C31.2002 46.6777 32.6228 45.2586 34.3852 45.2586C36.1476 45.2586 37.5702 46.6777 37.5702 48.4357V53.5932C37.5702 58.2318 41.3498 62.0019 45.9999 62.0019C50.65 62.0019 54.4296 58.2318 54.4296 53.5932V38.4172C54.4296 33.7787 50.65 30.0085 45.9999 30.0085C41.3498 30.0085 37.5702 33.7787 37.5702 38.4172C37.5702 40.1752 36.1476 41.5943 34.3852 41.5943C32.6228 41.5943 31.2002 40.1752 31.2002 38.4172C31.2002 30.2733 37.8463 23.6543 45.9999 23.6543C54.1535 23.6543 60.7996 30.2839 60.7996 38.4172V53.5932C60.7996 61.7372 54.1535 68.3561 45.9999 68.3561Z" fill="#6FDCE3"/>
<path d="M45.9995 56.2945C44.2371 56.2945 42.8145 54.8754 42.8145 53.1174V38.8734C42.8145 37.1154 44.2371 35.6963 45.9995 35.6963C47.7618 35.6963 49.1845 37.1154 49.1845 38.8734V53.1174C49.1845 54.8754 47.7618 56.2945 45.9995 56.2945Z" fill="white"/>
</svg>
