<svg width="92" height="92" viewBox="0 0 92 92" fill="none" xmlns="http://www.w3.org/2000/svg">
<path d="M78.6681 91.0769H10.9179C9.62753 91.0769 8.58594 90.0248 8.58594 88.7215V2.35544C8.58594 1.0521 9.62753 0 10.9179 0H78.6681C79.9584 0 81 1.0521 81 2.35544V88.7215C81 90.0248 79.9584 91.0769 78.6681 91.0769ZM13.2498 86.366H76.3362V4.71088H13.2498V86.366Z" fill="white"/>
<path d="M14.5875 23.0521H7.55282C5.22089 23.0521 3.33203 21.1442 3.33203 18.7887C3.33203 16.4333 5.22089 14.5254 7.55282 14.5254H14.5875C16.9194 14.5254 18.8083 16.4333 18.8083 18.7887C18.8083 21.1442 16.9194 23.0521 14.5875 23.0521Z" fill="#6FDCE3"/>
<path d="M14.5874 25.4075H7.55271C3.93823 25.4075 1 22.4396 1 18.7887C1 15.1378 3.93823 12.1699 7.55271 12.1699H14.5874C18.2018 12.1699 21.1401 15.1378 21.1401 18.7887C21.1401 22.4396 18.2018 25.4075 14.5874 25.4075ZM7.55271 16.8808C6.51112 16.8808 5.66385 17.7366 5.66385 18.7887C5.66385 19.8408 6.51112 20.6966 7.55271 20.6966H14.5874C15.629 20.6966 16.4762 19.8408 16.4762 18.7887C16.4762 17.7366 15.629 16.8808 14.5874 16.8808H7.55271Z" fill="white"/>
<path d="M14.5875 40.8909H7.55282C5.22089 40.8909 3.33203 38.983 3.33203 36.6276C3.33203 34.2722 5.22089 32.3643 7.55282 32.3643H14.5875C16.9194 32.3643 18.8083 34.2722 18.8083 36.6276C18.8083 38.983 16.9194 40.8909 14.5875 40.8909Z" fill="#6FDCE3"/>
<path d="M14.5874 43.2463H7.55271C3.93823 43.2463 1 40.2785 1 36.6276C1 32.9766 3.93823 30.0088 7.55271 30.0088H14.5874C18.2018 30.0088 21.1401 32.9766 21.1401 36.6276C21.1401 40.2785 18.2018 43.2463 14.5874 43.2463ZM7.55271 34.7118C6.51112 34.7118 5.66385 35.5676 5.66385 36.6197C5.66385 37.6718 6.51112 38.5276 7.55271 38.5276H14.5874C15.629 38.5276 16.4762 37.6718 16.4762 36.6197C16.4762 35.5676 15.629 34.7118 14.5874 34.7118H7.55271Z" fill="white"/>
<path d="M14.5952 50.1943H7.55282C5.22174 50.1943 3.33203 52.1031 3.33203 54.4577C3.33203 56.8123 5.22174 58.721 7.55282 58.721H14.5952C16.9263 58.721 18.816 56.8123 18.816 54.4577C18.816 52.1031 16.9263 50.1943 14.5952 50.1943Z" fill="#6FDCE3"/>
<path d="M14.5874 61.0764H7.55271C3.93823 61.0764 1 58.1086 1 54.4576C1 50.8067 3.93823 47.8389 7.55271 47.8389H14.5874C18.2018 47.8389 21.1401 50.8067 21.1401 54.4576C21.1401 58.1086 18.2018 61.0764 14.5874 61.0764ZM7.55271 52.5419C6.51112 52.5419 5.66385 53.3977 5.66385 54.4498C5.66385 55.5019 6.51112 56.3577 7.55271 56.3577H14.5874C15.629 56.3577 16.4762 55.5019 16.4762 54.4498C16.4762 53.3977 15.629 52.5419 14.5874 52.5419H7.55271Z" fill="white"/>
<path d="M14.5875 76.5521H7.55282C5.22089 76.5521 3.33203 74.6442 3.33203 72.2887C3.33203 69.9333 5.22089 68.0254 7.55282 68.0254H14.5875C16.9194 68.0254 18.8083 69.9333 18.8083 72.2887C18.8083 74.6442 16.9194 76.5521 14.5875 76.5521Z" fill="#6FDCE3"/>
<path d="M14.5874 78.9075H7.55271C3.93823 78.9075 1 75.9396 1 72.2887C1 68.6378 3.93823 65.6699 7.55271 65.6699H14.5874C18.2018 65.6699 21.1401 68.6378 21.1401 72.2887C21.1401 75.9396 18.2018 78.9075 14.5874 78.9075ZM7.55271 70.3808C6.51112 70.3808 5.66385 71.2366 5.66385 72.2887C5.66385 73.3408 6.51112 74.1966 7.55271 74.1966H14.5874C15.629 74.1966 16.4762 73.3408 16.4762 72.2887C16.4762 71.2366 15.629 70.3808 14.5874 70.3808H7.55271Z" fill="white"/>
<path d="M87.8013 9.94043H78.668V23.2015H87.8013V9.94043Z" fill="#FFAF9C"/>
<path d="M87.8012 25.5569H78.6679C77.3775 25.5569 76.3359 24.5049 76.3359 23.2015V9.9404C76.3359 8.63706 77.3775 7.58496 78.6679 7.58496H87.8012C89.0916 7.58496 90.1332 8.63706 90.1332 9.9404V23.2015C90.1332 24.5049 89.0916 25.5569 87.8012 25.5569ZM80.9998 20.8461H85.4693V12.2958H80.9998V20.8461Z" fill="white"/>
<path d="M87.8013 23.2324H78.668V36.4935H87.8013V23.2324Z" fill="#FFDB8A"/>
<path d="M87.8012 38.8489H78.6679C77.3775 38.8489 76.3359 37.7968 76.3359 36.4935V23.2324C76.3359 21.929 77.3775 20.877 78.6679 20.877H87.8012C89.0916 20.877 90.1332 21.929 90.1332 23.2324V36.4935C90.1332 37.7968 89.0916 38.8489 87.8012 38.8489ZM80.9998 34.1381H85.4693V25.5878H80.9998V34.1381Z" fill="white"/>
<path d="M87.8013 36.5254H78.668V49.7865H87.8013V36.5254Z" fill="#B0D6B0"/>
<path d="M87.8012 52.1419H78.6679C77.3775 52.1419 76.3359 51.0898 76.3359 49.7865V36.5254C76.3359 35.222 77.3775 34.1699 78.6679 34.1699H87.8012C89.0916 34.1699 90.1332 35.222 90.1332 36.5254V49.7865C90.1332 51.0898 89.0916 52.1419 87.8012 52.1419ZM80.9998 47.431H85.4693V38.8808H80.9998V47.431Z" fill="white"/>
<path d="M57.2224 74.6435H45.6405C44.3502 74.6435 43.3086 73.5914 43.3086 72.2881C43.3086 70.9847 44.3502 69.9326 45.6405 69.9326H57.2224C58.5128 69.9326 59.5543 70.9847 59.5543 72.2881C59.5543 73.5914 58.5128 74.6435 57.2224 74.6435Z" fill="white"/>
<path d="M66.6675 74.6435H64.6698C63.3795 74.6435 62.3379 73.5914 62.3379 72.2881C62.3379 70.9847 63.3795 69.9326 64.6698 69.9326H66.6675C67.9578 69.9326 68.9994 70.9847 68.9994 72.2881C68.9994 73.5914 67.9578 74.6435 66.6675 74.6435Z" fill="white"/>
</svg>
