<svg width="92" height="92" viewBox="0 0 92 92" fill="none" xmlns="http://www.w3.org/2000/svg">
<g clip-path="url(#clip0_2733_31348)">
<path d="M74.0231 91.5388H17.9757C8.31924 91.5388 0.460938 83.6805 0.460938 74.024V17.9767C0.460938 8.32022 8.31924 0.461914 17.9757 0.461914H74.0231C83.6796 0.461914 91.5379 8.32022 91.5379 17.9767V74.024C91.5379 83.6805 83.6796 91.5388 74.0231 91.5388ZM17.9757 7.46783C12.1842 7.46783 7.46685 12.1851 7.46685 17.9767V74.024C7.46685 79.8156 12.1842 84.5329 17.9757 84.5329H74.0231C79.8146 84.5329 84.5319 79.8156 84.5319 74.024V17.9767C84.5319 12.1851 79.8146 7.46783 74.0231 7.46783H17.9757Z" fill="white"/>
<path d="M45.1021 40.7576L34.1145 28.7891L23.1152 40.7576V3.96484H45.1021V40.7576Z" fill="#6FDCE3"/>
<path d="M45.1012 44.2606C44.1438 44.2606 43.198 43.8636 42.5207 43.128L34.1136 33.9736L25.7065 43.128C24.7257 44.1905 23.1961 44.5525 21.8533 44.027C20.5105 43.5016 19.623 42.2055 19.623 40.7693V3.96487C19.623 2.02657 21.1877 0.461914 23.126 0.461914H45.1012C47.0395 0.461914 48.6042 2.02657 48.6042 3.96487V40.7576C48.6042 42.2055 47.7168 43.5016 46.374 44.0154C45.9653 44.1788 45.5333 44.2606 45.1012 44.2606ZM34.1136 25.2862C35.0944 25.2862 36.0286 25.6949 36.6941 26.4188L41.5983 31.7667V7.46783H26.629V31.7667L31.5331 26.4188C32.1987 25.6949 33.1328 25.2862 34.1136 25.2862Z" fill="white"/>
</g>
<defs>
<clipPath id="clip0_2733_31348">
<rect width="92" height="92" fill="white"/>
</clipPath>
</defs>
</svg>
