<svg width="92" height="93" viewBox="0 0 92 93" fill="none" xmlns="http://www.w3.org/2000/svg">
<g clip-path="url(#clip0_2733_31430)">
<path d="M7.36133 61.9386L30.8867 85.4639L86.5348 33.2091L88.7969 23.9344L69.7952 4.02832L60.7468 5.38519L11.4328 54.6992L7.36133 61.9386Z" fill="white"/>
<path d="M3.69185 92.2757C2.8083 92.2757 1.9583 91.9299 1.32079 91.294C0.560267 90.5354 0.213557 89.4644 0.38132 88.4158L5.15698 57.8486C5.26883 57.1458 5.59317 56.4987 6.09646 55.9967L50.9005 11.3061C52.209 10.0008 54.334 10.0008 55.6426 11.3061L81.5117 37.1097C82.8202 38.415 82.8202 40.5346 81.5117 41.8398L36.7077 86.5304C36.2044 87.0325 35.5557 87.3671 34.8511 87.4675L4.20633 92.2311C4.03856 92.2534 3.85961 92.2757 3.69185 92.2757ZM11.6103 59.957L7.70699 84.924L32.7373 81.0306L74.3985 39.4748L53.2715 18.4012L11.6103 59.957Z" fill="#333333"/>
<path d="M26.3546 84.9559L7.22953 65.8682L3.69531 88.4701L26.3546 84.9559Z" fill="#6FDCE3"/>
<path d="M3.69576 91.817C2.8122 91.817 1.9622 91.4711 1.3247 90.8352C0.564174 90.0766 0.217463 89.0057 0.385226 87.957L3.91944 65.3551C4.10957 64.1057 4.99313 63.0793 6.18984 62.6889C7.38655 62.2984 8.70629 62.6108 9.60103 63.5032L28.726 82.5799C29.6208 83.4723 29.9339 84.7887 29.5425 85.9824C29.1511 87.1761 28.1221 88.0574 26.8695 88.2471L4.21023 91.7723C4.04247 91.7947 3.86352 91.817 3.69576 91.817ZM9.52274 72.8965L7.72208 84.4652L19.3201 82.6691L9.53392 72.9077L9.52274 72.8965Z" fill="#333333"/>
<path d="M79.1454 42.3737C78.2842 42.3737 77.423 42.0502 76.7743 41.392L50.9052 15.5883C49.5967 14.2831 49.5967 12.1635 50.9052 10.8582L57.3809 4.39896C62.2572 -0.465019 70.198 -0.465019 75.0744 4.39896L88.0033 17.2952C92.8796 22.1592 92.8796 30.0799 88.0033 34.9439L81.5276 41.4031C80.8678 42.0613 80.0178 42.3849 79.1566 42.3849L79.1454 42.3737ZM58.0184 13.2121L79.1454 34.2857L83.25 30.1914C85.5092 27.9379 85.5092 24.2677 83.25 22.0142L70.3211 9.11792C68.0618 6.86442 64.3822 6.86442 62.123 9.11792L58.0184 13.2121Z" fill="#333333"/>
<path d="M86.2556 88.5256H55.7674C53.9108 88.5256 52.4121 87.0307 52.4121 85.1788C52.4121 83.3269 53.9108 81.832 55.7674 81.832H86.2556C88.1122 81.832 89.6108 83.3269 89.6108 85.1788C89.6108 87.0307 88.1122 88.5256 86.2556 88.5256Z" fill="#333333"/>
</g>
<defs>
<clipPath id="clip0_2733_31430">
<rect width="92" height="92" fill="white" transform="translate(0 0.512695)"/>
</clipPath>
</defs>
</svg>
