<svg width="92" height="92" viewBox="0 0 92 92" fill="none" xmlns="http://www.w3.org/2000/svg">
<path d="M86.4574 91.5388H5.54577C4.22897 91.5388 3.16602 90.4867 3.16602 89.1834V2.81735C3.16602 1.51401 4.22897 0.461914 5.54577 0.461914H65.3886C66.0232 0.461914 66.6261 0.713161 67.0703 1.15284L88.1311 22.0063C88.5754 22.446 88.8292 23.0506 88.8292 23.6708V89.1834C88.8292 90.4867 87.7662 91.5388 86.4494 91.5388H86.4574ZM7.92552 86.828H84.0776V24.6444L64.405 5.17279H7.92552V86.828Z" fill="white"/>
<path d="M86.4574 23.6718L65.3887 2.81836V23.6718H86.4574Z" fill="#6FDCE3"/>
<path d="M86.4583 26.0265H65.3895C64.0727 26.0265 63.0098 24.9744 63.0098 23.671V2.81754C63.0098 1.86752 63.5888 1.00386 64.4773 0.642688C65.3657 0.27367 66.389 0.477808 67.0712 1.15303L88.14 22.0065C88.8222 22.6817 89.0205 23.6946 88.6556 24.5739C88.2907 25.4533 87.4181 26.0265 86.4583 26.0265ZM67.7693 21.3156H80.7072L67.7693 8.50985V21.3156Z" fill="white"/>
<path d="M63.9298 72.1842C63.8743 72.1842 63.8108 72.1842 63.7553 72.1842C60.6695 71.9565 55.9418 69.7738 52.6974 66.4605C47.5571 68.18 42.2503 67.6618 38.3792 65.0237C35.9042 63.3357 34.0877 60.4856 33.3024 57.0937C25.8379 59.5826 19.5553 59.724 19.0953 59.7318H19.0635C17.7626 59.7318 16.6996 58.6954 16.6838 57.4078C16.6679 56.1045 17.715 55.0367 19.0239 55.021C19.1587 55.021 25.592 54.8561 32.8899 52.2101C33.0803 48.5278 34.4129 43.8326 38.3871 38.5329C43.0038 32.3773 48.0886 29.0091 51.9914 29.5508C53.8079 29.7942 55.2199 30.8856 55.8624 32.5422C57.1158 35.777 55.3151 40.48 50.7856 45.8033C46.9939 50.2551 42.3534 53.2779 37.7922 55.3429C38.2205 57.871 39.4421 60.038 41.0683 61.1451C43.694 62.9352 47.0653 62.998 49.8417 62.3621C48.9691 60.3599 48.7708 58.295 49.2626 56.2772C49.8417 53.9217 51.3885 52.218 53.4986 51.6134C55.561 51.0246 57.8059 51.582 59.3686 53.0816C61.0027 54.6519 61.5897 56.9367 60.971 59.3471C60.5109 61.1294 59.1782 62.8253 57.2189 64.215C59.5511 66.1386 62.4544 67.3634 64.0885 67.4891C65.3973 67.5833 66.381 68.7139 66.2858 70.0094C66.1906 71.2499 65.1514 72.1921 63.9139 72.1921L63.9298 72.1842ZM55.1485 56.0966C55.0375 56.0966 54.9343 56.1123 54.8312 56.1359C54.268 56.3007 54.0142 56.9053 53.8952 57.3842C53.6493 58.4049 53.7603 59.4492 54.2284 60.5248C55.45 59.7161 56.1956 58.8368 56.3622 58.1851C56.497 57.659 56.5526 56.9289 56.0608 56.4578C55.8148 56.2222 55.4738 56.0887 55.1406 56.0887L55.1485 56.0966ZM51.1585 34.1518C50.1114 34.1518 46.5973 35.4787 42.2027 41.3359C40.0609 44.1859 38.641 47.1302 38.0064 49.9489C41.2825 48.2137 44.4872 45.8819 47.1525 42.7648C51.7534 37.3552 51.6265 34.5286 51.4044 34.1989C51.3488 34.1753 51.2695 34.1596 51.1664 34.1596L51.1585 34.1518Z" fill="#6FDCE3"/>
</svg>
