<svg width="92" height="92" viewBox="0 0 92 92" fill="none" xmlns="http://www.w3.org/2000/svg">
<g clip-path="url(#clip0_4020_75213)">
<path d="M3.35396 91.5355C2.47041 91.5355 1.6204 91.1897 0.982904 90.5538C0.222377 89.7952 -0.124334 88.7242 0.0434293 87.6756L4.81909 57.1083C4.93094 56.4055 5.25528 55.7585 5.75857 55.2565L50.5626 10.5658C51.8711 9.2606 53.9961 9.2606 55.3047 10.5658L81.1738 36.3695C82.4824 37.6747 82.4824 39.7944 81.1738 41.0996L36.3698 85.7902C35.8665 86.2922 35.2178 86.6269 34.5132 86.7273L3.86843 91.4909C3.70067 91.5132 3.52172 91.5355 3.35396 91.5355ZM11.2724 59.2168L7.3691 84.1838L32.3994 80.2903L74.0606 38.7345L52.9336 17.661L11.2724 59.2168Z" fill="white"/>
<path d="M26.0167 84.2157L6.89164 65.1279L3.35742 87.7298L26.0167 84.2157Z" fill="#6FDCE3"/>
<path d="M3.35787 91.0767C2.47431 91.0767 1.62431 90.7309 0.98681 90.095C0.226283 89.3364 -0.120428 88.2654 0.0473355 87.2168L3.58155 64.6149C3.77168 63.3654 4.65524 62.3391 5.85195 61.9486C7.04866 61.5582 8.3684 61.8705 9.26314 62.763L28.3882 81.8396C29.2829 82.7321 29.5961 84.0485 29.2046 85.2422C28.8132 86.4359 27.7842 87.3172 26.5316 87.5068L3.87234 91.0321C3.70458 91.0544 3.52563 91.0767 3.35787 91.0767ZM9.18485 72.1563L7.38419 83.725L18.9822 81.9289L9.19603 72.1675L9.18485 72.1563Z" fill="white"/>
<path d="M78.8075 41.6335C77.9463 41.6335 77.0851 41.3099 76.4365 40.6517L50.5674 14.8481C49.2588 13.5429 49.2588 11.4232 50.5674 10.118L57.043 3.65873C61.9193 -1.20525 69.8601 -1.20525 74.7365 3.65873L87.6654 16.555C92.5417 21.4189 92.5417 29.3396 87.6654 34.2036L81.1898 40.6629C80.5299 41.3211 79.6799 41.6446 78.8187 41.6446L78.8075 41.6335ZM57.6805 12.4719L78.8075 33.5454L82.9121 29.4512C85.1713 27.1977 85.1713 23.5274 82.9121 21.2739L69.9832 8.37768C67.724 6.12419 64.0443 6.12419 61.7851 8.37768L57.6805 12.4719Z" fill="white"/>
<path d="M85.9177 87.7853H55.4295C53.5729 87.7853 52.0742 86.2905 52.0742 84.4386C52.0742 82.5867 53.5729 81.0918 55.4295 81.0918H85.9177C87.7743 81.0918 89.2729 82.5867 89.2729 84.4386C89.2729 86.2905 87.7743 87.7853 85.9177 87.7853Z" fill="white"/>
</g>
<defs>
<clipPath id="clip0_4020_75213">
<rect width="92" height="92" fill="white"/>
</clipPath>
</defs>
</svg>
