<svg width="22" height="22" viewBox="0 0 22 22" fill="none" xmlns="http://www.w3.org/2000/svg">
<g clip-path="url(#clip0_222_1560)">
<path d="M9.86639 0.388895L0.699722 7.55706C0.256667 7.90361 0 8.43256 0 8.99191V21.0878C0 21.5924 0.409444 21.9998 0.916667 21.9998H7.14389C7.65111 21.9998 8.06056 21.5924 8.06056 21.0878V13.6704C8.06056 13.1657 8.47 12.7584 8.97722 12.7584H13.0228C13.53 12.7584 13.9394 13.1657 13.9394 13.6704V21.0878C13.9394 21.5924 14.3489 21.9998 14.8561 21.9998H21.0833C21.5906 21.9998 22 21.5924 22 21.0878V8.99191C22 8.43256 21.7403 7.90361 21.3003 7.55706L12.1336 0.388895C11.4675 -0.130934 10.5325 -0.130934 9.86639 0.388895Z" fill="#111111"/>
</g>
<defs>
<clipPath id="clip0_222_1560">
<rect width="22" height="22" fill="white"/>
</clipPath>
</defs>
</svg>
