<svg width="140" height="140" viewBox="0 0 140 140" fill="none" xmlns="http://www.w3.org/2000/svg">
<path d="M69.9981 73.2071C81.677 73.2071 91.1446 63.7395 91.1446 52.0606C91.1446 40.3817 81.677 30.9141 69.9981 30.9141C58.3192 30.9141 48.8516 40.3817 48.8516 52.0606C48.8516 63.7395 58.3192 73.2071 69.9981 73.2071Z" stroke="#00ADB3" stroke-width="6" stroke-miterlimit="10"/>
<path d="M68.7135 107.279H34.6739C32.4437 107.279 30.6367 105.472 30.6367 103.242V95.4441C30.6367 83.9674 39.9483 74.6558 51.4251 74.6558H88.5739C91.439 74.6558 94.1739 75.2418 96.6646 76.2837" stroke="#00ADB3" stroke-width="6" stroke-linecap="round" stroke-linejoin="round"/>
<path d="M86.9961 96.6976L97.3821 106.205L114.052 89.7139" stroke="#00ADB3" stroke-width="6" stroke-linecap="round" stroke-linejoin="round"/>
<path d="M4.88281 33.9745V12.4536C4.88281 8.26984 8.26886 4.88379 12.4526 4.88379H35.1944" stroke="#00ADB3" stroke-width="6" stroke-linecap="round" stroke-linejoin="round"/>
<path d="M135.116 33.9745V12.4536C135.116 8.26984 131.73 4.88379 127.547 4.88379H104.805" stroke="#00ADB3" stroke-width="6" stroke-linecap="round" stroke-linejoin="round"/>
<path d="M4.88281 106.025V127.546C4.88281 131.73 8.26886 135.116 12.4526 135.116H35.1944" stroke="#00ADB3" stroke-width="6" stroke-linecap="round" stroke-linejoin="round"/>
<path d="M135.116 106.025V127.546C135.116 131.73 131.73 135.116 127.547 135.116H104.805" stroke="#00ADB3" stroke-width="6" stroke-linecap="round" stroke-linejoin="round"/>
</svg>
