<svg width="190" height="33" viewBox="0 0 190 33" fill="none" xmlns="http://www.w3.org/2000/svg">
<g clip-path="url(#clip0_3687_21381)">
<path d="M44.3328 0.249098L44.2931 0.175781C40.997 2.02337 37.628 3.90029 34.6032 6.41506C32.4653 8.18933 30.3804 10.2569 29.2353 13.6075V13.5855C27.7593 17.398 26.8856 21.1445 25.959 21.9289C25.959 21.9289 28.3484 19.5681 28.8051 19.1502C31.6247 16.5035 34.6098 14.0107 37.767 11.6939C40.9241 9.37707 44.1608 7.3022 47.4569 5.45461L44.3395 0.249098H44.3328Z" fill="url(#paint0_linear_3687_21381)"/>
<path d="M48.5822 7.36824L48.5359 7.29492C45.2397 9.14251 42.0031 11.2174 38.8525 13.5342C35.6953 15.8584 32.7102 18.3511 29.8906 20.9979L33.0544 26.2767C35.874 23.63 38.8591 21.1372 42.0163 18.813C45.1669 16.4962 48.4101 14.4213 51.6997 12.5664L48.5822 7.36091" fill="#00B085"/>
<path d="M52.6064 14.0836L52.5666 14.0176C49.2638 15.8652 46.0339 17.9474 42.8767 20.2642C39.7195 22.581 36.7344 25.0811 33.9148 27.7279L37.0786 32.9994C39.8982 30.3526 42.8833 27.8525 46.0405 25.5357C49.1977 23.2189 52.4276 21.144 55.7304 19.2891L52.613 14.0836" fill="#007DC3"/>
<path d="M3.11747 18.9085L3.15718 18.9745C6.45336 17.1269 9.68996 15.052 12.8471 12.7352C16.0043 10.4184 18.9828 7.91824 21.809 5.2715L18.6519 0C15.8322 2.64675 12.8471 5.13952 9.68996 7.45634C6.53278 9.78049 3.29618 11.8554 0 13.703L3.11747 18.9085Z" fill="#EF3E42"/>
<path d="M7.29389 25.8806L7.3336 25.954C10.6298 24.1064 13.8664 22.0315 17.0236 19.7073C20.1807 17.3905 23.1592 14.8904 25.9854 12.2437L22.8216 6.96484C20.002 9.61159 17.0169 12.1117 13.8598 14.4285C10.7026 16.7453 7.46597 18.8202 4.1698 20.6751L7.28727 25.8806" fill="#F58025"/>
<path d="M29.7649 11.0566C29.7649 11.0566 27.3755 13.4174 26.9188 13.8427C24.0992 16.4894 21.1141 18.9895 17.9635 21.3064C14.8063 23.6305 11.5697 25.7054 8.27356 27.553L11.391 32.7585L11.4307 32.8318C14.7269 30.9842 18.0628 29.0633 21.1207 26.5852C23.2586 24.8549 25.3303 22.7434 26.4886 19.3928V19.4148C27.9646 15.6023 28.8383 11.8558 29.7649 11.064V11.0566Z" fill="url(#paint1_linear_3687_21381)"/>
<path d="M66.1286 24.2461H66.7309V29.9575H65.7447L64.2224 25.3898C64.1364 25.1332 64.0702 24.8766 64.0172 24.532H64.004C64.0106 24.818 64.0172 25.1112 64.0172 25.4045V29.9575H63.4149V24.2461H64.3945L65.9367 28.9237C66.0029 29.0997 66.0558 29.283 66.1286 29.5469H66.1419C66.1419 29.3416 66.1286 29.1217 66.1286 28.9091V24.2534V24.2461Z" fill="#222C33"/>
<path d="M70.6757 29.9556C70.6294 29.9556 70.5897 29.9703 70.5434 29.9849C70.0602 30.0069 69.8749 29.9629 69.8153 29.3837H69.8021C69.6631 29.7576 69.2924 30.0729 68.9085 30.0729C68.1076 30.0729 67.876 29.6037 67.876 28.8339C67.876 28.6726 67.8958 28.064 68.4584 27.8074C68.7828 27.6608 69.5969 27.3382 69.6697 27.2722C69.7954 27.1769 69.7822 27.0083 69.7822 26.7883C69.7822 26.3117 69.6101 26.1285 69.1402 26.1285C68.6173 26.1285 68.5445 26.3777 68.5577 26.8763H68.0414C68.015 26.0038 68.4253 25.6152 69.2395 25.6152C70.4375 25.6152 70.3316 26.6637 70.3316 26.7663V29.1931C70.3316 29.3031 70.3183 29.457 70.4308 29.5157C70.5103 29.5377 70.5963 29.5304 70.6757 29.5157V29.9556ZM69.7292 27.6681C69.4446 27.8441 69.1269 27.976 68.8225 28.1227C68.5577 28.2546 68.4651 28.5626 68.4651 28.8558C68.4651 29.2811 68.5643 29.5597 69.0343 29.5597C69.2527 29.5597 69.7292 29.3837 69.7292 28.6946V27.6681Z" fill="#222C33"/>
<path d="M72.4166 25.7194H73.0917V26.2327H72.4232V29.114C72.4232 29.2607 72.3703 29.4439 72.688 29.4439H73.0718V29.9572H72.4431C72.0989 29.9572 71.8474 29.9058 71.8474 29.2607V26.2327H71.2914V25.7194H71.8474V24.5684H72.41V25.7194H72.4166Z" fill="#222C33"/>
<path d="M74.1309 25.0086V24.2461H74.7067V25.0086H74.1309ZM74.1309 29.9575V25.7198H74.7067V29.9575H74.1309Z" fill="#222C33"/>
<path d="M77.3938 30.067C76.5201 30.067 75.9509 29.5172 75.9509 27.6916C75.9509 26.4159 76.401 25.6094 77.3938 25.6094C78.3867 25.6094 78.8367 26.4159 78.8367 27.6916C78.8367 29.5318 78.2808 30.067 77.3938 30.067ZM77.3938 26.1153C76.8048 26.1153 76.5466 26.5992 76.5466 27.8822C76.5466 28.8793 76.7253 29.5612 77.3938 29.5612C78.0623 29.5612 78.241 28.8793 78.241 27.8822C78.241 26.5992 77.9961 26.1153 77.3938 26.1153Z" fill="#222C33"/>
<path d="M80.6503 26.1886C80.9416 25.822 81.2394 25.6094 81.6763 25.6094C82.2786 25.6094 82.6691 25.9393 82.6691 26.6945V29.9571H82.0999V26.8558C82.0999 26.4159 81.9609 26.1226 81.4975 26.1226C81.2857 26.1226 81.0872 26.2032 80.9283 26.3572C80.6967 26.5772 80.6702 26.8191 80.6702 27.127V29.9571H80.0944V25.7194H80.6503V26.1812V26.1886Z" fill="#222C33"/>
<path d="M86.5808 29.9556C86.5344 29.9556 86.4947 29.9703 86.4484 29.9849C85.9586 30.0069 85.7799 29.9629 85.7203 29.3837H85.7071C85.5681 29.7576 85.1974 30.0729 84.8135 30.0729C84.0127 30.0729 83.781 29.6037 83.781 28.8339C83.781 28.6726 83.8009 28.064 84.3635 27.8074C84.6878 27.6608 85.5019 27.3382 85.5747 27.2722C85.7005 27.1769 85.6872 27.0083 85.6872 26.7883C85.6872 26.3117 85.5151 26.1285 85.0518 26.1285C84.5289 26.1285 84.4561 26.3777 84.4627 26.8763H83.9465C83.9134 26.0038 84.3304 25.6152 85.1445 25.6152C86.3425 25.6152 86.2366 26.6637 86.2366 26.7663V29.1931C86.2366 29.3031 86.2233 29.457 86.3425 29.5157C86.4219 29.5377 86.508 29.5304 86.5874 29.5157V29.9556H86.5808ZM85.6343 27.6681C85.3563 27.8441 85.032 27.976 84.7275 28.1227C84.4561 28.2546 84.3701 28.5626 84.3701 28.8558C84.3701 29.2811 84.476 29.5597 84.9393 29.5597C85.1577 29.5597 85.6343 29.3837 85.6343 28.6946V27.6681Z" fill="#222C33"/>
<path d="M87.6597 29.9575V24.2461H88.2289V29.9575H87.6597Z" fill="#222C33"/>
<path d="M91.995 29.9575V24.2461H92.5973V29.9575H91.995Z" fill="#222C33"/>
<path d="M94.7484 26.1886C95.0396 25.822 95.3375 25.6094 95.7677 25.6094C96.37 25.6094 96.7605 25.9393 96.7605 26.6945V29.9571H96.1847V26.8558C96.1847 26.4159 96.0457 26.1226 95.5824 26.1226C95.3706 26.1226 95.1654 26.2032 95.0131 26.3572C94.7815 26.5772 94.755 26.8191 94.755 27.127V29.9571H94.1858V25.7194H94.7418V26.1812L94.7484 26.1886Z" fill="#222C33"/>
<path d="M99.8516 26.8558C99.8714 26.3572 99.6994 26.1226 99.2096 26.1226C98.8058 26.1226 98.5742 26.3206 98.5742 26.7605C98.5742 27.3103 99.0044 27.3763 99.3949 27.5523C99.9773 27.8309 100.553 27.9848 100.553 28.7693C100.553 29.5538 100.017 30.0817 99.1897 30.0744C98.8323 30.0817 98.4021 29.9497 98.1903 29.6345C97.952 29.2972 97.9652 29.0186 97.9652 28.7253H98.508C98.4881 29.2386 98.6536 29.5612 99.1897 29.5612C99.653 29.5612 99.9575 29.3632 99.9575 28.8427C99.9575 28.2415 99.375 28.1901 98.9647 28.0068C98.3425 27.7649 97.9785 27.5449 97.9785 26.8044C97.9785 26.0639 98.4683 25.6094 99.1632 25.6094C99.9641 25.6094 100.427 25.9906 100.414 26.8558H99.8582H99.8516Z" fill="#222C33"/>
<path d="M102.42 25.7194H103.095V26.2327H102.426V29.114C102.426 29.2607 102.373 29.4439 102.698 29.4439H103.081V29.9572H102.453C102.115 29.9572 101.857 29.9058 101.857 29.2607V26.2327H101.301V25.7194H101.857V24.5684H102.42V25.7194Z" fill="#222C33"/>
<path d="M104.134 25.0086V24.2461H104.703V25.0086H104.134ZM104.134 29.9575V25.7198H104.703V29.9575H104.134Z" fill="#222C33"/>
<path d="M106.768 25.7194H107.443V26.2327H106.781V29.114C106.781 29.2607 106.729 29.4439 107.046 29.4439H107.43V29.9572H106.801C106.457 29.9572 106.206 29.9058 106.206 29.2607V26.2327H105.65V25.7194H106.206V24.5684H106.775V25.7194H106.768Z" fill="#222C33"/>
<path d="M110.468 29.3997H110.448C110.256 29.8323 109.886 30.0669 109.495 30.0669C108.893 30.0669 108.522 29.7297 108.522 28.9892V25.7266H109.091V29.0185C109.091 29.3778 109.197 29.5684 109.608 29.5684C109.886 29.5684 110.144 29.4364 110.296 29.1945C110.428 28.9818 110.468 28.6886 110.468 28.4466V25.7266H111.037V29.9643H110.468V29.4071V29.3997Z" fill="#222C33"/>
<path d="M113.135 25.7194H113.811V26.2327H113.142V29.114C113.142 29.2607 113.089 29.4439 113.407 29.4439H113.791V29.9572H113.162C112.824 29.9572 112.566 29.9058 112.566 29.2607V26.2327H112.004V25.7194H112.566V24.5684H113.135V25.7194Z" fill="#222C33"/>
<path d="M117.16 28.5416C117.2 29.3701 116.789 30.0592 115.942 30.0592C115.181 30.0592 114.638 29.524 114.638 27.8231C114.638 26.9286 114.863 25.6016 115.929 25.6016C117.233 25.6016 117.16 26.8993 117.193 27.8817H115.234C115.247 28.4536 115.154 29.5534 115.955 29.5534C116.511 29.5534 116.657 29.0181 116.624 28.5416H117.16ZM116.597 27.3978C116.571 26.8993 116.597 26.1221 115.935 26.1221C115.273 26.1221 115.254 26.8993 115.234 27.3978H116.597Z" fill="#222C33"/>
<path d="M120.76 26.232H120.171V25.7188H120.754V25.3596C120.754 25.1103 120.754 24.7584 120.893 24.5457C121.085 24.2598 121.422 24.1865 121.958 24.2378V24.7437C121.495 24.6997 121.33 24.7437 121.33 25.2642V25.7115H121.958V26.2247H121.33V29.9492H120.754V26.2247L120.76 26.232Z" fill="#222C33"/>
<path d="M124.275 30.067C123.401 30.067 122.832 29.5172 122.832 27.6916C122.832 26.4159 123.282 25.6094 124.275 25.6094C125.268 25.6094 125.718 26.4159 125.718 27.6916C125.718 29.5318 125.162 30.067 124.275 30.067ZM124.275 26.1153C123.686 26.1153 123.421 26.5992 123.421 27.8822C123.421 28.8793 123.607 29.5612 124.275 29.5612C124.944 29.5612 125.122 28.8793 125.122 27.8822C125.122 26.5992 124.877 26.1153 124.275 26.1153Z" fill="#222C33"/>
<path d="M127.584 26.4154H127.598C127.843 25.8581 128.18 25.6235 128.782 25.6749V26.2687C128.041 26.1294 127.611 26.6133 127.611 27.3831V29.9492H127.035V25.7115H127.584V26.408V26.4154Z" fill="#222C33"/>
<path d="M132.006 29.9575V24.2461H132.608V29.3856H134.825V29.9575H132.006Z" fill="#222C33"/>
<path d="M135.911 25.0086V24.2461H136.487V25.0086H135.911ZM135.911 29.9575V25.7198H136.487V29.9575H135.911Z" fill="#222C33"/>
<path d="M138.036 26.232H137.447V25.7188H138.029V25.3596C138.029 25.1103 138.029 24.7584 138.175 24.5457C138.367 24.2598 138.704 24.1865 139.24 24.2378V24.7437C138.777 24.6997 138.605 24.7437 138.605 25.2642V25.7115H139.24V26.2247H138.605V29.9492H138.036V26.2247V26.232Z" fill="#222C33"/>
<path d="M142.576 28.5416C142.616 29.3701 142.205 30.0592 141.358 30.0592C140.59 30.0592 140.054 29.524 140.054 27.8231C140.054 26.9286 140.279 25.6016 141.345 25.6016C142.649 25.6016 142.583 26.8993 142.609 27.8817H140.643C140.663 28.4536 140.564 29.5534 141.365 29.5534C141.921 29.5534 142.073 29.0181 142.033 28.5416H142.569H142.576ZM142.007 27.3978C141.987 26.8993 142.02 26.1221 141.345 26.1221C140.67 26.1221 140.663 26.8993 140.643 27.3978H142.007Z" fill="#222C33"/>
<path d="M143.84 29.9575V24.2461H144.41V29.9575H143.84Z" fill="#222C33"/>
<path d="M147.103 30.067C146.23 30.067 145.66 29.5172 145.66 27.6916C145.66 26.4159 146.11 25.6094 147.103 25.6094C148.096 25.6094 148.546 26.4159 148.546 27.6916C148.546 29.5318 147.99 30.067 147.103 30.067ZM147.103 26.1153C146.514 26.1153 146.256 26.5992 146.256 27.8822C146.256 28.8793 146.435 29.5612 147.103 29.5612C147.772 29.5612 147.951 28.8793 147.951 27.8822C147.951 26.5992 147.706 26.1153 147.103 26.1153Z" fill="#222C33"/>
<path d="M150.366 26.1886C150.651 25.822 150.956 25.6094 151.386 25.6094C151.988 25.6094 152.379 25.9393 152.379 26.6945V29.9571H151.803V26.8558C151.803 26.4159 151.664 26.1226 151.2 26.1226C150.989 26.1226 150.79 26.2032 150.631 26.3572C150.406 26.5772 150.373 26.8191 150.373 27.127V29.9571H149.797V25.7194H150.36V26.1812L150.366 26.1886Z" fill="#222C33"/>
<path d="M155.787 25.7179H156.363V29.4424C156.363 29.9629 156.323 30.3588 156.059 30.8061C155.807 31.224 155.39 31.3926 154.947 31.3926C154.298 31.3926 153.821 31.0847 153.742 30.3588H154.298C154.344 30.7401 154.583 30.8867 154.927 30.8867C155.853 30.8867 155.761 29.9263 155.767 29.4644H155.754C155.516 29.8969 155.258 30.0729 154.887 30.0729C154.126 30.0729 153.59 29.5157 153.59 27.8147C153.59 26.9203 153.802 25.6152 154.867 25.6152C155.231 25.6152 155.569 25.8059 155.767 26.2091H155.781V25.7325L155.787 25.7179ZM154.192 27.8367C154.192 28.8705 154.358 29.5597 154.927 29.5597C155.801 29.5597 155.787 28.4233 155.787 27.7488C155.787 26.9129 155.622 26.1211 154.98 26.1211C154.219 26.1211 154.192 27.2649 154.192 27.8367Z" fill="#222C33"/>
<path d="M159.964 29.9575V24.2461H162.684V24.818H160.566V26.7095H162.552V27.2814H160.566V29.3856H162.697V29.9575H159.964Z" fill="#222C33"/>
<path d="M165.921 24.2461H166.497V29.9575H165.947V29.4003H165.934C165.689 29.9062 165.438 30.0675 164.954 30.0675C163.684 30.0675 163.783 28.2052 163.77 27.8313C163.73 26.5922 164.12 25.6098 164.981 25.6098C165.391 25.6098 165.643 25.7931 165.907 26.1597H165.921V24.2461ZM165.921 27.7726C165.921 27.1934 165.907 26.123 165.14 26.123C164.657 26.123 164.352 26.5189 164.352 27.8166C164.352 28.7331 164.379 29.5616 165.166 29.5616C165.762 29.5616 165.927 28.7771 165.927 28.3005V27.7726H165.921Z" fill="#222C33"/>
<path d="M169.912 29.3997H169.899C169.7 29.8323 169.336 30.0669 168.946 30.0669C168.343 30.0669 167.973 29.7297 167.973 28.9892V25.7266H168.548V29.0185C168.548 29.3778 168.654 29.5684 169.065 29.5684C169.343 29.5684 169.594 29.4364 169.753 29.1945C169.885 28.9818 169.918 28.6886 169.918 28.4466V25.7266H170.494V29.9643H169.918V29.4071L169.912 29.3997Z" fill="#222C33"/>
<path d="M172.308 28.0215C172.308 28.5787 172.348 29.5612 173.082 29.5612C173.704 29.5612 173.764 28.9966 173.79 28.4761H174.333C174.313 29.2899 174.022 30.067 173.122 30.067C171.891 30.067 171.712 28.9893 171.712 27.8895C171.712 26.8558 171.871 25.6094 173.109 25.6094C173.923 25.6094 174.313 26.2766 174.307 27.0537H173.771C173.771 26.5918 173.645 26.1153 173.102 26.1153C172.268 26.1153 172.308 27.413 172.308 28.0142V28.0215Z" fill="#222C33"/>
<path d="M178 29.9556C177.96 29.9556 177.914 29.9703 177.874 29.9849C177.385 30.0069 177.206 29.9629 177.146 29.3837H177.133C176.994 29.7576 176.623 30.0729 176.239 30.0729C175.439 30.0729 175.207 29.6037 175.207 28.8339C175.207 28.6726 175.227 28.064 175.789 27.8074C176.114 27.6608 176.928 27.3382 176.994 27.2722C177.12 27.1769 177.107 27.0083 177.107 26.7883C177.107 26.3117 176.934 26.1285 176.471 26.1285C175.948 26.1285 175.875 26.3777 175.882 26.8763H175.366C175.333 26.0038 175.75 25.6152 176.564 25.6152C177.762 25.6152 177.656 26.6637 177.656 26.7663V29.1931C177.656 29.3031 177.643 29.457 177.762 29.5157C177.841 29.5377 177.927 29.5304 178.007 29.5157V29.9556H178ZM177.054 27.6681C176.776 27.8441 176.451 27.976 176.147 28.1227C175.875 28.2546 175.789 28.5626 175.789 28.8558C175.789 29.2811 175.895 29.5597 176.359 29.5597C176.577 29.5597 177.054 29.3837 177.054 28.6946V27.6681Z" fill="#222C33"/>
<path d="M179.747 25.7194H180.423V26.2327H179.754V29.114C179.754 29.2607 179.701 29.4439 180.025 29.4439H180.409V29.9572H179.774C179.43 29.9572 179.178 29.9058 179.178 29.2607V26.2327H178.622V25.7194H179.178V24.5684H179.747V25.7194Z" fill="#222C33"/>
<path d="M181.455 25.0086V24.2461H182.024V25.0086H181.455ZM181.455 29.9575V25.7198H182.024V29.9575H181.455Z" fill="#222C33"/>
<path d="M184.725 30.067C183.851 30.067 183.275 29.5172 183.275 27.6916C183.275 26.4159 183.725 25.6094 184.725 25.6094C185.724 25.6094 186.168 26.4159 186.168 27.6916C186.168 29.5318 185.612 30.067 184.725 30.067ZM184.725 26.1153C184.136 26.1153 183.871 26.5992 183.871 27.8822C183.871 28.8793 184.056 29.5612 184.725 29.5612C185.393 29.5612 185.572 28.8793 185.572 27.8822C185.572 26.5992 185.327 26.1153 184.725 26.1153Z" fill="#222C33"/>
<path d="M187.981 26.1886C188.272 25.822 188.57 25.6094 189 25.6094C189.603 25.6094 189.993 25.9393 189.993 26.6945V29.9571H189.424V26.8558C189.424 26.4159 189.285 26.1226 188.822 26.1226C188.61 26.1226 188.405 26.2032 188.259 26.3572C188.028 26.5772 187.994 26.8191 187.994 27.127V29.9571H187.419V25.7194H187.975V26.1812L187.981 26.1886Z" fill="#222C33"/>
<path d="M97.9387 11.3126C98.4021 11.2906 98.8521 11.2613 99.2824 11.2246C99.7126 11.188 100.103 11.1513 100.461 11.1147V12.8303C99.6729 12.9109 98.5808 12.9916 97.2041 13.0649C95.8207 13.1382 94.7154 13.1749 93.8748 13.1749H91.3861V11.4666H92.9481L92.9151 6.34906H91.6773V4.65544H99.1698V6.34906H97.9652L97.9321 11.32L97.9387 11.3126ZM94.6889 6.34173L94.722 11.4593C94.9404 11.4446 95.1721 11.4373 95.417 11.4299C95.6552 11.4299 95.9068 11.4153 96.1517 11.4079L96.2046 6.34906H94.6889V6.34173ZM101.705 20.0667C101.01 20.7999 100.149 21.1591 99.1301 21.1591C98.1108 21.1591 97.2636 20.7925 96.562 20.0667C95.8604 19.3335 95.5096 18.4464 95.5096 17.4126C95.5096 16.3788 95.8604 15.4844 96.562 14.7512C97.2702 14.018 98.1241 13.6514 99.1301 13.6514C100.136 13.6514 101.01 14.018 101.705 14.7512C102.406 15.4844 102.757 16.3715 102.757 17.4126C102.757 18.4537 102.406 19.3335 101.705 20.0667ZM100.328 18.835C100.686 18.4464 100.864 17.9698 100.864 17.4199C100.864 16.8701 100.692 16.3788 100.355 15.9903C100.01 15.6017 99.6001 15.4037 99.1235 15.4037C98.647 15.4037 98.23 15.6017 97.8792 15.9903C97.5284 16.3788 97.3497 16.8554 97.3497 17.4199C97.3497 17.9845 97.5218 18.4464 97.8527 18.835C98.1903 19.2235 98.6006 19.4215 99.0772 19.4215C99.5537 19.4215 99.9707 19.2235 100.328 18.835ZM101.195 4.01758H103.082V13.8347H101.195V10.6308H98.8985V9.02513H101.195V8.26997H98.9183V6.66432H101.195V4.01758Z" fill="#182A33"/>
<path d="M104.498 11.8923C104.994 11.4817 105.444 11.0345 105.835 10.5506C106.225 10.0594 106.523 9.56813 106.728 9.0769C106.901 8.659 107.04 8.16044 107.139 7.58857C107.245 7.0167 107.298 6.45949 107.298 5.90228V4.5899H109.217V5.90228C109.217 6.4155 109.263 6.94338 109.363 7.47859C109.462 8.01381 109.588 8.47571 109.74 8.85695C109.925 9.29686 110.19 9.73676 110.534 10.1693C110.878 10.6019 111.276 11.0051 111.719 11.3717L110.746 12.7574C110.508 12.5741 110.236 12.3395 109.932 12.0462C109.628 11.753 109.369 11.4744 109.164 11.2104C108.893 10.8585 108.688 10.5872 108.555 10.3819C108.416 10.1767 108.343 10.0447 108.317 9.98604C108.284 10.0813 108.185 10.2646 108.019 10.5286C107.854 10.7925 107.655 11.0785 107.423 11.3717C107.179 11.709 106.914 12.0243 106.642 12.3102C106.371 12.5961 106.047 12.8821 105.669 13.1607L104.498 11.8776V11.8923ZM115.551 20.0671C114.85 20.8003 113.996 21.1596 112.977 21.1596C111.957 21.1596 111.11 20.793 110.409 20.0671C109.707 19.334 109.35 18.4468 109.35 17.4131C109.35 16.3793 109.7 15.4848 110.409 14.7516C111.117 14.0185 111.971 13.6519 112.977 13.6519C113.983 13.6519 114.856 14.0185 115.551 14.7516C116.253 15.4848 116.604 16.372 116.604 17.4131C116.604 18.4542 116.253 19.334 115.551 20.0671ZM114.201 15.9907C113.857 15.6021 113.453 15.4042 112.977 15.4042C112.5 15.4042 112.083 15.6021 111.732 15.9907C111.381 16.3793 111.203 16.8558 111.203 17.4204C111.203 17.9849 111.368 18.4468 111.706 18.8354C112.043 19.224 112.447 19.4219 112.924 19.4219C113.4 19.4219 113.817 19.224 114.175 18.8354C114.532 18.4468 114.711 17.9703 114.711 17.4204C114.711 16.8705 114.539 16.3793 114.201 15.9907ZM115.154 4.05469H117.008V13.5272H115.154V9.53147H113.771V13.058H111.977V4.25264H113.771V7.71321H115.154V4.05469Z" fill="#182A33"/>
<path d="M121.985 9.96516H123.759V14.4302H125.334V9.96516H127.108V14.4302H132.151V16.1751H118.735V14.4302H121.985V9.96516ZM127.902 13.0958C128.035 12.0767 128.134 10.9916 128.207 9.84052C128.279 8.68944 128.313 7.61168 128.286 6.6219H121.098V4.87695H130.192C130.192 6.11601 130.153 7.5017 130.067 9.03403C129.987 10.5737 129.875 11.9301 129.736 13.1031H127.902V13.0958Z" fill="#182A33"/>
<path d="M133.33 13.3665V11.6729H146.925V13.3665H143.006V15.0821H144.383V20.5589H142.477V16.7978H135.666V15.0895H137.44V13.3739H133.33V13.3665ZM142.735 4.61247C143.463 5.3603 143.82 6.25477 143.82 7.29587C143.82 8.33697 143.456 9.23144 142.728 9.97927C142 10.7198 141.127 11.0937 140.094 11.0937C139.061 11.0937 138.188 10.7198 137.453 9.97927C136.732 9.23144 136.368 8.3443 136.368 7.29587C136.368 6.24744 136.732 5.35297 137.453 4.61247C138.175 3.86463 139.055 3.49805 140.094 3.49805C141.133 3.49805 142.013 3.87196 142.735 4.61247ZM138.77 8.79154C139.148 9.20211 139.584 9.4074 140.094 9.4074C140.604 9.4074 141.047 9.20211 141.418 8.79154C141.795 8.38096 141.98 7.88974 141.98 7.29587C141.98 6.702 141.795 6.22544 141.418 5.8222C141.047 5.41162 140.604 5.20633 140.094 5.20633C139.584 5.20633 139.141 5.41162 138.77 5.8222C138.393 6.22544 138.208 6.71667 138.208 7.29587C138.208 7.87507 138.393 8.38096 138.77 8.79154ZM139.346 15.0821H141.1V13.3665H139.346V15.0821Z" fill="#182A33"/>
<path d="M148.957 6.4517V4.73609H156.165V6.4517H153.563V7.08223C153.563 7.59545 153.649 8.10867 153.822 8.61456C153.994 9.12044 154.205 9.54568 154.457 9.89027C154.722 10.2495 155.079 10.6088 155.509 10.9607C155.94 11.32 156.383 11.6352 156.826 11.9065L155.847 13.3508C155.423 13.1309 155.059 12.9109 154.761 12.691C154.457 12.4637 154.166 12.2144 153.881 11.9432C153.61 11.6645 153.358 11.3933 153.133 11.122C152.908 10.8507 152.736 10.6234 152.63 10.4328C152.564 10.6014 152.451 10.8067 152.279 11.0487C152.114 11.2906 151.869 11.5912 151.551 11.9505C151.22 12.3391 150.896 12.6617 150.592 12.9329C150.294 13.2042 149.916 13.4828 149.473 13.7687L148.268 12.3831C148.712 12.0971 149.162 11.7305 149.612 11.3053C150.062 10.8727 150.433 10.4328 150.724 9.97092C150.949 9.59701 151.148 9.1571 151.313 8.63655C151.472 8.12333 151.558 7.61745 151.558 7.12622V6.45904H148.957V6.4517ZM153.822 15.0591V18.5344H160.487V20.2793H151.915V15.0518H153.822V15.0591ZM158.256 4.01758H160.142V15.8876H158.256V4.01758Z" fill="#182A33"/>
<path d="M162.115 11.9659H175.743V13.6082H162.115V11.9659ZM173.612 4.74417V6.36447H171.772C171.984 6.59176 172.142 6.8557 172.255 7.14896C172.367 7.44223 172.427 7.7575 172.427 8.09475C172.427 8.99655 172.076 9.76638 171.388 10.4042C170.693 11.0421 169.866 11.3574 168.899 11.3574C167.933 11.3574 167.105 11.0348 166.417 10.3896C165.729 9.75172 165.385 8.98189 165.385 8.09475C165.385 7.7575 165.444 7.44223 165.557 7.14896C165.669 6.84836 165.815 6.59176 166 6.36447H164.18V4.74417H167.886V3.28516H169.925V4.74417H173.618H173.612ZM171.593 15.3092C172.308 15.9837 172.665 16.7902 172.665 17.7433C172.665 18.6964 172.308 19.4809 171.593 20.1554C170.878 20.8299 170.005 21.1599 168.979 21.1599C167.953 21.1599 167.086 20.8226 166.371 20.1554C165.649 19.4809 165.292 18.6817 165.292 17.7433C165.292 16.8048 165.649 15.9837 166.371 15.3092C167.092 14.6346 167.966 14.3047 168.979 14.3047C169.991 14.3047 170.878 14.642 171.593 15.3092ZM170.21 19.041C170.567 18.6964 170.746 18.2638 170.746 17.7433C170.746 17.2227 170.58 16.8122 170.236 16.4529C169.892 16.101 169.475 15.925 168.972 15.925C168.469 15.925 168.045 16.101 167.688 16.4456C167.331 16.7902 167.152 17.2227 167.152 17.7433C167.152 18.2638 167.324 18.6964 167.668 19.041C168.012 19.3929 168.429 19.5689 168.926 19.5689C169.422 19.5689 169.852 19.3929 170.21 19.041ZM170.031 6.88502C169.713 6.56243 169.336 6.40113 168.886 6.40113C168.436 6.40113 168.078 6.56243 167.767 6.88502C167.45 7.20762 167.297 7.61086 167.297 8.09475C167.297 8.57865 167.456 8.98189 167.767 9.30448C168.078 9.62708 168.456 9.78838 168.886 9.78838C169.316 9.78838 169.707 9.62708 170.031 9.30448C170.342 8.98189 170.494 8.57865 170.494 8.09475C170.494 7.61086 170.335 7.21495 170.031 6.88502Z" fill="#182A33"/>
<path d="M180.595 13.1162L177.312 13.1309V11.4959H180.032C181.124 11.4959 182.382 11.4446 183.805 11.3566C185.221 11.2613 186.313 11.166 187.068 11.0633V12.669C186.644 12.7276 186.055 12.7936 185.301 12.8596C184.546 12.9256 183.765 12.9916 182.951 13.0502V15.2278H181.018V13.1236H180.595V13.1162ZM179.476 5.07334C180.178 4.3695 181.031 4.01758 182.024 4.01758C183.017 4.01758 183.871 4.3695 184.579 5.07334C185.281 5.77719 185.631 6.62766 185.631 7.62478C185.631 8.62189 185.267 9.42838 184.526 10.0956C183.791 10.7627 182.957 11.0927 182.024 11.0927C181.091 11.0927 180.244 10.7627 179.509 10.0956C178.781 9.42838 178.41 8.60722 178.41 7.62478C178.41 6.64233 178.768 5.77719 179.469 5.07334H179.476ZM183.163 6.28307C182.812 5.91649 182.441 5.7332 182.024 5.7332C181.607 5.7332 181.25 5.91649 180.892 6.28307C180.542 6.64966 180.363 7.09689 180.363 7.62478C180.363 8.15266 180.542 8.5779 180.892 8.94448C181.243 9.31107 181.627 9.49436 182.024 9.49436C182.421 9.49436 182.812 9.31107 183.163 8.94448C183.513 8.5779 183.686 8.138 183.686 7.62478C183.686 7.11156 183.513 6.64966 183.163 6.28307ZM182.938 15.9096V18.5417H189.583V20.2866H181.031V15.9096H182.938ZM184.546 15.0811V13.5121H187.604V4.03957H189.49V16.4155H187.604V15.0811H184.546Z" fill="#182A33"/>
<path d="M70.186 10.9396C70.4772 9.75187 70.7618 7.43506 70.7287 6.41595H63.9444V4.56836H72.7872C72.8203 6.18867 72.5158 9.33397 72.1584 10.9323H75.5075V12.7066H69.5042V15.1773H72.9063V21.2846H70.9141V16.9663H63.7856V15.1773H67.4061V12.7066H61.3499V10.9323H70.1794L70.186 10.9396Z" fill="#182A33"/>
<path d="M77.4468 15.0092L76.1561 13.6162C77.4997 12.993 78.8434 11.9959 79.8825 10.8448C80.9548 9.6571 81.6498 8.26408 81.7888 6.8124H77.1953V4.98681H84.0127C83.9266 7.34028 83.2647 9.3785 82.1726 11.0135C81.0342 12.7291 79.4192 14.0488 77.4468 15.0092ZM88.0104 8.92393H90.1682V10.7129H88.0104V18.6604H86.0513V4.04102H88.0104V8.9166V8.92393Z" fill="#182A33"/>
</g>
<defs>
<linearGradient id="paint0_linear_3687_21381" x1="25.9457" y1="11.0634" x2="47.4437" y2="11.0634" gradientUnits="userSpaceOnUse">
<stop stop-color="#00853F"/>
<stop offset="0.05" stop-color="#118D3F"/>
<stop offset="0.16" stop-color="#319D40"/>
<stop offset="0.27" stop-color="#4CAA41"/>
<stop offset="0.4" stop-color="#60B442"/>
<stop offset="0.55" stop-color="#6EBB42"/>
<stop offset="0.72" stop-color="#77BF42"/>
<stop offset="1" stop-color="#7AC143"/>
</linearGradient>
<linearGradient id="paint1_linear_3687_21381" x1="8.27356" y1="21.9369" x2="29.7649" y2="21.9369" gradientUnits="userSpaceOnUse">
<stop stop-color="#FDB913"/>
<stop offset="0.27" stop-color="#FAB612"/>
<stop offset="0.45" stop-color="#F3AD12"/>
<stop offset="0.61" stop-color="#E79E12"/>
<stop offset="0.75" stop-color="#D68811"/>
<stop offset="0.88" stop-color="#C16C10"/>
<stop offset="1" stop-color="#A84D10"/>
</linearGradient>
<clipPath id="clip0_3687_21381">
<rect width="190" height="33" fill="white"/>
</clipPath>
</defs>
</svg>
