<svg width="190" height="50" viewBox="0 0 190 50" fill="none" xmlns="http://www.w3.org/2000/svg">
<path d="M143.77 24.7242H171.765C172.979 24.7242 173.205 23.739 173.205 22.5229V22.405C173.205 21.1888 172.979 20.2036 171.765 20.2036H160.561V18.0117C160.561 16.7955 159.578 15.8103 158.365 15.8103H158.247C157.034 15.8103 156.051 16.7955 156.051 18.0117V20.2036H152.528V18.0117C152.528 16.7955 151.545 15.8103 150.331 15.8103H150.214C149 15.8103 148.017 16.7955 148.017 18.0117V20.1989H143.775C142.561 20.1989 141.578 21.1841 141.578 22.4003V22.5181C141.578 23.7343 142.561 24.7195 143.775 24.7195L143.77 24.7242Z" fill="#00ADB2"/>
<path d="M154.47 0C150.101 0 146.545 3.56368 146.545 7.94287C146.545 12.3221 150.101 15.8857 154.47 15.8857C158.84 15.8857 162.396 12.3221 162.396 7.94287C162.396 3.56368 158.84 0 154.47 0ZM154.47 11.4217C152.556 11.4217 150.999 9.86141 150.999 7.94287C150.999 6.02432 152.556 4.46403 154.47 4.46403C156.385 4.46403 157.942 6.02432 157.942 7.94287C157.942 9.86141 156.385 11.4217 154.47 11.4217Z" fill="#00ADB2"/>
<path d="M154.47 25.6199C150.101 25.6199 146.545 29.1836 146.545 33.5627C146.545 37.9419 150.101 41.5056 154.47 41.5056C158.84 41.5056 162.396 37.9419 162.396 33.5627C162.396 29.1836 158.84 25.6199 154.47 25.6199ZM154.47 37.0416C152.556 37.0416 150.999 35.4813 150.999 33.5627C150.999 31.6442 152.556 30.0839 154.47 30.0839C156.385 30.0839 157.942 31.6442 157.942 33.5627C157.942 35.4813 156.385 37.0416 154.47 37.0416Z" fill="#00ADB2"/>
<path d="M140.492 11.549C140.492 10.3375 139.508 9.3476 138.295 9.3476H138.177C136.969 9.3476 135.981 10.3328 135.981 11.549V36.0658C135.981 37.2773 136.964 38.2672 138.177 38.2672H138.295C139.504 38.2672 140.492 37.282 140.492 36.0658V11.549Z" fill="#00ADB2"/>
<path d="M125.285 14.0002C120.915 14.0002 117.36 17.5639 117.36 21.9431C117.36 26.3222 120.915 29.8859 125.285 29.8859C129.655 29.8859 133.21 26.3222 133.21 21.9431C133.21 17.5639 129.655 14.0002 125.285 14.0002ZM125.285 25.4219C123.371 25.4219 121.814 23.8616 121.814 21.9431C121.814 20.0245 123.371 18.4642 125.285 18.4642C127.199 18.4642 128.756 20.0245 128.756 21.9431C128.756 23.8616 127.199 25.4219 125.285 25.4219Z" fill="#00ADB2"/>
<path d="M168.449 8.48025C167.236 8.48025 166.253 9.46545 166.253 10.6816V10.7995C166.253 12.0156 167.236 13.0008 168.449 13.0008H177.076V16.8474C177.076 18.0635 178.059 19.0487 179.272 19.0487H179.46C180.674 19.0487 181.657 18.0635 181.657 16.8474V12.0015C181.657 10.1961 180.185 8.48025 178.383 8.48025H168.449Z" fill="#00ADB2"/>
<path d="M180.937 24.7337C182.146 24.7337 183.134 23.7485 183.134 22.5323V22.4144C183.134 21.203 182.146 20.2131 180.937 20.2131H167.866C166.657 20.2131 165.67 21.1983 165.67 22.4144V22.5323C165.67 23.7438 166.653 24.7337 167.866 24.7337H173.421V28.2926C173.421 29.5041 174.404 30.494 175.617 30.494H175.735C176.944 30.494 177.932 29.5088 177.932 28.2926V24.7337H180.937Z" fill="#00ADB2"/>
<path d="M171.304 29.8294C171.304 28.6179 170.317 27.628 169.108 27.628H168.99C167.781 27.628 166.794 28.6132 166.794 29.8294V37.5271C166.794 38.7386 167.777 39.7285 168.99 39.7285H187.009C188.218 39.7285 189.206 38.7433 189.206 37.5271V37.4093C189.206 36.1978 188.218 35.2079 187.009 35.2079H171.309V29.8341L171.304 29.8294Z" fill="#00ADB2"/>
<path d="M186.864 6.99067H186.746C185.537 6.99067 184.549 7.97586 184.549 9.19204V25.3795H181.76C180.551 25.3795 179.564 26.3647 179.564 27.5808V27.6987C179.564 28.9102 180.551 29.9001 181.76 29.9001H184.549V32.0732C184.549 33.2846 185.533 34.2745 186.746 34.2745H186.864C188.072 34.2745 189.06 33.2846 189.06 32.0732V9.19204C189.06 7.98058 188.072 6.99067 186.864 6.99067Z" fill="#00ADB2"/>
<path d="M102.238 6.13274C97.8681 6.13274 94.3123 9.69643 94.3123 14.0756C94.3123 18.4548 97.8681 22.0185 102.238 22.0185C106.607 22.0185 110.163 18.4548 110.163 14.0756C110.163 9.69643 106.607 6.13274 102.238 6.13274ZM102.238 17.5544C100.323 17.5544 98.7665 15.9942 98.7665 14.0756C98.7665 12.1571 100.323 10.5968 102.238 10.5968C104.152 10.5968 105.709 12.1571 105.709 14.0756C105.709 15.9942 104.152 17.5544 102.238 17.5544Z" fill="#00ADB2"/>
<path d="M82.6569 22.2825C82.6569 23.5693 83.6964 24.6111 84.9805 24.6111H85.1075C86.3915 24.6111 87.431 23.5693 87.431 22.2825V13.3073C87.431 11.1954 85.7048 9.47016 83.6023 9.47016H67.8408C66.5567 9.47016 65.5173 10.5119 65.5173 11.7988V11.9261C65.5173 13.213 66.5567 14.2547 67.8408 14.2547H82.6569V22.2825Z" fill="#00ADB2"/>
<path d="M60.3763 6.27416H60.2493C58.9652 6.27416 57.9258 7.31592 57.9258 8.60281V13.7079H55.2306V8.60281C55.2306 7.31592 54.1864 6.27416 52.9071 6.27416H52.7801C51.5007 6.27416 50.4565 7.31592 50.4565 8.60281V24.6441C50.4565 25.9263 51.5007 26.9728 52.7801 26.9728H52.9071C54.1864 26.9728 55.2306 25.9263 55.2306 24.6441V18.4925H57.9258V34.6799C57.9258 35.9621 58.9652 37.0086 60.2493 37.0086H60.3763C61.6604 37.0086 62.7045 35.9621 62.7045 34.6799V8.60281C62.7045 7.31592 61.6604 6.27416 60.3763 6.27416Z" fill="#00ADB2"/>
<path d="M25.6031 20.7882H27.4657C27.4657 20.7882 27.4892 20.7882 27.4986 20.7882H27.6068V23.9936C27.6068 25.2758 28.651 26.3222 29.9303 26.3222H30.0573C31.3367 26.3222 32.3809 25.2758 32.3809 23.9936V8.60281C32.3809 7.31592 31.3367 6.27416 30.0573 6.27416H29.9303C28.651 6.27416 27.6068 7.31592 27.6068 8.60281V9.27218H25.6031C24.319 9.27218 23.2795 10.3092 23.2795 11.5961V11.7234C23.2795 13.0056 24.3237 14.052 25.6031 14.052H27.4657C27.4657 14.052 27.4892 14.052 27.4986 14.052H27.6068V16.0083H25.6031C24.319 16.0083 23.2795 17.0501 23.2795 18.3369V18.4642C23.2795 19.7464 24.3237 20.7882 25.6031 20.7882Z" fill="#00ADB2"/>
<path d="M3.29425 14.0473H5.0957V24.0643H3.29895C2.01489 24.0643 0.970703 25.1108 0.970703 26.3977V26.5249C0.970703 27.8071 2.01489 28.8536 3.29425 28.8536H20.0341C21.3182 28.8536 22.3577 27.8071 22.3577 26.5249V26.3977C22.3577 25.1155 21.3182 24.069 20.0341 24.069H18.0304V14.052H20.0341C21.3182 14.052 22.3577 13.0056 22.3577 11.7234V11.5961C22.3577 10.3139 21.3135 9.26746 20.0341 9.26746H3.29425C2.01018 9.26746 0.970703 10.3092 0.970703 11.5961V11.7234C0.970703 13.0056 2.01018 14.052 3.29425 14.052V14.0473ZM9.2254 14.0473H13.9101V24.0643H9.2254V14.0473Z" fill="#00ADB2"/>
<path d="M91.1233 36.7116H107.266V39.8605C107.266 41.1474 108.305 42.1891 109.589 42.1891H109.787C111.071 42.1891 112.11 41.1474 112.11 39.8605V35.0712C112.063 32.9452 110.507 32.125 110.507 32.125L110.445 32.0967V29.4193H113.371C114.655 29.4193 115.695 28.3775 115.695 27.0906V26.968C115.695 25.6859 114.65 24.6394 113.371 24.6394H90.9304C89.6464 24.6394 88.6069 25.6812 88.6069 26.968V27.0953C88.6069 28.3822 89.6464 29.424 90.9304 29.424H94.8014V31.9317H81.4951V25.8744C81.4951 24.5875 80.4557 23.5458 79.1716 23.5458H79.0446C77.7605 23.5458 76.7211 24.5875 76.7211 25.8744V31.9317H74.0871V25.8697C74.0871 24.5828 73.0476 23.5411 71.7635 23.5411H71.6365C70.3572 23.5411 69.313 24.5923 69.313 25.8697V31.927H66.0629C64.7835 31.927 63.7393 32.9735 63.7393 34.2557V34.3782C63.7393 35.6604 64.7835 36.7069 66.0629 36.7069H91.1233V36.7116ZM105.596 31.927H99.5708V29.4193H105.596V31.927Z" fill="#00ADB2"/>
<path d="M45.8659 28.863C43.3213 28.863 40.8708 29.7964 38.947 31.4934C40.0853 32.8227 40.9272 34.3782 41.407 36.0375C42.4558 34.6234 44.0927 33.7984 45.8706 33.7984C48.9467 33.7984 51.4537 36.3062 51.4537 39.3891C51.4537 42.472 48.9467 44.9844 45.8706 44.9844C42.7945 44.9844 40.438 42.6511 40.2969 39.6625L40.2687 39.4127C40.2687 36.6268 39.1963 34.0106 37.2584 32.026C36.5106 31.2624 35.6639 30.626 34.7609 30.131C34.5116 29.9991 34.2388 29.8624 33.9189 29.7257L33.8625 29.6974C33.585 29.5795 33.2934 29.4711 32.9547 29.3627L32.8136 29.3155C32.5831 29.2496 32.3291 29.1836 32.0187 29.1128L31.9387 29.094C31.9387 29.094 31.8964 29.0799 31.8823 29.0751C31.6142 29.0186 31.3555 28.9856 31.0404 28.9479L30.9275 28.929C30.8946 28.9196 30.8616 28.9149 30.8287 28.9149C30.4759 28.8772 30.1185 28.863 29.7563 28.863C23.9663 28.863 19.2533 33.5863 19.2533 39.3891C19.2533 45.1919 23.9663 49.9199 29.7563 49.9199C32.3056 49.9199 34.7515 48.9865 36.6752 47.2848C35.5369 45.9555 34.695 44.3999 34.2153 42.7406C33.1664 44.1501 31.5295 44.9844 29.7563 44.9844C26.6802 44.9844 24.1779 42.472 24.1779 39.3891C24.1779 36.3062 26.6802 33.7984 29.7563 33.7984C32.8324 33.7984 35.1983 36.1318 35.3347 39.1298L35.3629 39.3702C35.3629 42.1656 36.4353 44.7817 38.3873 46.7663C39.1304 47.5205 39.963 48.1522 40.8708 48.6471C41.1577 48.8027 41.4587 48.9488 41.7691 49.0808C42.0702 49.2128 42.3759 49.3259 42.7004 49.4249C42.9826 49.5145 43.2601 49.5852 43.6223 49.67L43.754 49.703C44.0362 49.7643 44.3231 49.802 44.5912 49.835L44.7982 49.868C45.151 49.901 45.5131 49.9199 45.8659 49.9199C51.6606 49.9199 56.3689 45.1919 56.3689 39.3891C56.3689 33.5863 51.6559 28.863 45.8659 28.863Z" fill="#1D2088"/>
<path d="M35.0196 25.8084L35.123 25.8556C35.3864 25.964 35.6686 26.0253 35.9509 26.0253C36.8116 26.0253 37.583 25.5162 37.9169 24.729L41.4258 16.4703L44.9346 24.729C45.2686 25.5162 46.0399 26.0253 46.9007 26.0253C47.1829 26.0253 47.4651 25.9687 47.7285 25.8556L47.8367 25.8084C48.9185 25.3512 49.4218 24.0926 48.9608 23.0131L43.5188 10.2008C43.4483 9.98397 43.3448 9.78599 43.2225 9.61158C43.2084 9.59272 43.199 9.57858 43.1896 9.56444L43.1473 9.51259C43.1002 9.45131 43.0532 9.39003 42.9967 9.33817C42.5922 8.91864 42.0325 8.67823 41.4587 8.67823H41.4022C40.8284 8.67823 40.264 8.91864 39.8642 9.33817C39.8078 9.39474 39.756 9.46073 39.709 9.52201C39.6902 9.54558 39.6808 9.55972 39.6666 9.57387C39.6525 9.58801 39.6431 9.59743 39.6384 9.61158C39.5114 9.78599 39.4127 9.98397 39.3421 10.1961L33.9001 23.0131C33.6791 23.5363 33.6744 24.1161 33.886 24.6488C34.1024 25.1768 34.5069 25.5916 35.0243 25.8131L35.0196 25.8084Z" fill="#00ADB2"/>
<path d="M59.1063 49.8774C58.7395 49.8774 58.4996 49.6323 58.4996 49.2693V45.2249C58.4996 44.909 58.7442 44.7063 59.0452 44.7063C59.3462 44.7063 59.5908 44.909 59.5908 45.2249V48.9017H61.5616C61.8203 48.9017 61.999 49.1374 61.999 49.3872C61.999 49.637 61.825 49.8727 61.5616 49.8727H59.1063V49.8774Z" fill="#595857"/>
<path d="M64.7788 45.7481V48.9158H65.0751C65.3385 48.9158 65.489 49.1468 65.489 49.3966C65.489 49.6465 65.3385 49.8774 65.0751 49.8774H63.3866C63.1232 49.8774 62.9726 49.6465 62.9726 49.3966C62.9726 49.1468 63.1232 48.9158 63.3866 48.9158H63.6829V45.7481H63.3866C63.1232 45.7481 62.9726 45.5171 62.9726 45.2673C62.9726 45.0174 63.1232 44.7865 63.3866 44.7865H65.0751C65.3385 44.7865 65.489 45.0174 65.489 45.2673C65.489 45.5171 65.3385 45.7481 65.0751 45.7481H64.7788Z" fill="#595857"/>
<path d="M67.9255 49.4343C67.9255 49.7502 67.6809 49.9529 67.3799 49.9529C67.0788 49.9529 66.8342 49.7502 66.8342 49.4343V45.3898C66.8342 45.0269 67.0788 44.7817 67.441 44.7817H70.1549C70.4183 44.7817 70.5924 45.0174 70.5924 45.2673C70.5924 45.5171 70.4183 45.7528 70.1549 45.7528H67.9255V46.837H69.9809C70.2443 46.837 70.4183 47.068 70.4183 47.3178C70.4183 47.5676 70.2443 47.7986 69.9809 47.7986H67.9255V49.4343Z" fill="#595857"/>
<path d="M72.8265 46.8417H74.9619C75.2206 46.8417 75.3994 47.0727 75.3994 47.3225C75.3994 47.5724 75.2253 47.8033 74.9619 47.8033H72.8265V48.9017H75.1736C75.437 48.9017 75.611 49.1374 75.611 49.3872C75.611 49.637 75.437 49.8727 75.1736 49.8727H72.3562C71.9893 49.8727 71.7494 49.6276 71.7494 49.2646V45.3898C71.7494 45.0269 71.994 44.7817 72.3562 44.7817H75.0419C75.3053 44.7817 75.4793 45.0174 75.4793 45.2673C75.4793 45.5171 75.3053 45.7528 75.0419 45.7528H72.8312V46.837L72.8265 46.8417Z" fill="#595857"/>
<path d="M77.5583 49.8774C77.1914 49.8774 76.9515 49.6323 76.9515 49.2693V45.2249C76.9515 44.909 77.1961 44.7063 77.4971 44.7063C77.7982 44.7063 78.0428 44.909 78.0428 45.2249V48.9017H80.0135C80.2722 48.9017 80.451 49.1374 80.451 49.3872C80.451 49.637 80.2769 49.8727 80.0135 49.8727H77.5583V49.8774Z" fill="#595857"/>
<path d="M85.9588 47.3225C85.9588 49.0902 84.7782 49.9953 83.5035 49.9953C82.2289 49.9953 81.0295 49.0855 81.0295 47.3225C81.0295 45.5595 82.2148 44.6639 83.5035 44.6639C84.7923 44.6639 85.9588 45.5595 85.9588 47.3225ZM82.1113 47.3225C82.1113 48.3831 82.7416 49.0337 83.5035 49.0337C84.2655 49.0337 84.877 48.3831 84.877 47.3225C84.877 46.2619 84.2467 45.6255 83.5035 45.6255C82.7604 45.6255 82.1113 46.2666 82.1113 47.3225Z" fill="#595857"/>
<path d="M90.4977 47.8835V45.2201C90.4977 44.9043 90.7329 44.7016 91.0386 44.7016C91.3443 44.7016 91.5795 44.9043 91.5795 45.2201V49.4485C91.5795 49.7596 91.3255 49.9529 91.0433 49.9529C90.8316 49.9529 90.6905 49.8727 90.5918 49.7454L88.3106 46.7663V49.4343C88.3106 49.7502 88.0754 49.9529 87.7696 49.9529C87.4639 49.9529 87.2287 49.7502 87.2287 49.4343V45.2201C87.2287 44.8996 87.4921 44.7016 87.7555 44.7016C88.0001 44.7016 88.113 44.7865 88.2165 44.9184L90.4883 47.8788L90.4977 47.8835Z" fill="#595857"/>
<path d="M96.6123 48.006H95.5446C95.2812 48.006 95.1072 47.7798 95.1072 47.5394C95.1072 47.299 95.2812 47.068 95.5446 47.068H97.1626C97.5248 47.068 97.7082 47.3037 97.7082 47.6101C97.7082 48.798 96.9227 49.9906 95.3611 49.9953C93.983 50 92.8589 49.0714 92.8589 47.3225C92.8589 45.5737 93.9783 44.6639 95.3517 44.6639C96.2313 44.6639 97.0168 45.0882 97.3272 45.6255C97.4542 45.8424 97.4119 46.1488 97.1814 46.2949C96.9698 46.4316 96.6546 46.3986 96.49 46.1865C96.2642 45.8942 95.9209 45.6397 95.3517 45.6397C94.6039 45.6397 93.9407 46.2006 93.9407 47.3272C93.9407 48.4539 94.6039 49.0384 95.3611 49.0384C96.0479 49.0384 96.5464 48.5764 96.6123 48.0107V48.006Z" fill="#595857"/>
<path d="M102.496 46.8417H104.632C104.891 46.8417 105.069 47.0727 105.069 47.3225C105.069 47.5724 104.895 47.8033 104.632 47.8033H102.496V48.9017H104.843C105.107 48.9017 105.281 49.1374 105.281 49.3872C105.281 49.637 105.107 49.8727 104.843 49.8727H102.026C101.659 49.8727 101.419 49.6276 101.419 49.2646V45.3898C101.419 45.0269 101.664 44.7817 102.026 44.7817H104.712C104.975 44.7817 105.149 45.0174 105.149 45.2673C105.149 45.5171 104.975 45.7528 104.712 45.7528H102.501V46.837L102.496 46.8417Z" fill="#595857"/>
<path d="M107.101 49.8774C106.734 49.8774 106.494 49.6323 106.494 49.2693V45.3946C106.494 45.0316 106.739 44.7865 107.101 44.7865H108.333C109.9 44.7865 110.728 45.8471 110.728 47.3272C110.728 48.8074 109.9 49.8774 108.329 49.8774H107.101ZM107.576 45.7481V48.9158H108.244C109.26 48.9158 109.646 48.2889 109.646 47.3272C109.646 46.3656 109.265 45.7528 108.244 45.7528H107.576V45.7481Z" fill="#595857"/>
<path d="M116.381 47.9589C116.381 49.3778 115.422 50 114.208 50C112.995 50 112.04 49.3778 112.04 47.9589V45.2249C112.04 44.909 112.284 44.7063 112.585 44.7063C112.887 44.7063 113.131 44.909 113.131 45.2249V47.8976C113.131 48.666 113.597 49.0242 114.208 49.0242C114.82 49.0242 115.29 48.666 115.29 47.8976V45.2249C115.29 44.909 115.535 44.7063 115.836 44.7063C116.137 44.7063 116.381 44.909 116.381 45.2249V47.9589Z" fill="#595857"/>
<path d="M117.632 47.3225C117.632 45.5972 118.752 44.6639 120.125 44.6639C120.92 44.6639 121.701 45.0457 122.054 45.6821C122.176 45.8989 122.134 46.2242 121.903 46.3703C121.692 46.5023 121.362 46.4976 121.212 46.2619C120.981 45.9084 120.633 45.6397 120.13 45.6397C119.382 45.6397 118.719 46.2006 118.719 47.3272C118.719 48.4539 119.391 49.0242 120.139 49.0242C120.614 49.0242 121.038 48.7697 121.268 48.3831C121.395 48.171 121.734 48.138 121.955 48.2794C122.162 48.4161 122.228 48.7178 122.096 48.9677C121.757 49.6087 120.967 49.9953 120.139 49.9953C118.766 49.9953 117.637 49.0714 117.637 47.3225H117.632Z" fill="#595857"/>
<path d="M126.461 48.9064H124.448L124.18 49.5946C124.062 49.8869 123.756 50.0189 123.446 49.9104C123.159 49.8114 123.013 49.5098 123.117 49.2693L124.866 45.0929C124.97 44.843 125.191 44.7016 125.45 44.7016C125.737 44.7016 125.944 44.843 126.047 45.0929L127.783 49.2693C127.881 49.5145 127.74 49.8067 127.463 49.9104C127.157 50.0189 126.847 49.8822 126.734 49.5946L126.461 48.9064ZM124.824 47.9589H126.075L125.45 46.375L124.824 47.9589Z" fill="#595857"/>
<path d="M128.427 45.7481C128.164 45.7481 127.99 45.5171 127.99 45.2673C127.99 45.0174 128.168 44.7865 128.427 44.7865H131.889C132.152 44.7865 132.326 45.0174 132.326 45.2673C132.326 45.5171 132.147 45.7481 131.889 45.7481H130.708V49.439C130.708 49.7549 130.459 49.9576 130.158 49.9576C129.857 49.9576 129.603 49.7549 129.603 49.439V45.7481H128.422H128.427Z" fill="#595857"/>
<path d="M135.233 45.7481V48.9158H135.529C135.793 48.9158 135.943 49.1468 135.943 49.3966C135.943 49.6465 135.793 49.8774 135.529 49.8774H133.841C133.577 49.8774 133.427 49.6465 133.427 49.3966C133.427 49.1468 133.577 48.9158 133.841 48.9158H134.137V45.7481H133.841C133.577 45.7481 133.427 45.5171 133.427 45.2673C133.427 45.0174 133.577 44.7865 133.841 44.7865H135.529C135.793 44.7865 135.943 45.0174 135.943 45.2673C135.943 45.5171 135.793 45.7481 135.529 45.7481H135.233Z" fill="#595857"/>
<path d="M141.94 47.3225C141.94 49.0902 140.76 49.9953 139.485 49.9953C138.21 49.9953 137.011 49.0855 137.011 47.3225C137.011 45.5595 138.196 44.6639 139.485 44.6639C140.774 44.6639 141.94 45.5595 141.94 47.3225ZM138.093 47.3225C138.093 48.3831 138.723 49.0337 139.485 49.0337C140.247 49.0337 140.858 48.3831 140.858 47.3225C140.858 46.2619 140.228 45.6255 139.485 45.6255C138.742 45.6255 138.093 46.2666 138.093 47.3225Z" fill="#595857"/>
<path d="M146.484 47.8835V45.2201C146.484 44.9043 146.719 44.7016 147.025 44.7016C147.33 44.7016 147.566 44.9043 147.566 45.2201V49.4485C147.566 49.7596 147.312 49.9529 147.029 49.9529C146.818 49.9529 146.677 49.8727 146.578 49.7454L144.297 46.7663V49.4343C144.297 49.7502 144.062 49.9529 143.756 49.9529C143.45 49.9529 143.215 49.7502 143.215 49.4343V45.2201C143.215 44.8996 143.478 44.7016 143.742 44.7016C143.986 44.7016 144.099 44.7865 144.203 44.9184L146.474 47.8788L146.484 47.8835Z" fill="#595857"/>
<path d="M153.516 48.2983L154.786 45.0787C154.898 44.7865 155.209 44.6545 155.519 44.7629C155.806 44.8619 155.952 45.1636 155.849 45.404L154.099 49.5805C153.995 49.8303 153.774 49.9717 153.516 49.9717C153.229 49.9717 153.022 49.8303 152.918 49.5805L151.183 45.404C151.084 45.1589 151.225 44.8666 151.507 44.7629C151.813 44.6545 152.119 44.7912 152.236 45.0787L153.52 48.2983H153.516Z" fill="#595857"/>
<path d="M161.526 47.3225C161.526 49.0902 160.345 49.9953 159.07 49.9953C157.796 49.9953 156.596 49.0855 156.596 47.3225C156.596 45.5595 157.782 44.6639 159.07 44.6639C160.359 44.6639 161.526 45.5595 161.526 47.3225ZM157.678 47.3225C157.678 48.3831 158.309 49.0337 159.07 49.0337C159.832 49.0337 160.444 48.3831 160.444 47.3225C160.444 46.2619 159.814 45.6255 159.07 45.6255C158.327 45.6255 157.678 46.2666 157.678 47.3225Z" fill="#595857"/>
<path d="M167.118 47.9589C167.118 49.3778 166.159 50 164.945 50C163.732 50 162.777 49.3778 162.777 47.9589V45.2249C162.777 44.909 163.021 44.7063 163.322 44.7063C163.623 44.7063 163.868 44.909 163.868 45.2249V47.8976C163.868 48.666 164.334 49.0242 164.945 49.0242C165.557 49.0242 166.027 48.666 166.027 47.8976V45.2249C166.027 44.909 166.272 44.7063 166.573 44.7063C166.874 44.7063 167.118 44.909 167.118 45.2249V47.9589Z" fill="#595857"/>
<path d="M168.365 47.3225C168.365 45.5972 169.484 44.6639 170.858 44.6639C171.652 44.6639 172.433 45.0457 172.786 45.6821C172.908 45.8989 172.866 46.2242 172.635 46.3703C172.424 46.5023 172.095 46.4976 171.944 46.2619C171.714 45.9084 171.366 45.6397 170.862 45.6397C170.114 45.6397 169.451 46.2006 169.451 47.3272C169.451 48.4539 170.124 49.0242 170.872 49.0242C171.347 49.0242 171.77 48.7697 172 48.3831C172.127 48.171 172.466 48.138 172.687 48.2794C172.894 48.4161 172.96 48.7178 172.828 48.9677C172.49 49.6087 171.699 49.9953 170.872 49.9953C169.498 49.9953 168.369 49.0714 168.369 47.3225H168.365Z" fill="#595857"/>
<path d="M175.265 49.4343C175.265 49.7502 175.02 49.9529 174.719 49.9529C174.418 49.9529 174.174 49.7502 174.174 49.4343V45.2201C174.174 44.9043 174.418 44.7016 174.719 44.7016C175.02 44.7016 175.265 44.9043 175.265 45.2201V46.8181H177.424V45.2201C177.424 44.9043 177.668 44.7016 177.969 44.7016C178.27 44.7016 178.515 44.9043 178.515 45.2201V49.4343C178.515 49.7502 178.27 49.9529 177.969 49.9529C177.668 49.9529 177.424 49.7502 177.424 49.4343V47.7892H175.265V49.4343Z" fill="#595857"/>
<path d="M181.055 46.8417H183.19C183.449 46.8417 183.628 47.0727 183.628 47.3225C183.628 47.5724 183.454 47.8033 183.19 47.8033H181.055V48.9017H183.402C183.665 48.9017 183.839 49.1374 183.839 49.3872C183.839 49.637 183.665 49.8727 183.402 49.8727H180.584C180.218 49.8727 179.978 49.6276 179.978 49.2646V45.3898C179.978 45.0269 180.222 44.7817 180.584 44.7817H183.27C183.534 44.7817 183.708 45.0174 183.708 45.2673C183.708 45.5171 183.534 45.7528 183.27 45.7528H181.059V46.837L181.055 46.8417Z" fill="#595857"/>
<path d="M186.172 49.4343C186.172 49.7502 185.937 49.9529 185.631 49.9529C185.326 49.9529 185.09 49.7502 185.09 49.4343V45.3898C185.09 45.0269 185.335 44.7817 185.697 44.7817H187.409C188.623 44.7817 189.121 45.569 189.121 46.4175C189.121 47.0067 188.877 47.5676 188.326 47.8552L189.103 49.1656C189.248 49.4108 189.197 49.7125 188.933 49.8727C188.679 50.0236 188.388 49.9623 188.228 49.6889L187.263 48.0579H186.168V49.4343H186.172ZM186.172 47.0963H187.32C187.865 47.0963 188.044 46.7851 188.044 46.4222C188.044 46.0592 187.87 45.7481 187.32 45.7481H186.172V47.101V47.0963Z" fill="#595857"/>
</svg>
