<svg width="190" height="48" viewBox="0 0 190 48" fill="none" xmlns="http://www.w3.org/2000/svg">
<g clip-path="url(#clip0_4149_74576)">
<path d="M177.146 9.57647C176.635 8.75896 175.46 8.75896 174.949 9.57647L167.541 21.8392L170.606 23.5254L175.971 14.5838L181.336 23.5254L184.402 21.8392L177.146 9.57647ZM154.154 10.4451C152.876 8.60567 150.679 7.37939 148.125 7.37939C144.241 7.37939 141.022 10.3429 141.022 13.9706C141.022 17.5473 144.241 20.5108 148.125 20.5108C149.913 20.5108 151.497 19.9487 152.774 18.9268H159.774V23.2699H163.351V8.60567H159.774V10.4451H154.154ZM154.818 16.2188C155.227 15.248 155.329 14.175 155.227 13.1531H159.774V16.2188H154.818ZM148.125 10.4451C150.117 10.4451 151.752 12.029 151.752 13.9706C151.752 15.9122 150.117 17.4962 148.125 17.4962C146.183 17.4962 144.548 15.9122 144.548 13.9706C144.548 12.029 146.183 10.4451 148.125 10.4451ZM126.767 26.1312C128.76 26.1312 130.343 27.7152 130.343 29.6568C130.343 31.5984 128.759 33.1823 126.767 33.1823C124.775 33.1823 123.19 31.5984 123.19 29.6568C123.19 27.7152 124.774 26.1312 126.767 26.1312ZM126.767 23.1166C122.833 23.1166 119.665 26.029 119.665 29.6568C119.665 33.2845 122.833 36.248 126.767 36.248C130.701 36.248 133.869 33.2845 133.869 29.6568C133.869 28.2261 133.358 26.8976 132.541 25.8246H134.993V18.2115H138.519V15.4524H134.993V8.60567H131.468V19.3867H128.249V8.60567H113.533V11.3137H124.723V19.3867H121.249V15.2991H117.723V19.3867H113.022V22.0947H131.468V24.7517C130.19 23.7298 128.554 23.1166 126.767 23.1166ZM56.5625 17.4962H63.1537C62.4384 16.4743 62.0296 15.248 62.0296 13.9195C62.0296 10.3429 65.2486 7.37939 69.1318 7.37939C73.0661 7.37939 76.2851 10.3429 76.2851 13.9195C76.2851 15.248 75.8253 16.4743 75.1099 17.4962H81.9567V20.102H71.0224V22.1458H79.7085V29.81H62.2851V32.0071H79.7085V34.7152H58.7085V27.0509H76.1318V24.9049H58.7085V22.1458H67.4968V20.102H56.5625V17.4962ZM69.1318 10.4451C67.1902 10.4451 65.5552 12.029 65.5552 13.9706C65.5552 15.9122 67.1902 17.4962 69.1318 17.4962C71.1245 17.4962 72.7085 15.9122 72.7085 13.9706C72.7085 12.029 71.1245 10.4451 69.1318 10.4451ZM93.8618 9.57647C93.4019 8.75896 92.2267 8.75896 91.7158 9.57647L84.307 21.8392L87.3727 23.5254L92.7377 14.5838L98.1026 23.5254L101.168 21.8392L93.8618 9.57647ZM159.774 27.613H145.672V24.9049H163.351V34.7152H159.774V27.613ZM91.1537 32.0071H106.789V34.7152H87.5771V24.9049H91.1537V32.0071ZM106.789 15.9122V8.60567H103.263V27.2553H106.789V18.6714H110.314V15.9122H106.789ZM186.446 8.60567H189.971V34.7152H186.446V8.60567Z" fill="#58595B"/>
<path d="M26.9781 6C27.1314 8.50365 26.0584 9.32117 24.5255 9.47445C23.1971 9.47445 22.3796 9.83212 21.7664 10.5474L14.4088 23.1679C18.4964 23.3723 22.4307 24.854 25.8029 29.708C27.6934 32.4161 31.0146 34.7153 37.2482 35.8905C32.6496 36.9124 29.3796 34.9708 23.9635 33.2847C19.6204 31.9562 12.9781 31.3942 8.43066 33.4891L0 48C5.77372 43.1971 16.146 41.9708 23.5547 44.781C32.0876 48 40.3139 48.9708 49.3577 44.3212L43.1752 33.8467C42.1022 34.7153 41.0292 35.1752 39.9562 35.3285L41.1314 26.9489C37.3504 27.3577 34.0803 26.438 31.6788 23.6788C28.1022 19.4891 24.6277 16.3723 21.2044 15.6569C22.073 13.8693 23.8613 14.1241 26.0584 14.8912C27.6423 15.4022 30.4526 14.789 31.0657 12.8985L26.9781 6Z" fill="#00A5B5"/>
<path d="M15.7677 23.7944C18.006 23.7944 19.7879 25.5764 19.8333 27.8146C19.8333 30.0074 18.0514 31.8348 15.8131 31.8348C13.6203 31.8348 11.793 30.0536 11.793 27.8607C11.793 25.6218 13.5749 23.8406 15.767 23.7951L15.7677 23.7944Z" fill="#E57D40"/>
<path d="M57.3789 40.0801H59.2183V43.9122C59.2183 44.3721 59.3205 44.7297 59.5249 44.9852C59.7293 45.1896 60.0358 45.3429 60.4446 45.3429C60.8534 45.3429 61.211 45.1896 61.4154 44.9341C61.6198 44.7297 61.7731 44.3721 61.7731 43.9122V40.0801H63.4592V44.0655C63.4592 44.883 63.2037 45.5472 62.6928 45.956C62.1307 46.4158 61.3643 46.6202 60.3424 46.6202C59.3716 46.6202 58.6052 46.4158 58.1453 45.956C57.6344 45.4961 57.3789 44.8319 57.3789 43.9633V40.0801Z" fill="#939598"/>
<path d="M64.2773 46.518V40.0801H66.0657V45.2407H68.927V46.518H64.2773Z" fill="#939598"/>
<path d="M70.9192 44.4233V44.4744C70.9192 44.7809 70.9703 44.9853 71.1747 45.1897C71.3279 45.343 71.5834 45.3941 71.8389 45.3941C72.1966 45.3941 72.452 45.343 72.6564 45.2408C72.8097 45.1386 72.9119 44.9342 72.9119 44.7299C72.9119 44.3722 72.5542 44.1167 71.7878 43.9634C71.5834 43.9123 71.4812 43.8612 71.379 43.8612C70.5104 43.6058 69.9484 43.3503 69.6418 43.0948C69.3352 42.7882 69.233 42.3795 69.233 41.8685C69.233 41.3065 69.4374 40.8466 69.9484 40.489C70.4593 40.1313 71.0725 39.978 71.89 39.978C72.7586 39.978 73.4228 40.1313 73.8316 40.4379C74.2914 40.7444 74.4958 41.2036 74.4958 41.8685V41.9707H72.7075V41.9196C72.7075 41.6642 72.6564 41.4598 72.5031 41.3065C72.4009 41.2043 72.1966 41.1021 71.89 41.1021C71.6345 41.1021 71.4301 41.1532 71.2768 41.3065C71.1236 41.4087 71.0725 41.562 71.0725 41.7663C71.0725 42.124 71.5323 42.3795 72.452 42.5839C72.7075 42.635 72.9119 42.6861 73.0652 42.7372C73.6272 42.8904 74.0871 43.1459 74.3425 43.4014C74.6491 43.708 74.7513 44.1167 74.7513 44.5766C74.7513 45.2408 74.4958 45.7518 73.9849 46.1094C73.4739 46.4671 72.7586 46.6204 71.7878 46.6204C70.9192 46.6204 70.2549 46.416 69.7951 46.0583C69.3352 45.7007 69.1309 45.1386 69.1309 44.4233H70.9192Z" fill="#939598"/>
<path d="M82.5703 46.518V40.0801H85.1251L87.1689 44.6275V40.0801H88.7017V46.518H86.198L84.1032 41.7662V46.518H82.5703Z" fill="#939598"/>
<path d="M92.7891 46.518V40.0801H95.5993L96.6723 44.2188L97.6431 40.0801H100.453V46.518H98.7672V41.3575L97.3365 46.518H95.7526L94.3219 41.3575V46.518H92.7891Z" fill="#939598"/>
<path d="M101.373 46.518V40.0801H106.125V41.3064H103.11V42.6348H105.972V43.8611H103.11V45.2407H106.227V46.518H101.373Z" fill="#939598"/>
<path d="M108.371 46.518V41.3575H106.43V40.0801H112.101V41.3575H110.16V46.518H108.371Z" fill="#939598"/>
<path d="M117.723 45.1896C117.672 44.6786 117.621 44.3721 117.57 44.2699C117.468 43.9633 117.315 43.7078 117.11 43.5545C116.906 43.4012 116.65 43.3502 116.293 43.3502V43.2991C116.753 43.248 117.161 43.0947 117.417 42.7881C117.672 42.5326 117.826 42.175 117.826 41.7151C117.826 41.1531 117.621 40.7443 117.212 40.4888C116.804 40.1823 116.191 40.0801 115.424 40.0801H112.512V46.518H114.249V44.0144H114.964C115.22 44.0144 115.424 44.0655 115.577 44.1677C115.68 44.2699 115.782 44.4742 115.833 44.6786C115.833 44.7808 115.884 45.0363 115.935 45.445C115.986 45.8538 116.037 46.2115 116.088 46.518H117.979C117.877 46.1093 117.774 45.7005 117.723 45.1896ZM115.833 42.6859C115.629 42.7881 115.373 42.8392 114.964 42.8392H114.249V41.2553H115.015C115.373 41.2553 115.629 41.3575 115.833 41.4596C115.986 41.5618 116.037 41.7662 116.037 42.0217C116.037 42.3283 115.986 42.5326 115.833 42.6859Z" fill="#939598"/>
<path d="M124.058 40.8466C123.496 40.2846 122.679 39.978 121.657 39.978C120.635 39.978 119.817 40.2846 119.204 40.8466C118.642 41.4087 118.387 42.2262 118.387 43.2992C118.387 44.3211 118.642 45.1386 119.255 45.7517C119.817 46.3138 120.635 46.6204 121.657 46.6204C122.679 46.6204 123.496 46.3138 124.058 45.7517C124.671 45.1386 124.927 44.3211 124.927 43.2992C124.927 42.2262 124.671 41.4087 124.058 40.8466ZM122.73 44.7809C122.474 45.1386 122.117 45.2919 121.657 45.2919C121.197 45.2919 120.788 45.1386 120.584 44.7809C120.328 44.4233 120.226 43.9634 120.226 43.2992C120.226 42.635 120.328 42.124 120.584 41.7663C120.788 41.4598 121.197 41.2554 121.657 41.2554C122.117 41.2554 122.474 41.4598 122.73 41.7663C122.985 42.124 123.087 42.635 123.087 43.2992C123.087 43.9634 122.985 44.4233 122.73 44.7809Z" fill="#939598"/>
<path d="M130.446 40.591C130.037 40.2334 129.424 40.0801 128.555 40.0801H125.592V46.518H127.38V44.2188H128.709C129.475 44.2188 130.037 44.0144 130.497 43.6567C130.906 43.2991 131.11 42.7881 131.11 42.1239C131.11 41.4596 130.906 40.9487 130.446 40.591ZM129.015 42.737C128.862 42.8903 128.555 42.9414 128.198 42.9414H127.38V41.2553H128.198C128.555 41.2553 128.862 41.3575 129.015 41.4596C129.22 41.6129 129.322 41.8173 129.322 42.0728C129.322 42.3794 129.22 42.5837 129.015 42.737Z" fill="#939598"/>
<path d="M137.24 40.8466C136.627 40.2846 135.861 39.978 134.788 39.978C133.766 39.978 132.948 40.2846 132.386 40.8466C131.824 41.4087 131.518 42.2262 131.518 43.2992C131.518 44.3211 131.824 45.1386 132.386 45.7517C132.948 46.3138 133.766 46.6204 134.788 46.6204C135.861 46.6204 136.627 46.3138 137.24 45.7517C137.802 45.1386 138.109 44.3211 138.109 43.2992C138.109 42.2262 137.802 41.4087 137.24 40.8466ZM135.861 44.7809C135.656 45.1386 135.299 45.2919 134.788 45.2919C134.328 45.2919 133.97 45.1386 133.715 44.7809C133.459 44.4233 133.357 43.9634 133.357 43.2992C133.357 42.635 133.459 42.124 133.715 41.7663C133.97 41.4598 134.328 41.2554 134.788 41.2554C135.299 41.2554 135.656 41.4598 135.861 41.7663C136.116 42.124 136.269 42.635 136.269 43.2992C136.269 43.9634 136.116 44.4233 135.861 44.7809Z" fill="#939598"/>
<path d="M138.773 46.518V40.0801H140.562V45.2407H143.423V46.518H138.773Z" fill="#939598"/>
<path d="M143.883 46.518V40.0801H145.671V46.518H143.883Z" fill="#939598"/>
<path d="M147.971 46.518V41.3575H146.029V40.0801H151.701V41.3575H149.759V46.518H147.971Z" fill="#939598"/>
<path d="M155.583 40.0801H153.437L150.934 46.518H152.722L153.182 45.2407H155.685L156.145 46.518H158.138L155.583 40.0801ZM153.539 44.0144L154.459 41.3064L155.277 44.0144H153.539Z" fill="#939598"/>
<path d="M158.547 46.518V40.0801H161.102L163.094 44.6275V40.0801H164.627V46.518H162.175L160.08 41.7662V46.518H158.547Z" fill="#939598"/>
<path d="M174.694 44.4233V44.4744C174.694 45.1386 174.438 45.6496 173.927 46.0583C173.417 46.416 172.65 46.6204 171.73 46.6204C170.76 46.6204 169.942 46.3138 169.431 45.7517C168.869 45.2408 168.562 44.4233 168.562 43.4014C168.562 42.2773 168.869 41.4598 169.431 40.8466C169.993 40.2846 170.811 39.978 171.884 39.978C172.752 39.978 173.417 40.1313 173.927 40.489C174.387 40.8977 174.643 41.4087 174.643 42.0729H172.854C172.803 41.8174 172.701 41.6131 172.548 41.4598C172.344 41.3065 172.088 41.2043 171.781 41.2043C171.322 41.2043 171.015 41.4087 170.76 41.7663C170.555 42.124 170.453 42.6861 170.453 43.3503C170.453 44.0145 170.555 44.5255 170.76 44.832C171.015 45.1897 171.322 45.343 171.781 45.343C172.088 45.343 172.344 45.2919 172.548 45.0875C172.752 44.9342 172.854 44.7299 172.854 44.4233H174.694Z" fill="#939598"/>
<path d="M175.357 46.518V40.0801H177.146V46.518H175.357Z" fill="#939598"/>
<path d="M179.446 46.518V41.3575H177.504V40.0801H183.227V41.3575H181.285V46.518H179.446Z" fill="#939598"/>
<path d="M185.474 46.518H187.313V44.2699L189.766 40.0801H187.927L186.496 42.8392L185.116 40.0801H183.021L185.474 44.2188V46.518Z" fill="#939598"/>
<path d="M79.6578 40.0801H77.4607L74.957 46.518H76.7454L77.2052 45.2407H79.7599L80.1687 46.518H82.1614L79.6578 40.0801ZM77.614 44.0144L78.4826 41.3064L79.3001 44.0144H77.614Z" fill="#939598"/>
</g>
<defs>
<clipPath id="clip0_4149_74576">
<rect width="189.971" height="42" fill="white" transform="translate(0 6)"/>
</clipPath>
</defs>
</svg>
