<svg width="145" height="32" viewBox="0 0 145 32" fill="none" xmlns="http://www.w3.org/2000/svg">
<path d="M134.967 2.72475C134.578 2.10188 133.683 2.10188 133.293 2.72475L127.648 12.0678L129.984 13.3525L134.072 6.53983L138.159 13.3525L140.495 12.0678L134.967 2.72475ZM117.449 3.38655C116.476 1.98509 114.802 1.05078 112.855 1.05078C109.897 1.05078 107.444 3.30869 107.444 6.07268C107.444 8.79774 109.897 11.0556 112.855 11.0556C114.218 11.0556 115.425 10.6274 116.398 9.84883H121.731V13.1578H124.456V1.98509H121.731V3.38655H117.449ZM117.955 7.78557C118.266 7.04591 118.344 6.2284 118.266 5.44981H121.731V7.78557H117.955ZM112.855 3.38655C114.374 3.38655 115.619 4.59336 115.619 6.07268C115.619 7.552 114.374 8.75881 112.855 8.75881C111.376 8.75881 110.13 7.552 110.13 6.07268C110.13 4.59336 111.376 3.38655 112.855 3.38655ZM96.5828 15.3379C98.1011 15.3379 99.3073 16.5447 99.3073 18.024C99.3073 19.5033 98.1005 20.7101 96.5828 20.7101C95.0651 20.7101 93.8577 19.5033 93.8577 18.024C93.8577 16.5447 95.0646 15.3379 96.5828 15.3379ZM96.5828 13.041C93.5852 13.041 91.1716 15.26 91.1716 18.024C91.1716 20.788 93.5852 23.0459 96.5828 23.0459C99.5804 23.0459 101.994 20.788 101.994 18.024C101.994 16.934 101.605 15.9218 100.982 15.1043H102.85V9.30382H105.537V7.20163H102.85V1.98509H100.164V10.1992H97.7118V1.98509H86.5001V4.04835H95.0256V10.1992H92.3784V7.08484H89.6923V10.1992H86.1108V12.2625H100.164V14.2868C99.1911 13.5082 97.9448 13.041 96.5828 13.041ZM43.0938 8.75881H48.1156C47.5706 7.98022 47.2592 7.04591 47.2592 6.03375C47.2592 3.30869 49.7118 1.05078 52.6704 1.05078C55.668 1.05078 58.1205 3.30869 58.1205 6.03375C58.1205 7.04591 57.7701 7.98022 57.2251 8.75881H62.4417V10.7442H54.1108V12.3014H60.7288V18.1408H47.4538V19.8148H60.7288V21.878H44.7288V16.0386H58.0037V14.4036H44.7288V12.3014H51.4246V10.7442H43.0938V8.75881ZM52.6704 3.38655C51.1911 3.38655 49.9453 4.59336 49.9453 6.07268C49.9453 7.552 51.1911 8.75881 52.6704 8.75881C54.1886 8.75881 55.3955 7.552 55.3955 6.07268C55.3955 4.59336 54.1886 3.38655 52.6704 3.38655ZM71.5122 2.72475C71.1619 2.10188 70.2665 2.10188 69.8772 2.72475L64.2324 12.0678L66.5682 13.3525L70.6558 6.53983L74.7434 13.3525L77.0791 12.0678L71.5122 2.72475ZM121.731 16.4668H110.987V14.4036H124.456V21.878H121.731V16.4668ZM69.449 19.8148H81.3614V21.878H66.7239V14.4036H69.449V19.8148ZM81.3614 7.552V1.98509H78.6753V16.1943H81.3614V9.65419H84.0475V7.552H81.3614ZM142.052 1.98509H144.739V21.878H142.052V1.98509Z" fill="#58595B"/>
<path d="M20.5547 0C20.6715 1.90754 19.854 2.53041 18.6861 2.6472C17.674 2.6472 17.0511 2.91971 16.5839 3.46472L10.9781 13.0803C14.0925 13.236 17.09 14.365 19.6594 18.0633C21.0998 20.1265 23.6302 21.8783 28.3796 22.7737C24.8759 23.5523 22.3844 22.073 18.2579 20.7883C14.9489 19.7762 9.88808 19.3479 6.42336 20.944L0 32C4.39903 28.3406 12.3017 27.4063 17.9465 29.5474C24.4477 32 30.7153 32.7397 37.6058 29.1971L32.8954 21.2165C32.0779 21.8783 31.2603 22.2287 30.4428 22.3455L31.3382 15.9611C28.4574 16.2725 25.9659 15.5718 24.1363 13.4696C21.4112 10.2774 18.764 7.90268 16.1557 7.35766C16.8175 5.99567 18.1801 6.18978 19.854 6.77426C21.0608 7.16356 23.202 6.6964 23.6691 5.25601L20.5547 0Z" fill="#00A5B5"/>
<path d="M12.0128 13.5576C13.7181 13.5576 15.0758 14.9153 15.1104 16.6206C15.1104 18.2913 13.7527 19.6836 12.0474 19.6836C10.3766 19.6836 8.98438 18.3265 8.98438 16.6558C8.98438 14.9499 10.342 13.5928 12.0122 13.5582L12.0128 13.5576Z" fill="#E57D40"/>
<path d="M43.7168 25.9658H45.1183V28.8855C45.1183 29.2359 45.1961 29.5084 45.3518 29.703C45.5075 29.8588 45.7411 29.9756 46.0526 29.9756C46.364 29.9756 46.6365 29.8588 46.7922 29.6641C46.9479 29.5084 47.0647 29.2359 47.0647 28.8855V25.9658H48.3494V29.0023C48.3494 29.6252 48.1548 30.1313 47.7655 30.4427C47.3372 30.7931 46.7533 30.9488 45.9747 30.9488C45.235 30.9488 44.6511 30.7931 44.3007 30.4427C43.9114 30.0923 43.7168 29.5863 43.7168 28.9245V25.9658Z" fill="#939598"/>
<path d="M48.9727 30.8709V25.9658H50.3352V29.8977H52.5152V30.8709H48.9727Z" fill="#939598"/>
<path d="M54.0325 29.275V29.314C54.0325 29.5476 54.0714 29.7033 54.2271 29.859C54.3439 29.9758 54.5385 30.0147 54.7332 30.0147C55.0057 30.0147 55.2003 29.9758 55.3561 29.8979C55.4728 29.8201 55.5507 29.6643 55.5507 29.5086C55.5507 29.2361 55.2782 29.0415 54.6943 28.9247C54.5385 28.8857 54.4607 28.8468 54.3828 28.8468C53.721 28.6522 53.2928 28.4575 53.0592 28.2629C52.8256 28.0293 52.7478 27.7179 52.7478 27.3286C52.7478 26.9003 52.9035 26.55 53.2928 26.2775C53.6821 26.005 54.1492 25.8882 54.7721 25.8882C55.4339 25.8882 55.94 26.005 56.2514 26.2385C56.6018 26.4721 56.7575 26.8219 56.7575 27.3286V27.4064H55.395V27.3675C55.395 27.1729 55.3561 27.0171 55.2393 26.9003C55.1614 26.8225 55.0057 26.7446 54.7721 26.7446C54.5775 26.7446 54.4217 26.7836 54.305 26.9003C54.1882 26.9782 54.1492 27.095 54.1492 27.2507C54.1492 27.5232 54.4996 27.7179 55.2003 27.8736C55.395 27.9125 55.5507 27.9514 55.6675 27.9904C56.0957 28.1072 56.4461 28.3018 56.6407 28.4965C56.8743 28.73 56.9522 29.0415 56.9522 29.3918C56.9522 29.8979 56.7575 30.2872 56.3682 30.5597C55.9789 30.8322 55.4339 30.949 54.6943 30.949C54.0325 30.949 53.5264 30.7933 53.176 30.5208C52.8256 30.2483 52.6699 29.8201 52.6699 29.275H54.0325Z" fill="#939598"/>
<path d="M62.9082 30.8709V25.9658H64.8547L66.4119 29.4305V25.9658H67.5797V30.8709H65.6722L64.0761 27.2505V30.8709H62.9082Z" fill="#939598"/>
<path d="M70.6953 30.8709V25.9658H72.8364L73.6539 29.1191L74.3936 25.9658H76.5347V30.8709H75.2501V26.9391L74.16 30.8709H72.9532L71.8632 26.9391V30.8709H70.6953Z" fill="#939598"/>
<path d="M77.2344 30.8709V25.9658H80.8548V26.9001H78.558V27.9123H80.738V28.8466H78.558V29.8977H80.9327V30.8709H77.2344Z" fill="#939598"/>
<path d="M82.5692 30.8709V26.9391H81.0898V25.9658H85.411V26.9391H83.9317V30.8709H82.5692Z" fill="#939598"/>
<path d="M89.6915 29.8588C89.6526 29.4695 89.6136 29.2359 89.5747 29.158C89.4969 28.9245 89.3801 28.7298 89.2244 28.613C89.0686 28.4962 88.874 28.4573 88.6015 28.4573V28.4184C88.9518 28.3794 89.2633 28.2627 89.4579 28.0291C89.6526 27.8344 89.7694 27.5619 89.7694 27.2116C89.7694 26.7833 89.6136 26.4719 89.3022 26.2773C88.9908 26.0437 88.5236 25.9658 87.9397 25.9658H85.7207V30.8709H87.0443V28.9634H87.5893C87.784 28.9634 87.9397 29.0023 88.0565 29.0802C88.1343 29.158 88.2122 29.3138 88.2511 29.4695C88.2511 29.5473 88.29 29.742 88.329 30.0534C88.3679 30.3648 88.4068 30.6374 88.4458 30.8709H89.8862C89.8083 30.5595 89.7304 30.2481 89.6915 29.8588ZM88.2511 27.9512C88.0954 28.0291 87.9007 28.068 87.5893 28.068H87.0443V26.8612H87.6282C87.9008 26.8612 88.0954 26.9391 88.2511 27.0169C88.3679 27.0948 88.4068 27.2505 88.4068 27.4451C88.4068 27.6787 88.3679 27.8344 88.2511 27.9512Z" fill="#939598"/>
<path d="M94.5184 26.55C94.0902 26.1218 93.4673 25.8882 92.6888 25.8882C91.9102 25.8882 91.2873 26.1218 90.8201 26.55C90.3919 26.9782 90.1973 27.6011 90.1973 28.4186C90.1973 29.1972 90.3919 29.8201 90.8591 30.2872C91.2873 30.7154 91.9102 30.949 92.6888 30.949C93.4673 30.949 94.0902 30.7154 94.5184 30.2872C94.9856 29.8201 95.1802 29.1972 95.1802 28.4186C95.1802 27.6011 94.9856 26.9782 94.5184 26.55ZM93.5063 29.5475C93.3116 29.8201 93.0391 29.9368 92.6888 29.9368C92.3384 29.9368 92.0269 29.8201 91.8712 29.5475C91.6766 29.275 91.5987 28.9247 91.5987 28.4186C91.5987 27.9125 91.6766 27.5232 91.8712 27.2507C92.0269 27.0171 92.3384 26.8614 92.6888 26.8614C93.0391 26.8614 93.3116 27.0171 93.5063 27.2507C93.7009 27.5232 93.7788 27.9125 93.7788 28.4186C93.7788 28.9247 93.7009 29.275 93.5063 29.5475Z" fill="#939598"/>
<path d="M99.3858 26.3551C99.0744 26.0826 98.6072 25.9658 97.9454 25.9658H95.6875V30.8709H97.05V29.1191H98.0622C98.6461 29.1191 99.0744 28.9634 99.4247 28.6909C99.7362 28.4184 99.8919 28.0291 99.8919 27.523C99.8919 27.0169 99.7362 26.6276 99.3858 26.3551ZM98.2958 27.9902C98.179 28.1069 97.9454 28.1459 97.6729 28.1459H97.05V26.8612H97.6729C97.9454 26.8612 98.179 26.9391 98.2958 27.0169C98.4515 27.1337 98.5293 27.2894 98.5293 27.4841C98.5293 27.7176 98.4515 27.8734 98.2958 27.9902Z" fill="#939598"/>
<path d="M104.563 26.55C104.096 26.1218 103.512 25.8882 102.695 25.8882C101.916 25.8882 101.293 26.1218 100.865 26.55C100.437 26.9782 100.203 27.6011 100.203 28.4186C100.203 29.1972 100.437 29.8201 100.865 30.2872C101.293 30.7154 101.916 30.949 102.695 30.949C103.512 30.949 104.096 30.7154 104.563 30.2872C104.991 29.8201 105.225 29.1972 105.225 28.4186C105.225 27.6011 104.991 26.9782 104.563 26.55ZM103.512 29.5475C103.356 29.8201 103.084 29.9368 102.695 29.9368C102.344 29.9368 102.072 29.8201 101.877 29.5475C101.682 29.275 101.605 28.9247 101.605 28.4186C101.605 27.9125 101.682 27.5232 101.877 27.2507C102.072 27.0171 102.344 26.8614 102.695 26.8614C103.084 26.8614 103.356 27.0171 103.512 27.2507C103.707 27.5232 103.824 27.9125 103.824 28.4186C103.824 28.9247 103.707 29.275 103.512 29.5475Z" fill="#939598"/>
<path d="M105.73 30.8709V25.9658H107.093V29.8977H109.273V30.8709H105.73Z" fill="#939598"/>
<path d="M109.625 30.8709V25.9658H110.988V30.8709H109.625Z" fill="#939598"/>
<path d="M112.739 30.8709V26.9391H111.26V25.9658H115.581V26.9391H114.102V30.8709H112.739Z" fill="#939598"/>
<path d="M118.541 25.9658H116.906L114.998 30.8709H116.361L116.711 29.8977H118.618L118.969 30.8709H120.487L118.541 25.9658ZM116.983 28.9634L117.684 26.9001L118.307 28.9634H116.983Z" fill="#939598"/>
<path d="M120.797 30.8709V25.9658H122.743L124.262 29.4305V25.9658H125.429V30.8709H123.561L121.965 27.2505V30.8709H120.797Z" fill="#939598"/>
<path d="M133.097 29.275V29.314C133.097 29.8201 132.903 30.2094 132.513 30.5208C132.124 30.7933 131.54 30.949 130.839 30.949C130.1 30.949 129.477 30.7154 129.088 30.2872C128.659 29.8979 128.426 29.275 128.426 28.4965C128.426 27.64 128.659 27.0171 129.088 26.55C129.516 26.1218 130.139 25.8882 130.956 25.8882C131.618 25.8882 132.124 26.005 132.513 26.2775C132.864 26.5889 133.058 26.9782 133.058 27.4843H131.696C131.657 27.2896 131.579 27.1339 131.462 27.0171C131.307 26.9003 131.112 26.8225 130.878 26.8225C130.528 26.8225 130.294 26.9782 130.1 27.2507C129.944 27.5232 129.866 27.9514 129.866 28.4575C129.866 28.9636 129.944 29.3529 130.1 29.5865C130.294 29.859 130.528 29.9758 130.878 29.9758C131.112 29.9758 131.307 29.9368 131.462 29.7811C131.618 29.6643 131.696 29.5086 131.696 29.275H133.097Z" fill="#939598"/>
<path d="M133.604 30.8709V25.9658H134.966V30.8709H133.604Z" fill="#939598"/>
<path d="M136.718 30.8709V26.9391H135.238V25.9658H139.598V26.9391H138.119V30.8709H136.718Z" fill="#939598"/>
<path d="M141.314 30.8709H142.715V29.158L144.584 25.9658H143.183L142.093 28.068L141.041 25.9658H139.445L141.314 29.1191V30.8709Z" fill="#939598"/>
<path d="M60.6909 25.9658H59.0169L57.1094 30.8709H58.4719L58.8223 29.8977H60.7687L61.0802 30.8709H62.5984L60.6909 25.9658ZM59.1337 28.9634L59.7955 26.9001L60.4184 28.9634H59.1337Z" fill="#939598"/>
</svg>
