<svg width="24" height="25" viewBox="0 0 24 25" fill="none" xmlns="http://www.w3.org/2000/svg">
<circle cx="12" cy="12.5" r="11" stroke="#0CA2FF" stroke-width="2"/>
<path d="M11.9989 15.1287C11.1473 15.1287 10.4561 15.8171 10.4561 16.6627C10.4561 17.5084 11.1473 18.1967 11.9989 18.1967C12.8506 18.1967 13.5418 17.5084 13.5418 16.6627C13.5418 15.8171 12.8506 15.1287 11.9989 15.1287Z" fill="#0CA2FF"/>
<path d="M12.1327 14.2714H11.8489C11.3593 14.2714 10.9561 13.8915 10.9273 13.4053L10.6166 7.80855C10.5878 7.28359 11.0075 6.84239 11.5382 6.84239H12.4413C12.97 6.84239 13.3917 7.28359 13.3629 7.80855L13.0523 13.4053C13.0255 13.8915 12.6203 14.2714 12.1307 14.2714H12.1327Z" fill="#0CA2FF"/>
</svg>
