<svg width="100" height="100" viewBox="0 0 100 100" fill="none" xmlns="http://www.w3.org/2000/svg">
<circle cx="50" cy="50" r="46.4286" stroke="#F65458" stroke-width="7.14286"/>
<path d="M50.0028 60.9531C46.4542 60.9531 43.5742 63.8213 43.5742 67.3448C43.5742 70.8683 46.4542 73.7365 50.0028 73.7365C53.5514 73.7365 56.4314 70.8683 56.4314 67.3448C56.4314 63.8213 53.5514 60.9531 50.0028 60.9531Z" fill="#F65458"/>
<path d="M50.5612 57.3839H49.3784C47.3384 57.3839 45.6584 55.8008 45.5384 53.7752L44.2441 30.4553C44.1241 28.268 45.8727 26.4297 48.0841 26.4297H51.847C54.0498 26.4297 55.807 28.268 55.687 30.4553L54.3927 53.7752C54.2812 55.8008 52.5927 57.3839 50.5527 57.3839H50.5612Z" fill="#F65458"/>
</svg>
