<svg width="24" height="24" viewBox="0 0 24 24" fill="none" xmlns="http://www.w3.org/2000/svg">
<path d="M3 9.12005C3 7.60791 3 6.85184 3.32698 6.27427C3.6146 5.76624 4.07354 5.35319 4.63803 5.09433C5.27976 4.80005 6.11984 4.80005 7.8 4.80005H16.2C17.8802 4.80005 18.7202 4.80005 19.362 5.09433C19.9265 5.35319 20.3854 5.76624 20.673 6.27427C21 6.85184 21 7.60791 21 9.12005V16.68C21 18.1922 21 18.9483 20.673 19.5258C20.3854 20.0339 19.9265 20.4469 19.362 20.7058C18.7202 21 17.8802 21 16.2 21H7.8C6.11984 21 5.27976 21 4.63803 20.7058C4.07354 20.4469 3.6146 20.0339 3.32698 19.5258C3 18.9483 3 18.1922 3 16.68V9.12005Z" stroke="#171B22" stroke-width="2" stroke-linecap="round" stroke-linejoin="round"/>
<path d="M21 11H3" stroke="#171B22" stroke-width="2" stroke-linecap="round" stroke-linejoin="round"/>
<path d="M8 3V6" stroke="#171B22" stroke-width="2" stroke-linecap="round" stroke-linejoin="round"/>
<path d="M16 3V6" stroke="#171B22" stroke-width="2" stroke-linecap="round" stroke-linejoin="round"/>
</svg>
