<svg width="24" height="24" viewBox="0 0 24 24" fill="none" xmlns="http://www.w3.org/2000/svg">
<circle cx="12" cy="12" r="11" stroke="#0CA2FF" stroke-width="2"/>
<path d="M11.9989 14.6328C11.1473 14.6328 10.4561 15.3212 10.4561 16.1668C10.4561 17.0125 11.1473 17.7008 11.9989 17.7008C12.8506 17.7008 13.5418 17.0125 13.5418 16.1668C13.5418 15.3212 12.8506 14.6328 11.9989 14.6328Z" fill="#0CA2FF"/>
<path d="M12.1327 13.7728H11.8489C11.3593 13.7728 10.9561 13.3928 10.9273 12.9067L10.6166 7.3099C10.5878 6.78495 11.0075 6.34375 11.5382 6.34375H12.4413C12.97 6.34375 13.3917 6.78495 13.3629 7.3099L13.0523 12.9067C13.0255 13.3928 12.6203 13.7728 12.1307 13.7728H12.1327Z" fill="#0CA2FF"/>
</svg>
