<svg width="24" height="25" viewBox="0 0 24 25" fill="none" xmlns="http://www.w3.org/2000/svg">
<circle cx="12" cy="12.248" r="11" stroke="#F65458" stroke-width="2"/>
<path d="M11.9996 14.877C11.148 14.877 10.4568 15.5653 10.4568 16.411C10.4568 17.2566 11.148 17.945 11.9996 17.945C12.8513 17.945 13.5425 17.2566 13.5425 16.411C13.5425 15.5653 12.8513 14.877 11.9996 14.877Z" fill="#F65458"/>
<path d="M12.1335 14.0188H11.8496C11.36 14.0188 10.9568 13.6389 10.928 13.1528L10.6174 7.556C10.5886 7.03105 11.0082 6.58984 11.539 6.58984H12.442C12.9707 6.58984 13.3925 7.03105 13.3637 7.556L13.053 13.1528C13.0263 13.6389 12.621 14.0188 12.1314 14.0188H12.1335Z" fill="#F65458"/>
</svg>
