<svg width="24" height="24" viewBox="0 0 24 24" fill="none" xmlns="http://www.w3.org/2000/svg">
<path d="M23.4409 22.4023L16.1379 15.0993C17.5144 13.4941 18.3529 11.4132 18.3529 9.13741C18.3529 4.07764 14.2362 -0.0390625 9.17647 -0.0390625C6.72565 -0.0390625 4.42024 0.91529 2.68518 2.64753C0.952943 4.38117 -0.0014102 6.68658 1.56407e-06 9.13741C1.56407e-06 14.1972 4.11671 18.3139 9.17647 18.3139C11.4522 18.3139 13.5346 17.4753 15.1398 16.0988L22.4428 23.4019L23.4409 22.4023ZM9.17647 16.9021C4.896 16.9021 1.41177 13.4193 1.41177 9.13741C1.41035 7.06211 2.21788 5.11247 3.68471 3.64705C5.15012 2.18023 7.10118 1.3727 9.17647 1.3727C13.4569 1.3727 16.9412 4.85553 16.9412 9.13741C16.9412 13.4179 13.4569 16.9021 9.17647 16.9021Z" fill="#555555"/>
</svg>
