<svg width="33" height="33" viewBox="0 0 33 33" fill="none" xmlns="http://www.w3.org/2000/svg">
<path d="M8.32316 30.2128H25.1812C25.9782 30.2128 26.6235 29.5682 26.6235 28.7722V14.3048L16.7315 4.56445L6.88086 14.3048V28.7722C6.88086 29.5682 7.52617 30.2128 8.32316 30.2128Z" fill="#A5F0F2"/>
<path d="M9.1422 6.4375H7.6806C7.23891 6.4375 6.88086 6.79516 6.88086 7.23635V13.729C6.88086 14.1702 7.23891 14.5279 7.6806 14.5279H9.1422C9.58389 14.5279 9.94194 14.1702 9.94194 13.729V7.23635C9.94194 6.79516 9.58389 6.4375 9.1422 6.4375Z" fill="#B7F3F5"/>
<path d="M4.631 20.6899L16.754 8.58053L28.877 20.6899C29.2989 21.1113 29.9856 21.1113 30.4075 20.6899L31.4389 19.6597C31.8609 19.2382 31.8609 18.5523 31.4389 18.1308L17.5206 4.2282C17.0987 3.80674 16.412 3.80674 15.9901 4.2282L2.07182 18.1308C1.64989 18.5523 1.64989 19.2382 2.07182 19.6597L3.10321 20.6899C3.52514 21.1113 4.21182 21.1113 4.63376 20.6899H4.631Z" fill="#00ADB2"/>
<path d="M19.9888 30.2122H13.5137V23.0171C13.5137 21.2321 14.9642 19.7832 16.7513 19.7832C18.5383 19.7832 19.9888 21.2321 19.9888 23.0171V30.2122Z" fill="#4D88E2"/>
</svg>
