<svg width="18" height="19" viewBox="0 0 18 19" fill="none" xmlns="http://www.w3.org/2000/svg">
<path d="M5.27322 6.59369C5.94657 7.99614 6.86448 9.31057 8.02696 10.473C9.18943 11.6355 10.5039 12.5534 11.9063 13.2268C12.0269 13.2847 12.0873 13.3137 12.1636 13.3359C12.4348 13.415 12.7679 13.3582 12.9976 13.1937C13.0622 13.1474 13.1175 13.0921 13.2281 12.9815C13.5663 12.6433 13.7354 12.4742 13.9055 12.3636C14.5468 11.9467 15.3736 11.9467 16.0149 12.3636C16.185 12.4742 16.3541 12.6433 16.6923 12.9815L16.8808 13.1701C17.395 13.6842 17.6521 13.9413 17.7917 14.2174C18.0694 14.7665 18.0694 15.4149 17.7917 15.964C17.6521 16.2401 17.395 16.4972 16.8808 17.0113L16.7283 17.1638C16.2159 17.6762 15.9597 17.9324 15.6114 18.1281C15.2249 18.3452 14.6246 18.5013 14.1813 18.5C13.7818 18.4988 13.5088 18.4213 12.9627 18.2663C10.028 17.4334 7.25879 15.8617 4.94852 13.5515C2.63825 11.2412 1.06664 8.47199 0.233688 5.53731C0.0786942 4.99123 0.00119649 4.71819 8.29942e-06 4.31868C-0.00131103 3.87537 0.1548 3.27507 0.371917 2.88857C0.567583 2.54025 0.823778 2.28406 1.33617 1.77167L1.48867 1.61917C2.00282 1.10502 2.25989 0.847944 2.53599 0.708296C3.08508 0.430568 3.73353 0.430568 4.28262 0.708296C4.55872 0.847943 4.81579 1.10502 5.32994 1.61917L5.51847 1.80769C5.8567 2.14592 6.02581 2.31504 6.13638 2.4851C6.55335 3.12641 6.55335 3.95319 6.13638 4.5945C6.02581 4.76456 5.8567 4.93368 5.51847 5.2719C5.40788 5.3825 5.35258 5.43779 5.3063 5.50243C5.14182 5.73213 5.08503 6.06519 5.16409 6.33642C5.18634 6.41275 5.2153 6.47306 5.27322 6.59369Z" fill="white"/>
</svg>
