<svg width="34" height="30" viewBox="0 0 34 30" fill="none" xmlns="http://www.w3.org/2000/svg">
<path d="M7.4432 29.9036H26.549C27.4522 29.9036 28.1836 29.1731 28.1836 28.2708V11.8745L16.9726 0.835449L5.80859 11.8745V28.2708C5.80859 29.1731 6.53995 29.9036 7.4432 29.9036Z" fill="#A5F0F2"/>
<path d="M8.37145 2.95837H6.71497C6.21439 2.95837 5.80859 3.36372 5.80859 3.86374V11.2221C5.80859 11.7221 6.21439 12.1274 6.71497 12.1274H8.37145C8.87203 12.1274 9.27782 11.7221 9.27782 11.2221V3.86374C9.27782 3.36372 8.87203 2.95837 8.37145 2.95837Z" fill="#B7F3F5"/>
<path d="M3.25904 19.1111L16.9984 5.3872L30.7378 19.1111C31.216 19.5888 31.9943 19.5888 32.4725 19.1111L33.6414 17.9435C34.1195 17.4659 34.1195 16.6885 33.6414 16.2109L17.8673 0.454553C17.3891 -0.0230998 16.6109 -0.0230998 16.1327 0.454553L0.358643 16.2109C-0.119548 16.6885 -0.119548 17.4659 0.358643 17.9435L1.52755 19.1111C2.00574 19.5888 2.78398 19.5888 3.26217 19.1111H3.25904Z" fill="#00ADB2"/>
<path d="M20.6647 29.9033H13.3262V21.7489C13.3262 19.7259 14.9702 18.0837 16.9954 18.0837C19.0207 18.0837 20.6647 19.7259 20.6647 21.7489V29.9033Z" fill="#4D88E2"/>
</svg>
