<svg width="24" height="30" viewBox="0 0 24 30" fill="none" xmlns="http://www.w3.org/2000/svg">
<path fill-rule="evenodd" clip-rule="evenodd" d="M0.333984 12.3333C0.333984 5.88997 5.55733 0.666626 12.0007 0.666626C18.444 0.666626 23.6673 5.88997 23.6673 12.3333C23.6673 15.5958 22.1872 18.4766 20.1263 21.1526C18.4021 23.3914 16.1952 25.5793 13.9712 27.7842C13.5496 28.2022 13.1274 28.6207 12.7078 29.0404C12.3172 29.4309 11.6841 29.4309 11.2935 29.0404C10.8739 28.6207 10.4517 28.2021 10.0301 27.7842C7.80606 25.5793 5.59924 23.3914 3.87504 21.1526C1.81415 18.4766 0.333984 15.5958 0.333984 12.3333ZM9 12.3307C9 10.6738 10.3431 9.33069 12 9.33069C13.6569 9.33069 15 10.6738 15 12.3307C15 13.9875 13.6569 15.3307 12 15.3307C10.3431 15.3307 9 13.9875 9 12.3307ZM12 7.33069C9.23858 7.33069 7 9.56926 7 12.3307C7 15.0921 9.23858 17.3307 12 17.3307C14.7614 17.3307 17 15.0921 17 12.3307C17 9.56926 14.7614 7.33069 12 7.33069Z" fill="#67B0FF"/>
</svg>
