<svg width="318" height="155" viewBox="0 0 318 155" fill="none" xmlns="http://www.w3.org/2000/svg">
<g clip-path="url(#clip0_20_3818)">
<g clip-path="url(#clip1_20_3818)">
<path d="M259.006 191.83C261.446 189.643 264.135 188.366 266.966 186.828C268.679 185.895 268.576 185.906 268.966 183.773C269.34 181.738 269.687 179.693 270.045 177.652C271.395 170.004 272.745 162.356 274.09 154.708C277.728 154.686 281.372 154.67 285.01 154.648C284.164 165.542 283.324 176.43 282.478 187.324C282.434 187.848 282.391 188.393 282.152 188.857C281.881 189.386 281.388 189.757 280.905 190.106C276.638 193.161 271.184 196.701 265.702 196.02C263.935 195.801 262.222 195.223 260.6 194.487C260.389 194.389 260.172 194.285 260.02 194.105C259.863 193.914 259.803 193.663 259.727 193.423C259.576 192.954 259.321 192.212 259.012 191.825L259.006 191.83Z" fill="#FFD5C5"/>
<path d="M290.822 185.993C281.854 185.731 271.748 185.562 263.143 185.158C266.619 152.607 272.968 121.846 275.679 90.7413C282.863 90.2939 291.37 92.2796 298.559 92.2032C296.488 123.805 294.162 158.794 290.822 185.993Z" fill="#EA9D5E"/>
<path d="M335.547 181.329L299.318 140.192C295.805 124.552 293.153 107.603 290.209 90.8562C297.193 89.5197 307.44 88.3905 314.521 87.4141C317.503 102.476 320.545 117.684 323.841 132.866L355.689 161.396L335.542 181.329" fill="#EA9D5E"/>
<path d="M293.701 109.202C294.677 115.426 295.659 124.002 296.868 129.517" stroke="#ECECEC" stroke-width="2.12" stroke-linecap="round" stroke-linejoin="round"/>
<path d="M307.055 143.471C309.707 143.994 312.358 144.524 315.009 145.047" stroke="#ECECEC" stroke-width="2.12" stroke-linecap="round" stroke-linejoin="round"/>
<path d="M270.539 145.772C272.225 149.329 274.133 152.777 276.253 156.088" stroke="#AA7F55" stroke-width="2.6" stroke-linecap="round" stroke-linejoin="round"/>
<path d="M272.93 155.946C274.009 157.534 275.088 159.121 276.167 160.709" stroke="#AA7F55" stroke-width="2.6" stroke-linecap="round" stroke-linejoin="round"/>
<path d="M309.143 102.17C310.948 105.498 313.746 108.274 317.086 110.036" stroke="#ECECEC" stroke-width="2.12" stroke-linecap="round" stroke-linejoin="round"/>
<path d="M323.088 40.0428C322.323 38.5099 323.023 37.5062 323.207 35.7823C323.392 34.0694 323.012 32.2911 322.101 30.8237C320.1 27.6052 314.163 27.3597 310.84 27.1197C310.547 27.0978 310.238 27.076 309.999 26.9069C309.262 26.3941 309.766 25.2704 309.88 24.3758C310.032 23.132 309.197 21.9373 308.129 21.2936C306.54 20.3335 303.732 19.9735 301.926 20.3499C301.221 20.4972 300.56 20.7863 299.909 21.0972C297.708 22.161 291.538 24.8722 291.402 27.747C291.343 28.9635 292.172 30.0218 292.481 31.2001C292.823 32.4929 292.481 33.9494 291.608 34.9586C290.849 35.8314 289.754 36.3551 288.973 37.2061C288.285 37.9589 287.873 38.9572 287.824 39.9773C287.732 42.0175 290.291 42.683 291.326 44.1832C292.855 46.4089 293.913 48.9291 295.556 51.0784C299.486 56.2171 306.285 58.4755 312.727 58.3773C318.208 58.2901 323.56 55.6007 325.978 50.4129C326.927 48.3727 327.084 45.8688 325.978 43.905C325.305 42.7049 324.232 41.7939 323.451 40.6647C323.299 40.4464 323.175 40.2337 323.072 40.0373L323.088 40.0428Z" fill="#7F6F61"/>
<path d="M311.913 40.2819C311.149 38.749 311.848 37.7453 312.032 36.0215C312.217 34.3086 311.837 32.5302 310.926 31.0628C308.926 27.8443 302.989 27.5988 299.665 27.3588C299.372 27.337 299.063 27.3152 298.825 27.1461C298.087 26.6333 298.592 25.5095 298.705 24.6149C298.857 23.3711 298.022 22.1765 296.954 21.5328C295.365 20.5727 292.557 20.2126 290.751 20.589C290.047 20.7363 289.385 21.0254 288.735 21.3364C286.533 22.4001 280.363 25.1113 280.228 27.9861C280.168 29.2026 280.997 30.2609 281.307 31.4392C281.648 32.7321 281.307 34.1886 280.434 35.1978C279.675 36.0706 278.579 36.5943 277.799 37.4453C277.11 38.1981 276.698 39.1963 276.649 40.2164C276.557 42.2567 279.116 42.9222 280.152 44.4223C281.681 46.648 282.738 49.1683 284.381 51.3176C288.312 56.4563 295.111 58.7147 301.552 58.6165C307.033 58.5292 312.385 55.8398 314.803 50.652C315.752 48.6118 315.909 46.1079 314.803 44.1441C314.131 42.944 313.057 42.033 312.276 40.9038C312.125 40.6856 312 40.4728 311.897 40.2765L311.913 40.2819Z" fill="#7F6F61"/>
<path d="M243.332 65.4902C247.16 58.6659 254.062 54.2473 260.801 50.3033C269.785 45.05 279.295 38.9239 290.464 34.6908C290.426 34.8053 290.383 34.9254 290.345 35.0454C291.836 34.609 293.446 34.358 295.192 34.3253C298.152 34.2707 300.798 35.0563 303.162 36.4255C313.61 40.5496 322.546 48.8904 329.166 57.804C330.635 59.7788 332.023 61.8353 332.977 64.1101C334.848 68.5451 334.864 72.9419 333.275 77.4205C331.882 81.3591 328.07 84.1521 324.319 85.7559C323.261 86.2087 322.171 86.5742 321.065 86.8742C321.299 90.9655 321.402 95.0677 321.38 99.1645C321.38 99.6118 321.374 100.059 321.369 100.506C307.202 100.812 292.937 100.43 278.742 100.283C278.005 100.277 268.142 100.163 268.142 100.174C268.299 90.8237 268.928 81.5282 270.452 72.3637C262.184 73.662 253.872 74.6657 245.533 75.353C244.937 75.4021 244.27 75.424 243.83 75.0148C243.532 74.7366 243.413 74.322 243.315 73.9293C242.681 71.3599 242.03 67.7923 243.326 65.4848L243.332 65.4902Z" fill="#F9E95D"/>
<path d="M294.07 38.4653C296.434 38.4653 298.348 36.5342 298.348 34.1613V30.2445H289.792V34.1613C289.792 36.5397 291.711 38.4653 294.07 38.4653Z" fill="#FFD5C5"/>
<path d="M291.223 22.2641C293.961 23.7097 296.705 25.1608 299.443 26.6064C301.59 27.7411 303.818 26.2354 304.518 24.1243C305.353 21.6095 305.011 18.702 303.65 16.4381C301.031 12.0686 294.807 9.98473 290.225 12.3195C286.219 14.3597 284.055 19.5475 285.541 23.8134" fill="#7F6F61"/>
<path d="M303.13 24.3969C302.918 20.2728 300.001 16.6343 295.794 15.7233C291.657 14.8286 287.574 16.847 285.649 20.4092C285.232 21.1784 284.912 22.013 284.722 22.9131C283.638 27.9754 286.837 32.9614 291.868 34.0524C296.9 35.1434 301.855 31.9249 302.94 26.8626C303.119 26.0334 303.168 25.2097 303.13 24.4023V24.3969Z" fill="#FFD5C5"/>
<path d="M304.551 26.5898C304.35 27.5281 303.428 28.1282 302.496 27.9263C301.563 27.7245 300.967 26.7971 301.167 25.8589C301.368 24.9206 302.29 24.3205 303.222 24.5224C304.155 24.7242 304.751 25.6516 304.551 26.5898Z" fill="#FFD5C5"/>
<path d="M286.609 22.706C286.408 23.6443 285.487 24.2444 284.554 24.0425C283.622 23.8407 283.025 22.9133 283.226 21.9751C283.426 21.0368 284.348 20.4367 285.281 20.6386C286.213 20.8404 286.81 21.7678 286.609 22.706Z" fill="#FFD5C5"/>
<path d="M290.345 22.3406C290.274 22.6624 289.965 22.8643 289.645 22.7933C289.325 22.7224 289.125 22.4115 289.195 22.0896C289.266 21.7678 289.575 21.5659 289.895 21.6369C290.215 21.7078 290.415 22.0187 290.345 22.3406Z" fill="#113B6D"/>
<path d="M294.297 23.1966C294.227 23.5185 293.918 23.7203 293.598 23.6494C293.278 23.5785 293.077 23.2676 293.148 22.9457C293.218 22.6239 293.528 22.422 293.847 22.4929C294.167 22.5639 294.368 22.8748 294.297 23.1966Z" fill="#113B6D"/>
<path d="M291.597 22.8208C290.741 23.0826 290.594 24.1409 290.475 24.6155C290.893 24.7083 291.315 24.801 291.733 24.8937" stroke="#113B6D" stroke-width="1.39" stroke-linecap="round" stroke-linejoin="round"/>
<path d="M289.006 25.1282C289.049 25.5646 289.304 25.9683 289.645 26.241C289.987 26.5138 290.415 26.6665 290.844 26.7429C291.223 26.8083 291.619 26.8193 291.993 26.7211C292.367 26.6229 292.714 26.4047 292.931 26.0828" stroke="#113B6D" stroke-width="1.39" stroke-linecap="round" stroke-linejoin="round"/>
<path d="M289.298 20.5786C289.797 20.5567 290.301 20.6168 290.778 20.764" stroke="#113B6D" stroke-width="1.39" stroke-linecap="round" stroke-linejoin="round"/>
<path d="M293.565 21.4404C294.026 21.4841 294.471 21.6259 294.877 21.8496" stroke="#113B6D" stroke-width="1.39" stroke-linecap="round" stroke-linejoin="round"/>
<path d="M295.062 16.4274C295.599 16.8093 296.092 17.2566 296.515 17.7639C297.632 19.095 298.288 20.7806 299.47 22.0571C300.067 22.7008 300.777 23.2136 301.509 23.6827C302.16 24.0973 302.81 24.7574 303.656 24.4464C304.507 24.13 304.513 22.7499 304.475 21.9916C304.437 21.1516 304.274 20.3006 304.036 19.4932C303.678 18.2822 303.211 17.0711 302.376 16.1274C301.303 14.9055 299.736 14.2509 298.191 13.7599C295.973 13.0507 293.414 12.5543 291.175 13.4108C290.817 13.5472 290.416 13.7817 290.389 14.169C290.367 14.4636 290.589 14.7364 290.849 14.8673C291.11 14.9982 291.413 15.0309 291.706 15.0746C292.91 15.2546 294.065 15.7292 295.057 16.4329L295.062 16.4274Z" fill="#7F6F61"/>
<path d="M289.743 33.4523C288.35 34.5706 287.26 36.3489 286.978 38.1164C286.701 39.8893 286.913 41.7004 287.287 43.4569C287.574 44.8152 287.981 46.2663 288.908 47.3355C289.336 47.8264 289.938 48.3283 290.583 48.4919C291.169 48.6392 291.673 48.3065 292.242 48.4101C290.236 52.005 289.152 56.0036 289.331 60.144C289.494 63.8862 290.643 67.5793 290.394 71.316C293.891 71.5943 297.344 70.3069 300.847 70.3669C298.76 68.0266 298.12 64.7372 297.865 61.606C297.61 58.4748 297.648 55.2563 296.607 52.2941C296.141 50.974 295.452 49.763 294.818 48.5247C295.479 48.7156 295.745 49.0484 296.52 48.8138C297.209 48.6065 297.794 48.0883 298.255 47.5537C299.036 46.6427 299.692 45.5735 300.12 44.4606C301.08 41.9295 302.463 38.7819 301.769 36.0598C301.53 35.1379 301.02 34.2487 300.218 33.7468C299.67 33.4086 299.025 33.2668 298.396 33.1359C298.136 35.367 297.61 37.5599 296.84 39.6711C296.135 41.5913 295.393 43.6587 293.815 45.0334C293.771 45.0716 293.723 45.1098 293.663 45.1152C293.571 45.1152 293.506 45.0334 293.457 44.9625C293.142 44.4934 292.752 44.0733 292.524 43.5605C291.245 40.3693 289.819 36.8999 289.743 33.4577V33.4523Z" fill="white"/>
<path d="M298.629 39.54C298.06 41.5912 297.35 43.7677 295.658 45.0388" stroke="#ECECEC" stroke-width="2.12" stroke-linecap="round" stroke-linejoin="round"/>
<path d="M289 43.2174C288.962 43.8666 289.342 44.4557 289.7 44.9958C290.302 45.8959 290.941 46.8287 291.89 47.3469" stroke="#ECECEC" stroke-width="2.12" stroke-linecap="round" stroke-linejoin="round"/>
<path d="M293.967 49.4469C295.474 54.9947 293.468 61.1863 295.599 66.5268" stroke="#ECECEC" stroke-width="2.12" stroke-linecap="round" stroke-linejoin="round"/>
<path d="M292.433 53.3904C292.254 55.3215 292.14 57.258 292.091 59.2001" stroke="#ECECEC" stroke-width="2.12" stroke-linecap="round" stroke-linejoin="round"/>
<mask id="mask0_20_3818" style="mask-type:luminance" maskUnits="userSpaceOnUse" x="242" y="34" width="93" height="67">
<path d="M243.332 65.4902C247.16 58.6659 254.062 54.2473 260.801 50.3033C269.785 45.05 279.295 38.9239 290.464 34.6908C290.426 34.8053 290.383 34.9254 290.345 35.0454C291.836 34.609 293.446 34.358 295.192 34.3253C298.152 34.2707 300.798 35.0563 303.162 36.4255C313.61 40.5496 322.546 48.8904 329.166 57.804C330.635 59.7788 332.023 61.8353 332.977 64.1101C334.848 68.5451 334.864 72.9419 333.275 77.4205C331.882 81.3591 328.07 84.1521 324.319 85.7559C323.261 86.2087 322.171 86.5742 321.065 86.8742C321.299 90.9655 321.402 95.0677 321.38 99.1645C321.38 99.6118 321.374 100.059 321.369 100.506C307.202 100.812 292.937 100.43 278.742 100.283C278.005 100.277 268.142 100.163 268.142 100.174C268.299 90.8237 268.928 81.5282 270.452 72.3637C262.184 73.662 253.872 74.6657 245.533 75.353C244.937 75.4021 244.27 75.424 243.83 75.0148C243.532 74.7366 243.413 74.322 243.315 73.9293C242.681 71.3599 242.03 67.7923 243.326 65.4848L243.332 65.4902Z" fill="white"/>
</mask>
<g mask="url(#mask0_20_3818)">
<path d="M307.53 65.4467L315.982 68.9779L315.238 70.7815L306.786 67.2503L307.53 65.4467Z" fill="white"/>
<path d="M307.638 95.1373L310.029 104.026L308.155 104.536L305.765 95.6474L307.638 95.1373Z" fill="white"/>
<path d="M259.862 53.0133L268.811 54.9435L268.404 56.853L259.455 54.9228L259.862 53.0133Z" fill="white"/>
<path d="M302.703 76.983L302.948 86.1879L301.007 86.24L300.763 77.0351L302.703 76.983Z" fill="white"/>
<path d="M280.24 54.7371L284.411 62.9336L282.683 63.8235L278.513 55.627L280.24 54.7371Z" fill="white"/>
<path d="M279.137 73.4663L286.425 79.0361L285.251 80.5913L277.963 75.0215L279.137 73.4663Z" fill="white"/>
<path d="M265.11 67.2924L261.348 75.6868L259.579 74.884L263.341 66.4897L265.11 67.2924Z" fill="white"/>
<path d="M279.425 36.1771L280.529 45.318L278.602 45.5536L277.498 36.4127L279.425 36.1771Z" fill="white"/>
<path d="M281.468 92.3719L290.535 93.6248L290.271 95.5595L281.204 94.3066L281.468 92.3719Z" fill="white"/>
<path d="M314.302 48.8347L305.166 49.3888L305.049 47.4394L314.185 46.8853L314.302 48.8347Z" fill="white"/>
</g>
<path d="M310.13 56.2006C311.713 59.179 312.998 62.3157 313.968 65.5451" stroke="#EDD732" stroke-width="2.12" stroke-linecap="round" stroke-linejoin="round"/>
<path d="M322.302 86.7161C313.632 90.2673 304.025 91.4784 294.753 90.1964" stroke="#EDD732" stroke-width="2.12" stroke-linecap="round" stroke-linejoin="round"/>
<path d="M276.676 55.3706C276.14 57.7272 275.603 60.0838 275.066 62.4404" stroke="#EDD732" stroke-width="2.12" stroke-linecap="round" stroke-linejoin="round"/>
<path d="M319.434 61.9281C316.132 65.6757 310.46 67.7432 305.83 69.1997C300.625 70.8363 295.171 71.6654 289.716 71.6163" stroke="#EDD732" stroke-width="2.12" stroke-linecap="round" stroke-linejoin="round"/>
<path d="M296.808 24.7842C296.564 24.8606 296.331 24.9806 296.12 25.1279" stroke="#F9B29B" stroke-width="4.24" stroke-linecap="round" stroke-linejoin="round"/>
<path d="M287.509 22.804C287.357 22.8858 287.211 22.9731 287.059 23.0549" stroke="#F9B29B" stroke-width="4.24" stroke-linecap="round" stroke-linejoin="round"/>
<path d="M288.458 80.2084C289.196 81.3212 290.323 82.1722 291.592 82.5704C291.126 83.045 290.188 83.1596 289.602 83.5142C288.887 83.9451 288.22 84.4688 287.634 85.0634C287.179 85.5271 286.756 86.0617 286.62 86.6999C286.485 87.3382 286.712 88.091 287.287 88.3856C287.97 88.7347 288.778 88.3419 289.44 87.9601C288.496 88.5492 287.417 89.482 287.743 90.5458C287.943 91.2004 288.648 91.5932 289.326 91.6422C290.004 91.6859 290.67 91.4568 291.316 91.2331C290.345 91.7623 290.052 93.2242 290.736 94.0916C291.419 94.9589 292.904 95.0026 293.636 94.1734C292.812 94.768 292.584 96.1918 293.165 97.0373C294.01 98.2702 296.77 97.3701 297.838 96.9282C299.378 96.2845 300.739 95.1935 301.65 93.7806C302.506 92.4551 302.669 91.0531 302.17 89.5584C301.335 87.0545 300.083 84.6052 298.31 82.6414C296.369 80.492 293.821 79.5756 291.24 78.4246C290.622 78.1464 289.971 77.8681 289.299 77.9391C288.626 78.01 287.954 78.5719 288.019 79.2483C288.041 79.4883 288.155 79.712 288.274 79.9193C288.334 80.0174 288.393 80.1156 288.453 80.2084H288.458Z" fill="#FFD5C5"/>
<path d="M293.148 85.8871C292.075 86.6617 289.998 87.8673 288.838 88.6255" stroke="#E59F8F" stroke-width="2.12" stroke-linecap="round" stroke-linejoin="round"/>
<path d="M295.36 88.7242C293.956 89.5861 292.438 90.699 291.034 91.5663" stroke="#E59F8F" stroke-width="2.12" stroke-linecap="round" stroke-linejoin="round"/>
<path d="M297.345 92.28C296.043 93.2456 294.249 94.222 293.121 95.0349" stroke="#E59F8F" stroke-width="2.12" stroke-linecap="round" stroke-linejoin="round"/>
<path d="M110.983 183.287H132.102L137.073 92.5745H114.529L110.983 183.287Z" fill="#7188EA"/>
<path d="M136.596 194.988H157.72L155.41 92.5745H132.866L136.596 194.988Z" fill="#7188EA"/>
<path d="M89.5341 30.0586C92.2667 35.3282 95.2 40.5215 98.529 45.3983C98.3067 45.071 109.725 38.2249 110.804 37.6576C109.915 36.1574 108.722 34.9737 108.05 33.3317C107.838 32.8189 107.627 32.2952 107.611 31.7442C107.589 31.1005 107.828 30.4787 108.044 29.8731C108.576 28.4003 110.815 23.0979 109.503 21.7942C108.044 20.3431 105.1 24.5872 104.276 25.4218C103.067 23.1088 101.63 20.9159 99.9983 18.8811C99.4236 18.1665 98.7351 17.4192 97.8242 17.3101C96.9133 17.201 95.9048 18.172 96.3386 18.9848C95.9699 18.0574 94.7933 17.5446 93.8716 17.9156C92.9499 18.2865 92.4402 19.4703 92.8143 20.3977C92.3155 19.9012 91.7354 19.3721 91.0305 19.3994C88.6774 19.4976 90.0221 22.1869 89.9678 23.3925C88.9648 22.9452 87.8153 23.7307 87.6202 24.7781C87.4196 25.8418 87.9184 26.9001 88.4118 27.8602C88.7859 28.5967 89.16 29.3276 89.5395 30.0586H89.5341Z" fill="#F4C2B3"/>
<path d="M99.0874 24.303C98.3121 22.9774 97.2819 20.7027 96.5337 19.2734" stroke="#E59F8F" stroke-width="2.12" stroke-linecap="round" stroke-linejoin="round"/>
<path d="M95.6499 25.8475C94.8041 24.1291 94.1209 22.9945 93.2751 21.2761" stroke="#E59F8F" stroke-width="2.12" stroke-linecap="round" stroke-linejoin="round"/>
<path d="M92.2722 27.522C91.3017 25.9128 90.8951 24.8436 90.0872 23.4525" stroke="#E59F8F" stroke-width="2.12" stroke-linecap="round" stroke-linejoin="round"/>
<path d="M100.503 25.6619C98.1984 26.9111 96.2411 28.8095 94.9127 31.0788" stroke="#E59F8F" stroke-width="2.12" stroke-linecap="round" stroke-linejoin="round"/>
<path d="M92.5054 39.2022C96.317 37.5875 98.3827 36.4692 101.565 35.0181C102.015 34.8108 108.614 31.6196 108.82 31.876C110.913 36.3382 113.694 40.2714 117.175 43.7463C119.387 45.9501 123.036 49.3868 126.398 49.0759C129.884 48.754 132.823 46.4302 136.087 45.1591C136.97 44.8155 137.925 44.5427 138.857 44.7173C141.237 45.1646 141.015 49.185 141.275 51.0834C141.698 54.1764 141.693 57.3513 140.907 60.3843C139.063 67.4923 131.95 72.9637 124.511 71.8509C122.152 71.4963 119.918 70.5689 117.755 69.5652C114.643 68.1251 111.596 66.4994 108.847 64.4429C100.72 58.3714 95.7422 49.0541 91.0198 40.0422C91.5023 39.7477 91.974 39.4258 92.5 39.2022H92.5054Z" fill="#E2A060"/>
<path d="M168.298 96.4204C168.287 96.8895 168.276 117.341 168.255 117.804C161.374 118.083 119.837 117.597 106.494 117.472C106.7 105.007 107.692 72.6471 110.311 60.515C111.699 54.078 114.063 47.7773 116.855 41.9186C120.938 33.3486 125.872 26.568 135.696 26.3934C146.296 26.2025 153.182 35.9234 157.666 45.8081C162.838 57.2147 167.149 72.3471 167.826 85.0684C168.027 88.8051 168.368 92.6618 168.298 96.4204Z" fill="white"/>
<path d="M136.829 31.0351C134.167 31.0351 132.009 28.864 132.009 26.1855V21.7723H141.644V26.1855C141.644 28.864 139.486 31.0351 136.824 31.0351H136.829Z" fill="#FFD5C5"/>
<path d="M167.908 61.6878C170.857 75.8819 173.172 87.6704 175.043 102.546C176.848 116.904 176.935 113.506 178.442 126.68C168.482 127.203 152.905 127.678 142.929 127.678L144.095 28.199C144.095 28.199 161.618 31.4338 167.902 61.6932L167.908 61.6878Z" fill="#FCC383"/>
<path d="M101.473 126.134C103.17 109.894 103.186 103.255 106.613 81.1457C108.278 70.3992 109.953 59.5981 113.222 49.228C116.183 39.8343 120.954 31.4444 129.77 27.1458C125.08 58.2561 122.277 95.1816 118.975 126.472L101.473 126.128V126.134Z" fill="#FCC383"/>
<path d="M149.001 32.9229C148.671 33.5938 147.407 35.6722 146.876 36.1959C148.069 37.6797 149.262 39.1689 150.455 40.6527C150.563 40.7891 150.677 40.9309 150.709 41.1C150.753 41.2964 150.688 41.4928 150.623 41.6837C149.332 45.5241 148.042 49.359 146.751 53.1994" stroke="#E2A060" stroke-width="2.12" stroke-linecap="round" stroke-linejoin="round"/>
<path d="M124.109 60.4707C123.079 53.7501 122.022 46.3311 120.992 39.6159C122.32 38.4158 124.05 36.752 125.855 35.2682C125.497 34.6081 125.167 33.9372 124.863 33.2498C124.597 32.6498 124.608 32.2679 124.348 31.6678" stroke="#E2A060" stroke-width="2.12" stroke-linecap="round" stroke-linejoin="round"/>
<path d="M143.162 29.0989C142.68 30.7463 141.454 32.1592 139.898 32.8683C139.454 33.0702 138.993 33.2175 138.521 33.332C137.052 33.703 135.485 33.8121 134.026 33.4029C132.568 32.9938 131.218 32.0337 130.562 30.659" stroke="#ECECEC" stroke-width="2.12" stroke-linecap="round" stroke-linejoin="round"/>
<path d="M103.918 33.2396C106.651 38.5093 109.584 43.7025 112.913 48.5794C112.691 48.2521 124.11 41.4059 125.188 40.8386C124.299 39.3384 123.106 38.1547 122.434 36.5127C122.223 35.9999 122.011 35.4762 121.995 34.9253C121.973 34.2816 122.212 33.6597 122.429 33.0542C122.96 31.5813 125.199 26.279 123.887 24.9752C122.429 23.5241 119.485 27.7682 118.661 28.6028C117.451 26.2899 116.02 24.0969 114.383 22.0622C113.808 21.3475 113.119 20.6002 112.208 20.4911C111.298 20.382 110.289 21.353 110.723 22.1658C110.354 21.2384 109.178 20.7257 108.256 21.0966C107.334 21.4676 106.83 22.6513 107.199 23.5787C106.7 23.0823 106.12 22.5531 105.415 22.5804C103.062 22.6786 104.406 25.368 104.352 26.5735C103.349 26.1262 102.2 26.9117 102.004 27.9591C101.804 29.0229 102.303 30.0811 102.796 31.0412C103.17 31.7777 103.544 32.5087 103.924 33.2396H103.918Z" fill="#FFD5C5"/>
<path d="M114.204 28.5096C113.429 27.184 111.666 23.8837 110.918 22.4545" stroke="#E59F8F" stroke-width="2.12" stroke-linecap="round" stroke-linejoin="round"/>
<path d="M110.739 30.2888C109.893 28.5705 108.505 26.1811 107.665 24.4628" stroke="#E59F8F" stroke-width="2.12" stroke-linecap="round" stroke-linejoin="round"/>
<path d="M107.491 32.4652C106.521 30.8559 105.285 28.0302 104.471 26.6392" stroke="#E59F8F" stroke-width="2.12" stroke-linecap="round" stroke-linejoin="round"/>
<path d="M106.949 42.4857C109.752 41.1274 112.556 39.7745 115.369 38.438C118.059 37.167 120.884 36.1578 123.491 34.7667C123.02 35.0177 129.472 45.0768 130.296 45.9769C133.218 49.1791 138.369 51.5684 142.701 51.1975C145.32 50.9738 147.798 49.9264 149.891 48.3444C152.352 46.4788 153.019 44.4877 154.608 42.0547C158.555 48.9718 158.278 58.1145 153.925 64.7806C149.441 71.6431 139.307 73.8688 131.787 72.3468C123.454 70.6612 115.592 65.8226 111.092 58.4582C108.288 53.8759 106.559 48.5954 104.585 43.6203C105.371 43.2385 106.158 42.8566 106.944 42.4748L106.949 42.4857Z" fill="#FCC383"/>
<path d="M113.223 61.0222C117.208 66.7883 123.117 70.4486 128.572 72.167C134.097 73.9072 140.435 73.4108 145.803 71.3378C150.726 69.4395 154.993 64.8354 157.715 60.5367" stroke="#E2A060" stroke-width="2.12" stroke-linecap="round" stroke-linejoin="round"/>
<path d="M124.977 38.514C128.301 44.4164 132.291 50.6843 139.735 51.1589C144.458 51.459 149.148 49.2278 152.602 46.1075" stroke="#E2A060" stroke-width="2.12" stroke-linecap="round" stroke-linejoin="round"/>
<path d="M128.577 5.42381C127.276 7.56766 127.102 10.2352 127.401 12.7336C129.954 9.92426 133.457 8.22227 136.743 6.32935C136.867 6.25844 136.997 6.17661 137.041 6.04023C137.079 5.92568 137.041 5.80567 137.008 5.69111C136.434 3.92911 135.23 2.23258 133.256 2.38532C131.342 2.53807 129.564 3.79819 128.577 5.42381Z" fill="#4C3A2A"/>
<path d="M148.958 16.7589C148.812 17.8118 147.841 18.5427 146.795 18.3955C145.748 18.2482 145.022 17.2717 145.168 16.2189C145.315 15.166 146.285 14.4351 147.331 14.5823C148.378 14.7296 149.104 15.7061 148.958 16.7589Z" fill="#FFD5C5"/>
<path d="M128.87 13.89C128.724 14.9429 127.753 15.6738 126.707 15.5266C125.66 15.3793 124.934 14.4028 125.08 13.35C125.226 12.2971 126.197 11.5662 127.243 11.7134C128.29 11.8607 129.016 12.8372 128.87 13.89Z" fill="#FFD5C5"/>
<path d="M127.634 11.4352C129.477 7.35481 133.82 4.80182 138.456 5.46734C143.167 6.13832 146.665 9.92415 147.223 14.4573C147.332 15.3465 147.337 16.2575 147.207 17.1849C146.404 22.8527 141.194 26.7913 135.561 25.9894C129.927 25.182 126.013 19.9397 126.81 14.2719C126.951 13.2681 127.238 12.3189 127.639 11.4352H127.634Z" fill="#FFD5C5"/>
<path d="M146.984 15.2047C144.116 14.4847 141.541 12.7827 139.329 10.7043C137.805 9.27504 136.45 7.6767 135.154 6.04563C134.72 5.50012 133.424 4.3491 133.305 3.67812C133.191 3.04533 133.918 2.49982 134.427 2.11796C136.737 0.405066 139.963 0.879659 142.381 2.08523C146.193 3.98906 148.584 8.72953 148.031 13.3009C147.944 14.0264 147.613 14.9374 146.979 15.2047H146.984Z" fill="#4C3A2A"/>
<path d="M137.008 18.3631C135.669 19.225 133.76 19.045 132.6 17.954" stroke="#113B6D" stroke-width="1.62" stroke-linecap="round" stroke-linejoin="round"/>
<path d="M140.977 16.1326C140.581 16.3562 140.185 16.5744 139.79 16.7981" stroke="#F9B29B" stroke-width="5.27" stroke-linecap="round" stroke-linejoin="round"/>
<path d="M130.014 14.6486C129.797 14.7686 129.618 14.8122 129.336 15.1013" stroke="#F9B29B" stroke-width="5.27" stroke-linecap="round" stroke-linejoin="round"/>
<path d="M132.367 10.4752C132.947 10.4043 133.538 10.437 134.107 10.5679" stroke="#113B6D" stroke-width="1.62" stroke-linecap="round" stroke-linejoin="round"/>
<path d="M137.919 11.0974C138.456 11.1138 138.992 11.2338 139.48 11.4629" stroke="#113B6D" stroke-width="1.62" stroke-linecap="round" stroke-linejoin="round"/>
<path d="M136.298 14.0486C136.151 15.0742 136.862 16.0234 137.881 16.1707C138.9 16.318 139.844 15.6033 139.99 14.5778C140.137 13.5522 139.426 12.603 138.407 12.4558C137.388 12.3085 136.444 13.0231 136.298 14.0486Z" stroke="white" stroke-width="1.9" stroke-miterlimit="10"/>
<path d="M130.854 13.2684C130.708 14.2939 131.418 15.2431 132.437 15.3904C133.457 15.5377 134.4 14.8231 134.547 13.7975C134.693 12.772 133.983 11.8228 132.963 11.6755C131.944 11.5282 131.001 12.2428 130.854 13.2684Z" stroke="white" stroke-width="1.9" stroke-miterlimit="10"/>
<path d="M133.722 13.5079C133.668 13.8843 133.321 14.1516 132.947 14.097C132.573 14.0424 132.307 13.6933 132.362 13.3169C132.416 12.9405 132.763 12.6732 133.137 12.7278C133.511 12.7823 133.777 13.1314 133.722 13.5079Z" fill="#113B6D"/>
<path d="M138.407 14.1787C138.353 14.5552 138.006 14.8225 137.632 14.7679C137.258 14.7133 136.992 14.3642 137.046 13.9878C137.1 13.6114 137.447 13.3441 137.821 13.3987C138.196 13.4532 138.461 13.8023 138.407 14.1787Z" fill="#113B6D"/>
<path d="M136.244 13.2952C135.772 13.1206 135.279 13.017 134.78 12.9843" stroke="white" stroke-width="1.9" stroke-miterlimit="10"/>
<path d="M135.17 14.0869C134.194 14.4633 134.107 15.7071 134.01 16.2744C134.509 16.3508 135.002 16.4217 135.501 16.4981" stroke="#113B6D" stroke-width="1.62" stroke-linecap="round" stroke-linejoin="round"/>
<path d="M147.603 94.0801H162.892V110.233H147.603V94.0801Z" stroke="#E2A060" stroke-width="2.12" stroke-linecap="round" stroke-linejoin="round"/>
<path d="M104.146 110.238H116.383V94.0801H106.185" stroke="#E2A060" stroke-width="2.12" stroke-linecap="round" stroke-linejoin="round"/>
<path d="M145.943 76.7109C145.943 77.3818 146.486 77.9274 147.152 77.9274C147.819 77.9274 148.362 77.3818 148.362 76.7109C148.362 76.0399 147.819 75.4944 147.152 75.4944C146.486 75.4944 145.943 76.0399 145.943 76.7109Z" stroke="#E2A060" stroke-width="2.12" stroke-linecap="round" stroke-linejoin="round"/>
<path d="M145.944 88.5045C145.944 89.1754 146.486 89.7209 147.153 89.7209C147.82 89.7209 148.362 89.1754 148.362 88.5045C148.362 87.8335 147.82 87.288 147.153 87.288C146.486 87.288 145.944 87.8335 145.944 88.5045Z" stroke="#E2A060" stroke-width="2.12" stroke-linecap="round" stroke-linejoin="round"/>
<path d="M121.333 75.5598L121.16 77.8619" stroke="#E2A060" stroke-width="2.12" stroke-linecap="round" stroke-linejoin="round"/>
<path d="M120.184 87.2936L120.011 89.5956" stroke="#E2A060" stroke-width="2.12" stroke-linecap="round" stroke-linejoin="round"/>
<path d="M122.879 37.5375L107.589 45.2346" stroke="#E2A060" stroke-width="2.12" stroke-linecap="round" stroke-linejoin="round"/>
<path d="M205.01 195.37L147.543 197.263L166.796 104.614L206.381 102.104L205.01 195.37Z" fill="#8D78BA"/>
<path d="M158.782 33.9052C159.287 33.3488 159.878 32.8033 160.046 32.0669C160.154 31.5923 160.057 31.0959 159.964 30.6158C159.617 28.832 159.27 27.0536 158.923 25.2698C158.864 24.9698 158.799 24.6534 158.614 24.4079C158.419 24.157 158.116 24.0152 157.828 23.8842C156.391 23.2296 154.955 22.5805 153.518 21.9259C153.252 21.8059 152.965 21.6804 152.677 21.7349C152.417 21.784 152.206 21.964 152.005 22.1386C150.303 23.6497 148.654 25.2262 147.071 26.8627C146.534 27.4191 145.987 28.0028 145.737 28.7338C145.537 29.3175 145.548 29.9448 145.553 30.5613C145.596 33.5452 145.634 36.5291 145.678 39.5131C147.304 39.5785 148.936 39.644 150.563 39.7095C151.853 39.764 154.233 40.3422 155.432 39.9113C157.01 39.3385 157.357 35.4927 158.788 33.9107L158.782 33.9052Z" fill="#FFD5C5"/>
<path d="M157.384 24.6973C157.112 26.8357 156.641 28.9468 155.99 30.9979" stroke="#E59F8F" stroke-width="2.12" stroke-linecap="round" stroke-linejoin="round"/>
<path d="M153.415 24.9805C154.402 25.3514 155.334 25.8587 156.18 26.4861" stroke="#E59F8F" stroke-width="2.12" stroke-linecap="round" stroke-linejoin="round"/>
<path d="M152.368 26.77C153.225 27.321 154.087 27.8719 154.944 28.4229C155.231 28.6029 155.513 28.7884 155.779 28.9957" stroke="#E59F8F" stroke-width="2.12" stroke-linecap="round" stroke-linejoin="round"/>
<path d="M155.909 31.4613C154.504 32.045 153.252 33.0051 152.33 34.2161" stroke="#E59F8F" stroke-width="2.12" stroke-linecap="round" stroke-linejoin="round"/>
<path d="M154.282 31.5489C153.29 30.9979 152.298 30.447 151.311 29.896" stroke="#E59F8F" stroke-width="2.12" stroke-linecap="round" stroke-linejoin="round"/>
<path d="M178.719 58.3437C178.621 58.0328 178.502 57.7273 178.361 57.4273C176.019 52.4577 173.644 47.3681 173.069 41.8966C176.859 41.673 180.638 41.5366 184.406 41.0347C185.67 40.8656 186.928 40.6692 188.18 40.4347C188.744 40.331 189.416 40.3474 189.947 40.2274C190.441 40.1183 190.81 39.8073 191.303 39.6709C191.975 39.4855 192.61 40.0255 193.119 40.5056C196.578 43.7786 200.385 47.3244 205.194 48.2027C208.442 48.7973 211.787 48.7155 215.002 49.4519C219.307 50.4393 223.341 53.0032 225.634 56.7999C227.933 60.5967 228.286 65.6426 226.101 69.4994C225.038 71.3814 223.444 72.9143 221.687 74.1635C214.812 79.0676 205.617 79.6513 197.419 77.6875C192.897 76.6019 188.473 74.7581 184.976 71.676C182.953 69.8921 181.262 67.6719 180.194 65.179C179.234 62.9533 179.424 60.5258 178.719 58.3383V58.3437Z" fill="#4C3A2A"/>
<path d="M181.636 74.24C180.448 67.5084 179.397 60.7168 178.486 53.8761C180.866 52.005 183.143 50.8213 185.854 50.5867C187.161 50.4722 188.467 50.6522 189.763 50.8977C190.549 51.0449 191.33 51.2522 192.105 51.5032C191.406 59.2439 190.463 66.9247 189.297 74.5291" fill="white"/>
<path d="M134.59 36.3385C141.747 36.3876 151.045 36.5512 158.869 36.5512C157.861 44.3902 171.811 50.189 173.866 51.3782C174.945 52.0055 176.122 53.0693 177.45 53.0584C177.775 53.0584 178.074 52.9056 178.361 52.7583C178.404 52.7365 178.442 52.7201 178.486 52.6983C180.313 61.5738 182.709 70.3346 185.67 78.8991C188.635 69.8764 190.788 60.5809 192.105 51.1709C198.585 52.5128 204.646 56.0532 209.678 60.2154C215.143 64.7377 220.25 69.9964 223.064 76.5316C224.528 79.9247 225.287 83.6941 225.108 87.4091C225.043 90.7258 224.517 93.5133 222.913 96.6391C221.221 99.934 218.787 102.787 216.168 105.4C214.883 106.682 213.636 107.718 212.275 108.618C211.234 109.306 210.122 109.917 208.875 110.49C205.996 111.815 202.938 112.753 199.815 113.277C193.857 114.275 187.865 113.724 181.874 113.141C182.037 111.935 182.167 111.122 182.33 109.917C180.378 109.748 164.616 107.222 161.32 106.655C163.418 94.5661 166.124 82.9577 168.813 70.9892C163.375 69.6527 157.823 66.4506 153.263 63.1776C146.231 58.1261 139.974 51.2145 136.629 43.1956C134.525 38.1605 134.34 36.3494 134.579 36.3494L134.59 36.3385Z" fill="#9DB3F9"/>
<path d="M180.443 33.6544C180.388 33.7198 182.666 35.2527 182.872 35.3782C183.88 35.9892 184.943 36.5019 186.043 36.9111C187.947 37.6202 189.964 38.0185 191.991 38.0839C192.295 38.8531 192.517 39.6768 192.615 40.5387C193.222 45.8192 189.465 50.5924 184.216 51.2034C178.968 51.8144 174.224 48.034 173.616 42.7535C173.508 41.8152 173.546 40.8987 173.698 40.0096C176.349 38.5312 178.469 36.0437 180.443 33.6489V33.6544Z" fill="#FFD5C5"/>
<path d="M182.503 36.7529C182.324 36.5893 180.388 33.7199 180.443 33.6544C178.474 36.0492 176.349 38.5367 173.698 40.0151C174.397 35.9128 177.699 32.5961 182.015 32.0888C186.401 31.576 190.43 34.1454 191.991 38.084C189.963 38.0185 186.548 39.2513 184.645 38.5422C183.544 38.133 183.452 37.6257 182.497 36.7529H182.503Z" fill="#4C3A2A"/>
<path d="M194.095 39.7424C194.209 40.7243 193.51 41.608 192.539 41.7226C191.563 41.8371 190.685 41.1334 190.571 40.157C190.457 39.1751 191.157 38.2913 192.127 38.1768C193.103 38.0622 193.981 38.7659 194.095 39.7424Z" fill="#FFD5C5"/>
<path d="M175.384 41.93C175.498 42.9119 174.799 43.7956 173.828 43.9102C172.852 44.0248 171.974 43.3211 171.86 42.3446C171.746 41.3627 172.446 40.479 173.416 40.3644C174.392 40.2498 175.27 40.9535 175.384 41.93Z" fill="#FFD5C5"/>
<path d="M176.946 39.3557C177.423 39.1703 177.933 39.0612 178.442 39.0448" stroke="#113B6D" stroke-width="1.42" stroke-linecap="round" stroke-linejoin="round"/>
<path d="M181.799 38.6348C182.259 38.5263 182.742 38.51 183.208 38.5968" stroke="#113B6D" stroke-width="1.42" stroke-linecap="round" stroke-linejoin="round"/>
<path d="M178.735 40.8992C178.773 41.2319 178.535 41.532 178.204 41.5702C177.873 41.6083 177.575 41.3683 177.537 41.0356C177.499 40.7028 177.738 40.4028 178.068 40.3646C178.399 40.3264 178.697 40.5664 178.735 40.8992Z" fill="#113B6D"/>
<path d="M182.861 40.4188C182.899 40.7516 182.661 41.0516 182.33 41.0898C181.999 41.128 181.701 40.888 181.663 40.5552C181.625 40.2225 181.864 39.9224 182.194 39.8842C182.525 39.8461 182.823 40.0861 182.861 40.4188Z" fill="#113B6D"/>
<path d="M180.096 41.068C179.353 41.608 179.554 42.6827 179.592 43.1846C180.031 43.1355 180.47 43.0864 180.909 43.0373" stroke="#113B6D" stroke-width="1.42" stroke-linecap="round" stroke-linejoin="round"/>
<path d="M184.522 55.8376L184.921 55.7911C187.118 55.5345 188.699 53.5321 188.444 51.3159L187.978 47.2843L179.614 48.261L180.079 52.2925C180.334 54.5034 182.325 56.0942 184.527 55.837L184.522 55.8376Z" fill="#FFD5C5"/>
<path d="M178.865 44.6412C179.754 44.903 181.029 44.8376 181.907 44.5539C182.2 44.4612 182.52 44.3194 182.623 44.0248C182.715 44.543 182.693 45.3176 182.536 45.8195C182.292 46.5996 181.424 47.1014 180.617 46.9923C179.809 46.8832 179.342 46.3214 179.142 45.5304" stroke="#113B6D" stroke-width="1.42" stroke-linecap="round" stroke-linejoin="round"/>
<path d="M198.866 70.6453C202.179 74.9002 204.158 83.0338 204.532 88.4289" stroke="#7A99E5" stroke-width="2.12" stroke-linecap="round" stroke-linejoin="round"/>
<path d="M182.818 93.6658C190.744 93.6548 203.166 91.3855 208.376 86.1432" stroke="#7A99E5" stroke-width="2.12" stroke-linecap="round" stroke-linejoin="round"/>
<path d="M167.333 80.4211L183.186 96.781L182.991 97.1955L149.495 99.203L148.302 98.4066L132.502 82.6086L167.333 80.4211Z" fill="#4263CE"/>
<path d="M170.098 77.7484L183.777 95.7502L183.582 96.1703L150.042 98.5978L149.223 97.8886L135.267 79.9359L170.098 77.7484Z" fill="#CCCCCC"/>
<path d="M150.042 98.5642C153.621 98.1442 157.958 96.9331 161.569 96.7204C167.49 96.3658 173.416 96.0112 179.337 95.6566C179.76 95.6294 183.989 95.7439 184.168 95.3675L184.363 94.9475L170.683 76.9457L136.634 78.2167C139.404 79.826 141.459 81.6916 143.747 84.2882C144.978 85.6847 146.561 87.6486 147.472 89.5415C148.763 92.2254 150.411 98.5206 150.042 98.5642Z" fill="#E6E6E6"/>
<path d="M152.835 98.0627C155.968 98.0518 158.213 97.5936 161.336 97.3208C163.38 97.1408 165.419 96.9008 167.457 96.6662C170.526 96.3116 173.595 95.9516 176.664 95.597C178.166 95.4225 179.668 95.2479 181.169 95.0733C181.945 94.9861 182.644 94.4733 182.975 93.7041C182.351 89.5037 182.27 85.3469 179.575 81.7247C177.829 79.379 175.943 76.8424 172.776 74.7804L139.236 76.2315C142.294 77.3988 146.214 81.4847 147.933 84.5614C150.021 88.2872 150.709 93.3004 150.162 98.521C150.704 98.5264 152.292 98.0736 152.835 98.0736V98.0627Z" fill="#F2F2F2"/>
<path d="M194.67 80.8304L183.013 96.1702L150.102 98.5704L161.347 82.9252L194.67 80.8304Z" fill="#F2F2F2"/>
<path d="M196.806 83.476L184 96.4154L150.709 98.5102L163.478 85.5707L196.806 83.476Z" fill="#E6E6E6"/>
<path d="M197.75 86.3888L183.089 97.2172L149.858 98.9573L164.427 88.4835L197.75 86.3888Z" fill="#4263CE"/>
<path d="M177.835 95.1608C177.483 94.7626 177.108 94.3916 176.68 94.0807C175.715 93.3824 174.36 93.0551 173.34 93.6661C173.129 93.7915 172.934 93.9661 172.847 94.1952C172.728 94.5171 172.841 94.8717 172.977 95.1881C173.243 95.8045 173.6 96.3827 174.007 96.9119C174.766 97.8992 173.15 97.8556 172.348 97.9047C168.862 98.1283 165.581 98.3138 162.014 98.5157C162.475 99.2903 163.771 100.78 164.145 101.069C165.126 101.827 166.281 102.247 167.468 102.552C172.288 103.78 177.775 103.583 182.736 103.272C182.595 101.352 182.568 97.2555 182.368 97.2446C181.625 97.2173 180.887 97.1901 180.145 97.1628C179.939 97.1573 179.722 97.1464 179.532 97.0537C179.364 96.9719 179.234 96.8246 179.109 96.6827C178.675 96.1809 178.274 95.6517 177.83 95.1553L177.835 95.1608Z" fill="#FFD5C5"/>
<path d="M163.185 99.3225C166.367 100.539 169.816 101.063 173.215 100.855" stroke="#E59F8F" stroke-width="2.12" stroke-linecap="round" stroke-linejoin="round"/>
<path d="M173.85 96.6714C174.484 97.6315 175.124 98.5916 175.759 99.5571" stroke="#E59F8F" stroke-width="2.12" stroke-linecap="round" stroke-linejoin="round"/>
<path d="M156.619 38.9242C150.617 39.1533 143.363 38.8096 136.905 39.0388" stroke="#7A99E5" stroke-width="2.12" stroke-linecap="round" stroke-linejoin="round"/>
<path d="M185.062 98.3403C185.23 102.71 185.165 107.09 184.883 111.454" stroke="#7A99E5" stroke-width="2.12" stroke-linecap="round" stroke-linejoin="round"/>
<path d="M185.859 41.1605C185.67 41.4387 185.48 41.7169 185.29 41.9952" stroke="#F9B29B" stroke-width="4.24" stroke-linecap="round" stroke-linejoin="round"/>
<path d="M176.133 42.197C176.068 42.3934 175.954 42.568 175.807 42.7098" stroke="#F9B29B" stroke-width="4.24" stroke-linecap="round" stroke-linejoin="round"/>
<path d="M112.344 191.137H135.794L133.755 121.541H109.628L112.344 191.137Z" fill="#896E55"/>
<path d="M88.7261 191.137H109.627L112.854 121.541H88.7261V191.137Z" fill="#896E55"/>
<path d="M63.227 10.7969C62.9613 11.5279 62.7499 12.2807 62.5601 13.0008C61.6058 12.4007 60.6624 11.8007 59.7733 11.1188C59.2256 10.6933 58.575 10.2678 57.8918 10.6878C57.3442 10.9442 56.8617 11.3425 56.5526 11.8661C56.2544 12.3789 56.4442 13.1754 56.1406 13.59C55.8641 13.9718 55.1375 14.0209 54.8068 14.4464C54.3893 14.9755 54.3676 15.7011 54.617 16.3175C54.8827 16.9721 55.3978 17.4849 55.8966 17.9813C54.9694 17.3212 53.4893 17.714 53.0013 18.745C52.5133 19.776 53.1531 21.178 54.2483 21.4835C53.3266 20.9871 51.9169 21.4235 51.4018 22.3508C50.6753 23.6601 52.0633 25.0238 53.088 25.6566C54.3297 26.4203 54.9857 26.9386 55.6418 28.3405C56.8075 30.8444 57.9786 33.3537 59.1443 35.8576C59.3666 36.3377 70.4056 33.261 70.2755 32.0391C69.9285 28.7333 69.4622 25.4384 68.8658 22.1708C68.3073 19.1105 67.2771 16.1484 67.7109 13.0281C67.8193 12.2316 68.1772 11.4952 68.4916 10.7588C68.8061 10.0223 69.0881 9.23679 69.0393 8.43489C68.985 7.633 68.5188 6.80928 67.7543 6.56925C67.2392 6.41106 66.6753 6.53652 66.2036 6.80382C64.6801 7.66573 63.8126 9.18224 63.2216 10.8079L63.227 10.7969Z" fill="#FFD5C5"/>
<path d="M57.16 14.4738C58.3854 15.2102 58.7649 15.603 59.9632 16.2521C60.6463 16.6176 61.4867 17.354 62.2404 17.1795C62.7229 17.0704 63.1241 16.6722 63.2651 16.1921C63.4061 15.7175 63.2976 15.1775 63.0048 14.7738" stroke="#E59F8F" stroke-width="2.12" stroke-linecap="round" stroke-linejoin="round"/>
<path d="M55.4575 17.8613C56.4876 18.5159 58.7703 19.7324 59.8384 20.3161" stroke="#E59F8F" stroke-width="2.12" stroke-linecap="round" stroke-linejoin="round"/>
<path d="M53.2183 21.3799C54.5629 22.1054 55.9509 23.3437 57.5395 23.4855C58.1251 23.5401 58.7757 23.2783 59.0034 22.7382" stroke="#E59F8F" stroke-width="2.12" stroke-linecap="round" stroke-linejoin="round"/>
<path d="M53.5055 25.362C54.091 25.6566 54.7037 25.9076 55.3381 26.0985C55.6146 26.1858 55.9074 26.2567 56.1947 26.2294C56.6664 26.1803 57.0839 25.853 57.29 25.4221C57.496 24.9911 57.4906 24.4783 57.3333 24.031" stroke="#E59F8F" stroke-width="2.12" stroke-linecap="round" stroke-linejoin="round"/>
<path d="M99.928 82.548C77.3945 78.6585 57.2956 53.8324 48.9947 34.3904C53.7226 31.952 63.3573 26.5296 70.9154 22.6947C74.4559 29.7427 76.7981 34.1668 79.5525 38.4599C83.3098 44.3187 87.4955 49.9374 92.4566 54.8525C97.6996 60.0403 103.149 62.3969 109.877 65.179C110.083 65.2662 110.305 65.359 110.436 65.5444C110.582 65.7517 110.587 66.0245 110.587 66.2809C110.566 71.3323 110.311 76.3837 109.839 81.4188C109.796 81.8661 109.731 82.3516 109.405 82.6516C109.113 82.9189 108.69 82.9625 108.299 82.9898C105.485 83.1917 102.688 83.028 99.928 82.548Z" fill="#A8BF45"/>
<path d="M85.923 125.13C86.3243 114.449 87.5821 102.459 90.0383 92.1107C91.3395 86.6174 92.6679 81.0641 95.1674 76.089C97.5422 71.3595 100.557 67.3718 104.694 65.168C106.266 73.1597 108.456 84.6972 110.69 90.7305C113.266 84.419 116.21 72.2105 117.793 64.257C131.277 68.6538 143.01 81.806 149.457 94.0527C151.311 97.5767 154.212 103.408 151.908 107.238C149.603 111.067 145.184 112.993 141.14 114.771C140.386 115.104 139.643 115.431 138.928 115.764C138.792 115.829 138.651 115.895 138.553 116.015C138.391 116.217 138.407 116.5 138.429 116.757C138.667 119.501 138.955 122.245 139.285 124.983L85.9285 125.136L85.923 125.13Z" fill="#A8BF45"/>
<path d="M103.148 66.5428C102.281 67.8957 101.495 69.2977 100.79 70.7378C101.923 71.447 103.034 72.1943 104.119 72.9799C102.926 74.7473 101.89 76.602 100.698 78.364C101.581 79.3569 102.303 80.4861 103.018 81.6043C105.453 85.412 107.871 89.2306 110.273 93.06" stroke="#99AD21" stroke-width="2.23" stroke-linecap="round" stroke-linejoin="round"/>
<path d="M119.729 65.9642C120.564 67.2462 121.263 68.6209 121.811 70.0556C120.515 70.9666 119.219 71.8776 117.923 72.7831C119.1 74.4742 120.108 76.2853 120.927 78.1782C118.406 81.7622 114.648 87.9428 111.71 92.1378" stroke="#99AD21" stroke-width="2.23" stroke-linecap="round" stroke-linejoin="round"/>
<path d="M113.569 71.273C112.751 70.0837 111.932 68.8945 111.119 67.7053C110.191 68.4145 109.438 69.3091 108.912 70.3565C109.226 71.0547 109.541 71.7585 109.85 72.4567C109.92 72.6095 109.985 72.7676 109.996 72.9368C110.002 73.1168 109.942 73.2913 109.877 73.455C109.123 75.4679 108.375 77.4754 107.622 79.4883C108.592 83.8306 109.638 87.8946 110.685 90.7367C111.937 87.66 113.277 83.1923 114.507 78.4955C113.905 76.6899 113.201 74.917 112.387 73.1986C112.848 72.604 113.249 71.9603 113.569 71.2784V71.273Z" fill="#113B6D"/>
<path d="M112.404 63.3245C109.46 63.3136 106.911 63.9845 104.688 65.1737C105.518 69.4014 106.526 74.6165 107.616 79.4879C108.37 77.475 109.118 75.4675 109.872 73.4546C109.937 73.2855 109.996 73.1164 109.991 72.9363C109.986 72.7672 109.915 72.609 109.845 72.4563C109.53 71.758 109.216 71.0543 108.907 70.3561C109.433 69.3087 110.186 68.4141 111.113 67.7049C111.932 68.8941 112.751 70.0833 113.564 71.2725C113.244 71.9544 112.848 72.5981 112.382 73.1927C113.195 74.9111 113.9 76.684 114.502 78.4896C115.798 73.5419 116.969 68.3377 117.782 64.2573C115.988 63.6736 114.182 63.3299 112.398 63.3245H112.404Z" fill="white"/>
<path d="M111.287 67.1313C109.102 67.0876 107.367 65.2656 107.41 63.0672L107.486 59.4396L115.402 59.6087L115.326 63.2363C115.283 65.4347 113.472 67.1803 111.287 67.1367V67.1313Z" fill="#FFD5C5"/>
<path d="M101.63 120.526C101.451 115.556 101.267 110.581 101.088 105.612C97.4607 105.53 93.8389 105.453 90.2116 105.372C90.5586 110.183 90.2496 115.382 90.1303 120.209C93.8009 120.329 97.9649 120.335 101.63 120.526Z" stroke="#99AD21" stroke-width="2.23" stroke-linecap="round" stroke-linejoin="round"/>
<path d="M62.137 17.4689C60.5158 19.64 60.0278 23.0331 60.1959 25.1715" stroke="#E59F8F" stroke-width="2.12" stroke-linecap="round" stroke-linejoin="round"/>
<path d="M118.915 117.433C124.793 117.558 130.675 117.269 136.515 116.582" stroke="#99AD21" stroke-width="2.23" stroke-linecap="round" stroke-linejoin="round"/>
<path d="M133.348 117.247L133.256 120.82C129.293 120.684 125.324 120.619 121.361 120.613C121.312 119.637 121.355 118.655 121.491 117.684" stroke="#99AD21" stroke-width="2.23" stroke-linecap="round" stroke-linejoin="round"/>
<path d="M128.864 86.8246C130.052 89.9885 130.963 93.2561 131.575 96.5783" stroke="#99AD21" stroke-width="2.23" stroke-linecap="round" stroke-linejoin="round"/>
<path d="M111.184 91.5L127.238 108.656L127.037 109.098L92.131 112.038L90.8677 111.237L74.884 94.664L111.184 91.5Z" fill="#4263CE"/>
<path d="M113.098 89.1263L127.823 107.57L127.628 108.006L92.6896 111.389L91.8167 110.674L76.798 92.2903L113.098 89.1263Z" fill="#E6E6E6"/>
<path d="M92.6894 111.362C96.4143 110.832 100.909 109.458 104.672 109.141C110.842 108.623 117.017 108.099 123.188 107.581C123.627 107.543 128.046 107.554 128.219 107.156L128.414 106.714L113.688 88.2701L78.1804 90.4576C81.1082 92.0669 83.3041 93.9598 85.7603 96.6164C87.0832 98.0457 88.7857 100.048 89.7779 102.001C91.1876 104.766 93.0744 111.296 92.684 111.351L92.6894 111.362Z" fill="#F2F2F2"/>
<path d="M95.5849 110.762C98.8543 110.669 101.186 110.14 104.439 109.769C106.57 109.529 108.69 109.229 110.815 108.929C114.009 108.481 117.202 108.029 120.396 107.581C121.957 107.363 123.524 107.139 125.085 106.921C125.893 106.807 126.609 106.256 126.934 105.443C126.181 101.073 125.991 96.742 123.085 93.027C121.203 90.6213 119.17 88.0247 115.814 85.9518L80.8482 88.3138C84.0688 89.454 88.2599 93.6216 90.1305 96.7856C92.4023 100.621 93.2481 105.836 92.8035 111.302C93.3674 111.296 95.0156 110.778 95.5849 110.762Z" fill="white"/>
<path d="M141.047 94.6362L127.032 108.023L92.7491 111.362L106.32 97.6693L141.047 94.6362Z" fill="#F2F2F2"/>
<path d="M142.029 97.2761L128.073 108.252L93.3781 111.285L107.302 100.309L142.029 97.2761Z" fill="#E6E6E6"/>
<path d="M144.17 99.988L127.14 109.114L92.5052 111.776L109.443 103.021L144.17 99.988Z" fill="#4263CE"/>
<path d="M114.117 107.658C113.737 107.254 113.342 106.872 112.881 106.561C111.856 105.858 110.435 105.547 109.384 106.212C109.167 106.349 108.966 106.534 108.885 106.774C108.765 107.112 108.896 107.483 109.042 107.805C109.335 108.443 109.72 109.033 110.159 109.578C110.972 110.593 109.286 110.582 108.451 110.658C104.818 110.98 101.397 111.253 97.6831 111.553C98.1819 112.349 99.5699 113.871 99.9711 114.166C101.012 114.935 102.227 115.344 103.474 115.628C108.538 116.79 113.808 116.348 118.98 115.895C118.98 115.41 119.1 109.714 118.894 109.709C118.118 109.698 117.348 109.693 116.573 109.682C116.356 109.682 116.128 109.676 115.933 109.584C115.754 109.502 115.613 109.354 115.483 109.207C115.017 108.694 114.583 108.149 114.111 107.647L114.117 107.658Z" fill="#FFD5C5"/>
<path d="M70.7146 26.1533L52.0253 36.2398" stroke="#99AD21" stroke-width="2.23" stroke-linecap="round" stroke-linejoin="round"/>
<path d="M110.419 110.238C110.875 110.805 111.33 111.367 111.785 111.934" stroke="#E59F8F" stroke-width="2.12" stroke-linecap="round" stroke-linejoin="round"/>
<path d="M109.118 113.62C106.369 113.544 103.642 112.96 101.099 111.902" stroke="#E59F8F" stroke-width="2.12" stroke-linecap="round" stroke-linejoin="round"/>
<path d="M123.182 53.7339C123.085 54.7322 122.206 55.4577 121.214 55.365C120.222 55.2668 119.495 54.3831 119.593 53.3848C119.691 52.3865 120.569 51.6555 121.561 51.7537C122.553 51.8519 123.28 52.7356 123.182 53.7339Z" fill="#FFD5C5"/>
<path d="M104.135 51.8631C104.038 52.8613 103.159 53.5869 102.167 53.4941C101.175 53.3959 100.448 52.5122 100.546 51.5139C100.644 50.5157 101.522 49.7847 102.514 49.8829C103.506 49.9811 104.233 50.8648 104.135 51.8631Z" fill="#FFD5C5"/>
<path d="M102.872 49.5993C104.439 45.6825 108.429 43.0968 112.821 43.5278C117.289 43.9642 120.737 47.3845 121.447 51.634C121.588 52.4687 121.632 53.3251 121.545 54.2088C121.024 59.5821 116.275 63.5098 110.934 62.9861C105.594 62.4624 101.69 57.6837 102.21 52.3105C102.303 51.3558 102.536 50.4503 102.872 49.6047V49.5993Z" fill="#FFD5C5"/>
<path d="M107.963 51.0335C107.93 51.3718 107.632 51.6227 107.291 51.59C106.949 51.5572 106.705 51.2572 106.738 50.9135C106.77 50.5753 107.068 50.3244 107.41 50.3571C107.746 50.3898 107.995 50.6899 107.963 51.0335Z" fill="#113B6D"/>
<path d="M112.16 51.4485C112.127 51.7867 111.829 52.0376 111.487 52.0049C111.151 51.9722 110.902 51.6721 110.934 51.3285C110.967 50.9902 111.265 50.7393 111.607 50.772C111.943 50.8048 112.192 51.1048 112.16 51.4485Z" fill="#113B6D"/>
<path d="M109.319 51.3832C108.467 51.7596 108.435 52.8724 108.37 53.3797C108.814 53.4288 109.264 53.4725 109.709 53.5216" stroke="#113B6D" stroke-width="1.45" stroke-linecap="round" stroke-linejoin="round"/>
<path d="M106.673 49.3369C107.188 49.2555 107.714 49.2555 108.223 49.3532" stroke="#113B6D" stroke-width="1.45" stroke-linecap="round" stroke-linejoin="round"/>
<path d="M111.195 49.7131C111.677 49.7022 112.16 49.795 112.604 49.975" stroke="#113B6D" stroke-width="1.45" stroke-linecap="round" stroke-linejoin="round"/>
<path d="M107.454 54.5521C107.996 54.9613 108.711 55.0322 109.384 55.0867C109.812 55.1249 110.278 55.1522 110.636 54.9122C110.371 55.594 109.996 56.3414 109.221 56.4832C108.5 56.6141 107.817 56.2705 107.567 55.5504" stroke="#113B6D" stroke-width="1.45" stroke-linecap="round" stroke-linejoin="round"/>
<path d="M118.639 43.7402C120.032 45.1367 121.848 47.8533 120.276 49.228C119.712 49.7244 118.823 49.5935 118.183 49.2008C117.549 48.808 117.066 48.2025 116.492 47.7279C115.358 48.7916 113.239 48.4043 112.545 47.0078C112.333 47.4551 111.986 47.8533 111.504 48.0006C111.189 48.0988 110.853 48.1043 110.528 48.1043C109.953 48.1043 109.346 48.0606 108.868 47.7442C108.451 47.4715 108.18 47.0242 107.93 46.5878C108.185 47.0296 106.38 47.6515 106.103 47.6188C105.436 47.5315 104.363 46.7296 104.227 46.0368C104.141 45.5786 104.222 45.104 104.379 44.6676C105.019 42.8674 106.862 41.8582 108.608 41.3945C111.932 40.5053 116.139 41.2363 118.639 43.7402Z" fill="#4C3A2A"/>
<path d="M110.137 134.66L110.815 144.234" stroke="#705742" stroke-width="2.12" stroke-linecap="round" stroke-linejoin="round"/>
<path d="M125.893 127.498C127.357 131.578 129.689 135.348 132.681 138.474" stroke="#705742" stroke-width="2.12" stroke-linecap="round" stroke-linejoin="round"/>
<path d="M114.415 52.8335L113.775 53.2754" stroke="#F9B29B" stroke-width="4.24" stroke-linecap="round" stroke-linejoin="round"/>
<path d="M105.106 51.7971C104.959 51.928 104.808 52.0535 104.661 52.1844" stroke="#F9B29B" stroke-width="4.24" stroke-linecap="round" stroke-linejoin="round"/>
<path d="M262.276 153.339H286.799C291.771 153.339 295.799 149.286 295.799 144.284C295.799 139.281 291.771 135.228 286.799 135.228H262.276C261.983 135.228 262.449 137.519 262.693 137.738C263.024 138.038 263.452 138.201 263.87 138.354C264.96 138.741 266.011 139.265 266.819 140.127C268.283 141.693 268.023 144.36 267.334 146.248C266.499 148.528 264.829 149.962 262.509 150.312C262.335 151.337 262.281 152.292 262.281 153.345L262.276 153.339Z" fill="#7188EA"/>
<path d="M268.007 151.981C270.403 150.355 271.976 147.595 271.976 144.469C271.976 141.769 270.804 139.347 268.939 137.689" stroke="#5976D3" stroke-width="2.08" stroke-linecap="round" stroke-linejoin="round"/>
<path d="M191.927 151.414C192.751 151.621 193.738 151.37 194.567 151.37H258.871C261.175 151.37 263.111 151.621 265.068 150.094C266.093 149.292 267.09 148.403 267.714 147.263C268.771 145.331 268.609 142.838 267.459 140.962C267.204 140.547 266.901 140.16 266.564 139.805C264.135 137.247 261.061 137.192 257.862 137.192H197.148C195.5 137.192 193.597 136.931 191.981 137.214C192.491 137.951 193.298 138.523 193.83 139.282C194.377 140.067 194.811 140.929 195.093 141.84C195.651 143.646 195.592 145.67 194.789 147.383C194.068 148.921 192.816 150.132 191.58 151.299C191.688 151.348 191.802 151.387 191.916 151.414H191.927Z" fill="#E6E6E6"/>
<path d="M191.515 153.339H261.349C266.315 153.339 270.349 149.275 270.349 144.284C270.349 139.292 266.31 135.228 261.349 135.228H191.515C190.436 135.228 189.557 136.107 189.557 137.198C189.557 138.289 190.43 139.167 191.515 139.167H261.349C264.157 139.167 266.44 141.463 266.44 144.289C266.44 147.115 264.157 149.412 261.349 149.412H191.515C190.436 149.412 189.557 150.29 189.557 151.381C189.557 152.472 190.43 153.35 191.515 153.35V153.339Z" fill="#7188EA"/>
<path d="M251.915 142.118H240.897" stroke="#C5C5C5" stroke-width="1.85" stroke-linecap="round" stroke-linejoin="round"/>
<path d="M221.498 146.384H199.696" stroke="#C5C5C5" stroke-width="1.85" stroke-linecap="round" stroke-linejoin="round"/>
<path d="M280 155.352C277.663 155.739 276.162 157.954 275.603 160.136C275.159 161.871 275.31 163.753 276.037 165.389C276.433 166.279 277.067 167.473 277.886 168.041C278.179 168.248 278.547 168.346 278.862 168.526C279.068 168.646 280.195 169.508 280.385 169.421C279.8 169.683 278.683 169.481 278.021 169.481H257.792C256.019 169.481 254.246 169.513 252.473 169.481C251.183 169.459 250.077 169.055 249.269 167.986C248.559 167.042 248.239 165.859 248.076 164.691C247.686 161.838 248.19 158.794 249.827 156.427C250.077 156.067 250.359 155.712 250.738 155.499C251.731 154.932 253.368 155.303 254.469 155.303H278.233C278.862 155.303 279.469 155.352 280.098 155.341C280.065 155.341 280.027 155.341 279.995 155.352H280Z" fill="#E6E6E6"/>
<path d="M280.689 171.456H185.876C180.91 171.456 176.876 167.392 176.876 162.4C176.876 157.409 180.915 153.345 185.876 153.345H280.689C281.768 153.345 282.646 154.223 282.646 155.314C282.646 156.405 281.773 157.283 280.689 157.283H185.876C183.067 157.283 180.785 159.58 180.785 162.406C180.785 165.231 183.067 167.528 185.876 167.528H280.689C281.768 167.528 282.646 168.406 282.646 169.497C282.646 170.588 281.773 171.467 280.689 171.467V171.456Z" fill="#4263CE"/>
<path d="M203.958 118.039C209.873 115.502 216.407 114.924 222.815 114.411C223.742 114.335 224.718 114.269 225.57 114.646C226.513 115.06 227.158 115.955 227.695 116.839C229.636 120.03 232.309 125.583 232.108 129.429C231.935 132.746 225.293 133.559 222.495 134.388C213.793 136.962 204.695 138.092 195.912 135.217C195.451 135.064 194.968 134.884 194.676 134.491C194.345 134.049 194.34 133.455 194.367 132.904C194.708 125.741 197.338 120.875 203.953 118.033L203.958 118.039Z" fill="white"/>
<path d="M197.755 134.3C197.75 132.833 198.026 131.371 198.525 129.991C200.33 124.994 204.955 121.448 209.938 119.675C214.921 117.902 220.288 117.646 225.569 117.433" stroke="#ECECEC" stroke-width="2.12" stroke-linecap="round" stroke-linejoin="round"/>
<path d="M206.278 123.319C210.101 126.194 211.684 131.229 212.047 136.018" stroke="#ECECEC" stroke-width="2.12" stroke-linecap="round" stroke-linejoin="round"/>
<path d="M212.953 126.641C214.064 129.232 214.872 131.949 215.354 134.731" stroke="#ECECEC" stroke-width="2.12" stroke-linecap="round" stroke-linejoin="round"/>
<path d="M215.181 125.938C216.135 128.665 216.905 131.458 217.485 134.284" stroke="#ECECEC" stroke-width="2.12" stroke-linecap="round" stroke-linejoin="round"/>
<path d="M217.512 125.72C218.304 128.365 219.101 131.006 219.893 133.651" stroke="#ECECEC" stroke-width="2.12" stroke-linecap="round" stroke-linejoin="round"/>
<path d="M219.795 125.049C220.733 127.738 221.535 130.476 222.197 133.248" stroke="#ECECEC" stroke-width="2.12" stroke-linecap="round" stroke-linejoin="round"/>
<path d="M240.566 134.917C240.903 130.678 240.821 126.407 240.339 122.184C237.91 122.223 235.481 122.261 233.057 122.299C231.853 122.315 230.601 122.348 229.533 122.91C228.627 123.384 227.95 124.203 227.353 125.037C225.423 127.738 224.084 130.874 223.466 134.142C228.942 134.415 235.079 134.818 240.566 134.917Z" fill="#FFD5C5"/>
<path d="M285.753 102.389C288.008 103.905 289.873 106.229 290.188 108.935C290.421 110.942 289.792 112.939 289.157 114.853C287.591 119.599 285.931 124.318 284.186 129.004C282.407 133.772 280.168 139.161 274.985 140.651C265.334 143.433 259.088 142.369 249.767 138.578C234.895 132.528 220.023 126.484 205.151 120.434C203.54 114.362 203.486 107.424 203.117 101.188C202.895 97.4571 202.667 93.6549 202.987 89.9236C203.069 88.9854 203.041 87.4689 203.595 86.6506C205.167 84.3322 210.106 85.7178 212.345 86.0342C217.193 86.7161 222.034 87.4361 226.876 88.1398C231.002 88.1398 235.492 89.3891 239.585 89.9782C243.017 90.4746 246.444 90.9874 249.876 91.4838C252.641 91.882 255.401 91.6093 258.047 92.4712C264.813 94.675 271.515 97.0644 278.292 99.2246C280.585 99.9556 282.911 100.692 284.977 101.903C285.243 102.056 285.498 102.219 285.753 102.389Z" fill="#896E55"/>
<path d="M251.551 129.097C251.589 131.89 251.632 134.683 251.67 137.47" stroke="#113B6D" stroke-width="1.6" stroke-linecap="round" stroke-linejoin="round"/>
<path d="M260.221 140.765C254.967 139.963 249.583 139.117 244.964 136.482C245.593 131.447 247.181 126.538 249.61 122.092C252.901 122.948 256.198 123.805 259.489 124.656C260.72 124.978 261.343 125.196 262.542 125.616C261.734 130.705 261.029 135.67 260.221 140.759V140.765Z" fill="#FFD5C5"/>
<path d="M278.048 139.963C277.793 140.394 277.516 140.809 277.218 141.213C276.519 142.145 275.7 143.002 274.713 143.607C270.744 146.057 265.534 144.518 261.484 143.1C257.309 141.638 251.632 139.952 249.382 135.779C248.07 133.341 248.433 130.171 250.022 127.908C253.779 122.556 259.955 126.184 265.106 124.564C266.38 124.16 267.6 123.571 268.906 123.298C273.06 122.436 277.478 125.186 279.1 129.13C280.531 132.61 279.951 136.707 278.042 139.958L278.048 139.963Z" fill="white"/>
<path d="M272.615 124.504C274.87 126.184 276.215 128.928 276.567 131.732C276.92 134.536 276.345 137.394 275.326 140.029C274.729 141.562 273.9 143.122 272.452 143.891C272.495 143.76 272.539 143.629 272.582 143.499" stroke="#ECECEC" stroke-width="2.12" stroke-linecap="round" stroke-linejoin="round"/>
<path d="M266.765 126.511C264.954 128.661 263.528 131.224 263.137 134.017C262.747 136.81 263.506 139.843 265.512 141.813" stroke="#ECECEC" stroke-width="2.12" stroke-linecap="round" stroke-linejoin="round"/>
<path d="M261.674 129.272C260.985 132.381 260.411 135.512 259.95 138.665" stroke="#ECECEC" stroke-width="2.12" stroke-linecap="round" stroke-linejoin="round"/>
<path d="M259.082 129.222C258.41 132.261 257.846 135.321 257.385 138.398" stroke="#ECECEC" stroke-width="2.12" stroke-linecap="round" stroke-linejoin="round"/>
<path d="M256.447 128.949C255.802 131.742 255.259 134.557 254.831 137.388" stroke="#ECECEC" stroke-width="2.12" stroke-linecap="round" stroke-linejoin="round"/>
<path d="M222.121 97.261C231.496 103.9 240.816 110.61 250.087 117.385" stroke="#705742" stroke-width="2.12" stroke-linecap="round" stroke-linejoin="round"/>
<path d="M243.825 112.001C253.622 110.964 263.398 109.704 273.141 108.231" stroke="#705742" stroke-width="2.12" stroke-linecap="round" stroke-linejoin="round"/>
<path d="M243.738 44.6469C243.689 44.5542 243.738 44.3032 243.684 44.396C244.248 43.4413 244.866 42.5194 245.533 41.6357C246.151 42.4976 246.829 43.425 247.355 44.3469C247.078 44.8433 246.769 45.5579 246.574 46.0871C247.176 47.5654 247.723 49.071 248.287 50.5602C249.404 46.4907 250.651 41.6793 251.768 36.9716C247.853 36.2297 243.863 36.377 240.312 37.8117C241.277 41.8157 242.296 45.9507 243.348 49.8456C243.755 48.5691 244.145 47.2763 244.481 46.0216C244.232 45.5634 243.982 45.1051 243.738 44.6415V44.6469Z" fill="white"/>
<path d="M248.292 50.5598C247.729 49.0651 247.181 47.5649 246.579 46.0866C246.78 45.5575 247.083 44.8428 247.36 44.3464C246.834 43.4245 246.151 42.4972 245.538 41.6353C244.871 42.519 244.253 43.4409 243.689 44.3955C243.744 44.3028 243.689 44.5483 243.744 44.6465C243.993 45.1047 244.242 45.5629 244.486 46.0266C244.15 47.2813 243.76 48.5741 243.353 49.8506C244.199 52.9982 245.066 55.9931 245.934 58.6442C246.53 56.7895 247.365 53.931 248.292 50.5598Z" fill="#113B6D"/>
<path d="M286.55 75.8825C285.861 70.9729 284.196 66.1997 281.681 61.9338C279.843 58.819 278.146 56.1296 275.706 53.3803C273.217 50.5763 270.577 47.9034 267.795 45.394C266.689 44.3957 265.561 43.4193 264.363 42.5301C260.834 39.9171 256.355 37.8442 251.774 36.9768C249.729 45.5849 247.252 54.5586 245.934 58.6499C243.982 52.7147 242.063 45.0503 240.317 37.8169C238.484 38.5588 236.766 39.6443 235.242 41.1336C230.324 45.1976 226.448 50.4891 222.826 55.6987C220.69 58.7754 217.073 61.252 214.135 63.5704C210.93 66.1015 207.596 68.4636 204.142 70.6402C203.893 70.7984 203.611 70.9948 203.567 71.2893C203.535 71.4966 203.627 71.6985 203.719 71.8839C204.652 73.8096 205.579 75.7352 206.512 77.6554C208.729 82.2432 211.055 86.9727 214.943 90.2512C216.694 91.7241 219.042 92.9024 221.205 92.1714C221.324 92.1332 221.433 92.0841 221.546 92.035C221.465 93.9443 221.411 95.8591 221.384 97.7738C232.911 97.8829 268.793 98.3029 274.735 98.0629C274.757 97.6592 274.768 97.2556 274.773 96.8519C274.784 96.2846 274.779 95.7172 274.773 95.1499C280.011 94.1134 284.506 90.944 286.094 85.5871C287.027 82.4559 287 79.1119 286.55 75.8771V75.8825Z" fill="#A8BF45"/>
<path d="M257.38 73.7388C260.926 73.2915 266.96 73.0624 270.533 73.046" stroke="#99AD21" stroke-width="2.23" stroke-linecap="round" stroke-linejoin="round"/>
<path d="M253.308 89.1438C255.834 91.3586 265.371 96.4263 273.146 95.4935" stroke="#99AD21" stroke-width="2.23" stroke-linecap="round" stroke-linejoin="round"/>
<path d="M225.017 75.7893L236.842 97.135L236.565 97.5496L200.51 94.462L199.36 93.4256L187.508 72.6853L225.017 75.7893Z" fill="#4263CE"/>
<path d="M225.808 74.7856L237.627 96.1314L237.351 96.5459L201.192 93.9002L200.422 93.022L188.299 71.6816L225.808 74.7856Z" fill="#E6E6E6"/>
<path d="M201.193 93.8729C205.075 93.982 209.889 93.3656 213.777 93.7038C220.153 94.2493 226.529 94.7948 232.9 95.3403C233.355 95.3785 237.85 96.1586 238.099 95.7876L238.376 95.3731L226.556 74.0273L190.024 70.0669C192.729 72.2162 194.638 74.5292 196.682 77.6604C197.782 79.346 199.17 81.6862 199.848 83.8464C200.808 86.9122 201.605 93.8893 201.198 93.8784L201.193 93.8729Z" fill="#F2F2F2"/>
<path d="M204.25 93.764C207.596 94.2386 210.063 94.1077 213.435 94.2986C215.647 94.4241 217.859 94.4896 220.071 94.555C223.4 94.6532 226.73 94.7514 230.059 94.8496C231.691 94.8987 233.317 94.9478 234.949 94.9914C235.79 95.0187 236.614 94.5768 237.085 93.8077C237.069 89.2254 237.622 84.7795 235.302 80.4918C233.8 77.7152 232.179 74.7149 229.115 72.02L193.103 68.3324C196.188 70.0562 199.739 75.0313 201.1 78.5771C202.754 82.8757 202.716 88.3362 201.328 93.824C201.903 93.9168 203.67 93.6767 204.25 93.7586V93.764Z" fill="white"/>
<path d="M253.319 85.2655L236.744 96.4539L201.258 93.879L217.431 82.3033L253.319 85.2655Z" fill="#F2F2F2"/>
<path d="M253.861 88.1231L237.763 96.8731L201.908 93.911L217.979 85.161L253.861 88.1231Z" fill="#E6E6E6"/>
<path d="M255.574 91.2603L236.787 97.2173L200.938 94.2606L219.692 88.2982L255.574 91.2603Z" fill="#4263CE"/>
<path d="M200.613 91.8227C201.946 92.2918 203.112 93.2301 203.855 94.4357C204.213 93.8302 204.088 92.8264 204.289 92.1336C204.538 91.2772 204.896 90.4535 205.351 89.6898C205.704 89.0951 206.137 88.5169 206.75 88.2114C207.363 87.9005 208.192 87.9387 208.648 88.4569C209.185 89.0679 209 90.0116 208.783 90.7971C209.136 89.6679 209.797 88.3042 210.974 88.3587C211.695 88.3914 212.286 89.0133 212.514 89.7061C212.741 90.3989 212.682 91.1463 212.622 91.8718C212.904 90.7317 214.319 90.0334 215.387 90.5135C216.455 90.9935 216.889 92.5155 216.238 93.4919C216.629 92.4828 218.022 91.8718 219.036 92.2427C220.522 92.7882 220.332 95.8813 220.164 97.1032C219.92 98.8652 219.161 100.562 217.963 101.876C216.835 103.109 215.447 103.649 213.788 103.529C211.006 103.333 208.176 102.684 205.698 101.369C202.987 99.9344 201.377 97.5396 199.517 95.1776C199.073 94.6102 198.612 94.0102 198.503 93.301C198.395 92.5864 198.796 91.7463 199.501 91.6318C199.75 91.5936 200.011 91.6481 200.255 91.719C200.369 91.7518 200.482 91.79 200.596 91.8281L200.613 91.8227Z" fill="#FFD5C5"/>
<path d="M207.655 95.1663C208.165 93.8517 208.843 91.386 209.304 89.984" stroke="#E59F8F" stroke-width="2.12" stroke-linecap="round" stroke-linejoin="round"/>
<path d="M211.136 96.6998C211.646 95.0196 212.383 93.1594 212.893 91.4792" stroke="#E59F8F" stroke-width="2.12" stroke-linecap="round" stroke-linejoin="round"/>
<path d="M215.29 97.807C215.93 96.2086 216.456 94.0921 216.981 92.7119" stroke="#E59F8F" stroke-width="2.12" stroke-linecap="round" stroke-linejoin="round"/>
<path d="M245.809 40.4075C243.716 40.4184 242.009 38.7219 241.998 36.6108L241.981 33.1413L249.567 33.1031L249.583 36.5726C249.594 38.6783 247.908 40.3966 245.809 40.4075Z" fill="#FFD5C5"/>
<path d="M239.2 40.1569C238.327 41.2915 237.53 42.4862 236.814 43.7245C237.839 44.4173 238.82 45.1646 239.764 45.9665C238.674 47.0085 237.671 48.1868 236.641 49.2941C238.213 51.3398 239.449 53.6909 240.881 55.8457L245.744 63.1828" stroke="#99AD21" stroke-width="2.23" stroke-linecap="round" stroke-linejoin="round"/>
<path d="M253.221 38.7168C254.11 39.6278 254.994 40.5443 255.883 41.4553C254.756 42.3008 253.709 43.2445 252.749 44.281C253.763 45.432 254.783 46.583 255.797 47.7341C255.834 47.7777 255.872 47.8213 255.883 47.8814C255.9 47.9632 255.845 48.0395 255.797 48.105C252.793 52.42 249.681 57.5587 247.143 61.4536" stroke="#99AD21" stroke-width="2.23" stroke-linecap="round" stroke-linejoin="round"/>
<path d="M264.878 61.2086C265.963 65.0872 266.922 68.9985 267.757 72.9371" stroke="#99AD21" stroke-width="2.23" stroke-linecap="round" stroke-linejoin="round"/>
<path d="M230.547 61.9066C230.2 64.6451 229.82 67.3781 229.403 70.1056" stroke="#99AD21" stroke-width="2.23" stroke-linecap="round" stroke-linejoin="round"/>
<path d="M247.669 68.8071C247.669 69.6417 246.997 70.3181 246.168 70.3181C245.338 70.3181 244.666 69.6417 244.666 68.8071C244.666 67.9725 245.338 67.296 246.168 67.296C246.997 67.296 247.669 67.9725 247.669 68.8071Z" stroke="#99AD21" stroke-width="2.23" stroke-linecap="round" stroke-linejoin="round"/>
<path d="M247.669 80.0174C247.669 80.852 246.997 81.5285 246.167 81.5285C245.338 81.5285 244.665 80.852 244.665 80.0174C244.665 79.1828 245.338 78.5063 246.167 78.5063C246.997 78.5063 247.669 79.1828 247.669 80.0174Z" stroke="#99AD21" stroke-width="2.23" stroke-linecap="round" stroke-linejoin="round"/>
<path d="M252.272 73.1117C252.288 74.4264 252.765 75.7356 253.6 76.7502C252.966 76.8921 252.126 76.4829 251.459 76.4557C250.64 76.4229 249.81 76.4993 249.008 76.6739C248.385 76.8102 247.756 77.023 247.306 77.4758C246.856 77.9285 246.644 78.6704 246.964 79.2268C247.338 79.8815 248.216 79.996 248.97 80.0342C247.88 80.0124 246.498 80.1978 246.194 81.2561C246.01 81.9053 246.384 82.609 246.921 83.0127C247.457 83.4164 248.13 83.5855 248.78 83.7437C247.701 83.6564 246.677 84.7092 246.78 85.7893C246.883 86.8749 248.086 87.7095 249.127 87.4204C248.135 87.4695 247.186 88.5169 247.213 89.5315C247.257 91.0044 250.011 91.7517 251.128 91.9536C252.738 92.2536 254.446 92.0845 255.943 91.4081C257.352 90.7753 258.231 89.7061 258.616 88.2005C259.261 85.6857 259.527 82.9909 259.109 80.4161C258.648 77.5958 257.032 75.4683 255.52 73.1335C255.156 72.5716 254.766 71.9879 254.175 71.6879C253.584 71.3824 252.733 71.4861 252.424 72.0807C252.315 72.2934 252.288 72.5335 252.277 72.7735C252.277 72.888 252.272 72.9971 252.277 73.1117H252.272Z" fill="#FFD5C5"/>
<path d="M253.286 80.0672C251.757 79.8981 249.925 80.0072 248.385 79.9418" stroke="#E59F8F" stroke-width="2.12" stroke-linecap="round" stroke-linejoin="round"/>
<path d="M253.438 83.8471C251.822 83.8035 250.201 83.7598 248.585 83.7162" stroke="#E59F8F" stroke-width="2.12" stroke-linecap="round" stroke-linejoin="round"/>
<path d="M253.194 87.6328C251.611 87.731 250.022 87.7637 248.433 87.731" stroke="#E59F8F" stroke-width="2.12" stroke-linecap="round" stroke-linejoin="round"/>
<path d="M244.595 19.051C244.535 19.1056 246.547 20.9112 246.731 21.0585C247.631 21.7895 248.602 22.4332 249.621 22.9787C251.383 23.9279 253.292 24.5879 255.26 24.9207C255.455 25.7117 255.563 26.5409 255.542 27.3973C255.433 32.6233 251.134 36.7692 245.945 36.6601C240.751 36.551 236.63 32.2251 236.739 27.0045C236.76 26.0772 236.917 25.188 237.178 24.3425C239.959 23.2624 242.356 21.1185 244.595 19.051Z" fill="#FFD5C5"/>
<path d="M246.731 21.0588C246.547 20.9115 244.535 19.1113 244.595 19.0513C242.356 21.1188 239.959 23.2572 237.178 24.3428C238.403 20.4424 242.063 17.6494 246.335 17.7421C250.678 17.8348 254.262 20.8788 255.26 24.9265C253.292 24.5883 251.378 23.9282 249.621 22.9845C248.602 22.4389 247.631 21.7952 246.731 21.0643V21.0588Z" fill="#3A3836"/>
<path d="M257.087 26.8196C257.065 27.7906 256.268 28.5598 255.303 28.5379C254.338 28.5161 253.574 27.7142 253.595 26.7432C253.617 25.7722 254.414 25.003 255.379 25.0249C256.344 25.0467 257.109 25.8486 257.087 26.8196Z" fill="#FFD5C5"/>
<path d="M238.566 26.4318C238.544 27.4028 237.747 28.1719 236.782 28.1501C235.817 28.1283 235.053 27.3264 235.074 26.3554C235.096 25.3844 235.893 24.6152 236.858 24.637C237.823 24.6589 238.588 25.4608 238.566 26.4318Z" fill="#FFD5C5"/>
<path d="M242.199 25.3457C242.193 25.673 241.922 25.9348 241.591 25.9294C241.266 25.9239 241.006 25.6512 241.011 25.3184C241.017 24.9911 241.288 24.7292 241.619 24.7347C241.944 24.7402 242.204 25.0129 242.199 25.3457Z" fill="#113B6D"/>
<path d="M246.287 25.4334C246.281 25.7607 246.01 26.0226 245.679 26.0171C245.354 26.0117 245.094 25.7389 245.099 25.4062C245.105 25.0789 245.376 24.817 245.706 24.8225C246.032 24.8279 246.292 25.1007 246.287 25.4334Z" fill="#113B6D"/>
<path d="M243.538 25.5803C242.74 26.0058 242.795 27.0805 242.768 27.5769C243.201 27.5878 243.635 27.5987 244.069 27.6096" stroke="#113B6D" stroke-width="1.4" stroke-linecap="round" stroke-linejoin="round"/>
<path d="M241.407 28.3738C241.531 28.7993 241.862 29.1484 242.252 29.3502C242.643 29.5521 243.098 29.623 243.537 29.6175C243.928 29.6121 244.324 29.5466 244.671 29.3721C245.023 29.203 245.327 28.9193 245.479 28.5593" stroke="#113B6D" stroke-width="1.4" stroke-linecap="round" stroke-linejoin="round"/>
<path d="M240.832 23.8024C241.32 23.6823 241.83 23.6496 242.334 23.6987" stroke="#113B6D" stroke-width="1.4" stroke-linecap="round" stroke-linejoin="round"/>
<path d="M245.224 23.835C245.685 23.7914 246.156 23.8405 246.601 23.9878" stroke="#113B6D" stroke-width="1.4" stroke-linecap="round" stroke-linejoin="round"/>
<path d="M248.9 26.4701C248.634 26.6174 248.401 26.8247 248.217 27.0647" stroke="#F9B29B" stroke-width="4.24" stroke-linecap="round" stroke-linejoin="round"/>
<path d="M239.444 26.2793C239.282 26.4866 239.119 26.6884 238.956 26.8957" stroke="#F9B29B" stroke-width="4.24" stroke-linecap="round" stroke-linejoin="round"/>
</g>
</g>
<defs>
<clipPath id="clip0_20_3818">
<rect width="318" height="155" fill="white"/>
</clipPath>
<clipPath id="clip1_20_3818">
<rect width="311" height="200" fill="white" transform="matrix(-1 0 0 1 360 1)"/>
</clipPath>
</defs>
</svg>
