<svg width="120" height="120" viewBox="0 0 120 120" fill="none" xmlns="http://www.w3.org/2000/svg">
<rect width="120" height="120" rx="60" fill="#E2E7F0"/>
<path d="M49.6259 29.8434C54.2527 21.8854 65.7473 21.8854 70.3741 29.8434L95.5166 73.0885C100.168 81.0885 94.3963 91.12 85.1425 91.12H34.8575C25.6037 91.12 19.8323 81.0885 24.4834 73.0886L49.6259 29.8434Z" fill="#F65458"/>
<path d="M59.9487 71.6406C57.217 71.6406 55 73.8642 55 76.5959C55 79.3276 57.217 81.5513 59.9487 81.5513C62.6804 81.5513 64.8975 79.3276 64.8975 76.5959C64.8975 73.8642 62.6804 71.6406 59.9487 71.6406Z" fill="white"/>
<path d="M60.3772 68.998H59.4666C57.8962 68.998 56.603 67.7707 56.5106 66.2003L55.5143 48.121C55.4219 46.4252 56.7679 45 58.4703 45H61.3669C63.0627 45 64.4154 46.4252 64.323 48.121L63.3266 66.2003C63.2409 67.7707 61.941 68.998 60.3706 68.998H60.3772Z" fill="white"/>
</svg>
