<svg width="80" height="80" viewBox="0 0 80 80" fill="none" xmlns="http://www.w3.org/2000/svg">
<rect width="80" height="80" fill="#F8F8F8"/>
<path d="M60.4948 60.5313V61.2637L60.5 61.2699V63.033C60.5 67.4839 57.5058 70.5 54.4894 70.5H15.5106C12.4905 70.5 9.5 67.4795 9.5 63.033V16.967C9.5 12.5161 12.4942 9.5 15.5106 9.5H45.6357L60.4948 25.293V60.5313Z" fill="white" stroke="#B9C2D2" stroke-width="4"/>
<path d="M63 25L46.5 7.5V20.625C46.5 23.0144 48.5075 25 50.7581 25H63Z" fill="#EF6250"/>
<path d="M44.4942 61.1561C44.4427 61.1561 44.3911 61.1561 44.3396 61.15C42.262 60.9664 39.236 59.3328 37.045 56.7813C33.6426 58.0356 30.1629 57.5644 27.5956 55.4657C26.0182 54.1747 24.8273 52.0699 24.2242 49.5673C19.5227 51.3479 15.6512 51.4458 15.3625 51.4519H15.3315C14.2077 51.4519 13.2849 50.3811 13.2695 49.0411C13.254 47.6889 14.1613 46.5814 15.3006 46.557C15.3882 46.557 19.3113 46.4346 23.8272 44.5378C24.018 41.6314 24.9407 38.0031 27.4771 33.9525C30.5908 28.978 34.0808 26.2736 36.8027 26.708C38.174 26.9283 39.2411 27.9195 39.7309 29.4247C40.6176 32.1597 39.4164 36.0512 36.3491 40.371C33.9365 43.773 30.998 46.1287 28.0957 47.7624C28.3998 49.3716 29.07 50.7238 29.9361 51.4336C31.328 52.5716 33.0859 52.7307 34.6479 52.4248C34.2355 50.9624 34.1736 49.4694 34.4726 47.9948C34.8953 45.939 36.0295 44.4521 37.5863 43.9198C39.1019 43.3997 40.7567 43.8953 41.9012 45.2108C43.1023 46.5875 43.5354 48.5884 43.0817 50.6871C42.7982 52.0026 42.0661 53.2569 40.9836 54.3277C42.3033 55.4657 43.7931 56.1939 44.6437 56.2673C45.7779 56.3652 46.6336 57.54 46.5511 58.8861C46.4738 60.171 45.5665 61.1561 44.4994 61.1561H44.4942ZM38.7926 48.6189C38.7926 48.6189 38.7514 48.619 38.7308 48.6312C38.638 48.6618 38.54 48.8698 38.4782 49.1635C38.3905 49.5918 38.3854 50.0201 38.4575 50.4607C38.8442 50.0507 39.0401 49.6897 39.0813 49.4939C39.1277 49.2859 39.1793 48.9126 39.0298 48.7413C38.9627 48.6618 38.8648 48.6251 38.7875 48.6251L38.7926 48.6189ZM35.88 31.6152C35.0706 31.8722 33.1838 33.0469 30.7918 36.8711C29.7402 38.5537 28.9618 40.2731 28.4823 41.9496C30.1784 40.7259 31.8074 39.1778 33.1993 37.2199C35.2356 34.3563 35.782 32.4534 35.88 31.6152Z" fill="#F9D2C0"/>
<path d="M71.2841 47.8558L56.9747 61.8922C56.751 62.1116 56.4701 62.2596 56.158 62.3259L49.8694 63.6423C48.7095 63.8821 47.6848 62.877 47.9292 61.7392L49.2712 55.5704C49.3388 55.2694 49.4897 54.9888 49.7134 54.7694L64.0228 40.7329C65.6509 39.1359 68.288 39.1359 69.9161 40.7329L71.2789 42.0697C72.907 43.6667 72.907 46.2536 71.2789 47.8507L71.2841 47.8558Z" fill="#EF6250"/>
<path d="M67.8435 45.8218L66.0022 44.1483C65.3648 43.569 64.3298 43.569 63.6924 44.1483C63.055 44.7276 63.055 45.6683 63.6924 46.2476L65.5337 47.921C65.8551 48.2131 66.2691 48.3567 66.6886 48.3567C67.108 48.3567 67.5275 48.2131 67.8435 47.921C68.4808 47.3418 68.4808 46.4011 67.8435 45.8218Z" fill="white"/>
</svg>
