<svg width="80" height="80" viewBox="0 0 80 80" fill="none" xmlns="http://www.w3.org/2000/svg">
<rect width="80" height="80" fill="#F8F8F8"/>
<path d="M12.3387 40.5317L12.3389 40.5184V40.505V14.5112C12.3389 12.5035 13.8815 11.0195 15.6112 11.0195H59.8088C59.2569 12.0847 58.9464 13.2959 58.9464 14.568V40.4918L58.9345 41.3873L58.9343 41.4007V41.414V65.4132C58.9343 67.4209 57.3917 68.9048 55.6621 68.9048H11.4645C12.0163 67.8397 12.3268 66.6284 12.3268 65.3563V41.4273L12.3387 40.5317Z" fill="white" stroke="#B9C2D2" stroke-width="4"/>
<path d="M19.1812 30.0014V14.5112C19.1812 11.475 21.5446 9.01953 24.4534 9.01953H36.5068C33.5677 9.01953 31.1801 11.5066 31.1801 14.568V30.0078L25.2836 24.0364L19.1872 30.0078L19.1812 30.0014Z" fill="#27C590"/>
<path d="M60.9519 27.6338V14.58C60.9519 11.4997 63.3517 9 66.309 9C69.2663 9 71.6661 11.4997 71.6661 14.58V27.6338H60.958H60.9519Z" fill="#27C590"/>
<path d="M39.4499 43.8555H20.3911C19.0518 43.8555 17.967 42.7256 17.967 41.3306C17.967 39.9356 19.0518 38.8057 20.3911 38.8057H39.4499C40.7892 38.8057 41.874 39.9356 41.874 41.3306C41.874 42.7256 40.7892 43.8555 39.4499 43.8555Z" fill="#C5E8DC"/>
<path d="M51.2014 52.0737H20.3981C19.0589 52.0737 17.9741 50.9438 17.9741 49.5488C17.9741 48.1538 19.0589 47.0239 20.3981 47.0239H51.2014C52.5407 47.0239 53.6254 48.1538 53.6254 49.5488C53.6254 50.9438 52.5407 52.0737 51.2014 52.0737Z" fill="#C5E8DC"/>
<path d="M51.2011 60.2993H31.9362C30.597 60.2993 29.5122 59.1694 29.5122 57.7744C29.5122 56.3794 30.597 55.2495 31.9362 55.2495H51.2011C52.5404 55.2495 53.6252 56.3794 53.6252 57.7744C53.6252 59.1694 52.5404 60.2993 51.2011 60.2993Z" fill="#C5E8DC"/>
<path d="M23.9544 60.2993H20.3911C19.0518 60.2993 17.967 59.1694 17.967 57.7744C17.967 56.3794 19.0518 55.2495 20.3911 55.2495H23.9544C25.2936 55.2495 26.3784 56.3794 26.3784 57.7744C26.3784 59.1694 25.2936 60.2993 23.9544 60.2993Z" fill="#C5E8DC"/>
<path d="M73.2709 59.7754C74.2258 53.8926 70.2309 48.3494 64.348 47.3945C58.4652 46.4396 52.922 50.4345 51.9671 56.3173C51.0122 62.2002 55.0071 67.7434 60.8899 68.6983C66.7728 69.6532 72.316 65.6583 73.2709 59.7754Z" fill="#27C590"/>
<path d="M61.3281 62.5512H61.3094C60.8339 62.5465 60.3818 62.3321 60.0788 61.9638L57.5942 58.9618C57.0255 58.2719 57.1187 57.2511 57.8086 56.6824C58.4985 56.1137 59.5194 56.2069 60.0881 56.8968L61.356 58.4258L65.1271 54.0673C65.7098 53.3914 66.7353 53.3168 67.4113 53.9042C68.0872 54.4868 68.1617 55.5123 67.5744 56.1883L62.554 61.9918C62.2464 62.3461 61.7989 62.5512 61.3281 62.5512Z" fill="white"/>
</svg>
