<svg width="80" height="80" viewBox="0 0 80 80" fill="none" xmlns="http://www.w3.org/2000/svg">
<rect width="80" height="80" fill="#F8F8F8"/>
<g clip-path="url(#clip0_5_2464)">
<path d="M14.0513 10.3333H41.5618L55.8683 24.9046V60.8577C55.8683 63.0988 54.0656 64.8994 51.9243 64.8994H14.0513C11.9099 64.8994 10.1073 63.0988 10.1073 60.8577V14.375C10.1073 12.1339 11.9099 10.3333 14.0513 10.3333Z" fill="white" stroke="#B9C2D2" stroke-width="2.66667"/>
<path d="M41.541 8.11914V18.9942C41.541 22.2121 44.0388 24.8487 47.0874 24.8487H57.3901L41.541 8.11914Z" fill="#00ADB2"/>
<path d="M30.1663 22.1952C30.4017 19.5484 28.291 17.2248 25.452 17.0053C22.613 16.7858 20.1206 18.7536 19.8852 21.4004C19.6498 24.0472 21.7605 26.3708 24.5995 26.5903C27.4385 26.8097 29.9308 24.842 30.1663 22.1952Z" fill="#00ADB2"/>
<path d="M29.9977 37.0521H20.0457C18.5942 37.0521 17.4146 35.9523 17.4146 34.5991V32.6583C17.4146 28.7389 20.8206 25.5635 25.0246 25.5635C29.2286 25.5635 32.6346 28.7389 32.6346 32.6583V34.5991C32.6346 35.9523 31.4549 37.0521 30.0035 37.0521H29.9977Z" fill="#00ADB2"/>
<path d="M22.3105 48.4127H19.2948C18.2547 48.4127 17.4087 47.4962 17.4087 46.3694C17.4087 45.2427 18.2547 44.3262 19.2948 44.3262H22.3105C23.3506 44.3262 24.1966 45.2427 24.1966 46.3694C24.1966 47.4962 23.3506 48.4127 22.3105 48.4127Z" fill="#C5E8DC"/>
<path d="M43.853 48.4127H28.0328C26.9927 48.4127 26.1467 47.4962 26.1467 46.3694C26.1467 45.2427 26.9927 44.3262 28.0328 44.3262H43.853C44.8931 44.3262 45.7391 45.2427 45.7391 46.3694C45.7391 47.4962 44.8931 48.4127 43.853 48.4127Z" fill="#C5E8DC"/>
<path d="M30.856 55.255H19.3006C18.2606 55.255 17.4146 54.3385 17.4146 53.2117C17.4146 52.085 18.2606 51.1685 19.3006 51.1685H30.856C31.8961 51.1685 32.7421 52.085 32.7421 53.2117C32.7421 54.3385 31.8961 55.255 30.856 55.255Z" fill="#C5E8DC"/>
<path d="M37.6036 55.255H36.5785C35.5384 55.255 34.6924 54.3385 34.6924 53.2117C34.6924 52.085 35.5384 51.1685 36.5785 51.1685H37.6036C38.6437 51.1685 39.4897 52.085 39.4897 53.2117C39.4897 54.3385 38.6437 55.255 37.6036 55.255Z" fill="#C5E8DC"/>
</g>
<path d="M74.9999 56.7692C74.9999 65.1577 68.1997 71.9579 59.8112 71.9579C51.4228 71.9579 44.6226 65.1577 44.6226 56.7692C44.6226 48.3808 51.4228 41.5806 59.8112 41.5806C68.1997 41.5806 74.9999 48.3808 74.9999 56.7692Z" fill="#FFA943"/>
<path d="M60.0996 61.0522C58.773 61.0522 57.6963 62.1321 57.6963 63.4587C57.6963 64.7853 58.773 65.8652 60.0996 65.8652C61.4262 65.8652 62.5028 64.7853 62.5028 63.4587C62.5028 62.1321 61.4262 61.0522 60.0996 61.0522Z" fill="white"/>
<path d="M60.3081 59.7715H59.8659C59.1033 59.7715 58.4752 59.1754 58.4304 58.4128L57.9465 49.6328C57.9017 48.8093 58.5553 48.1172 59.3821 48.1172H60.7888C61.6123 48.1172 62.2692 48.8093 62.2243 49.6328L61.7405 58.4128C61.6988 59.1754 61.0676 59.7715 60.3049 59.7715H60.3081Z" fill="white"/>
<defs>
<clipPath id="clip0_5_2464">
<rect width="52.8302" height="57.2327" fill="white" transform="translate(5 9)"/>
</clipPath>
</defs>
</svg>
