<svg width="80" height="81" viewBox="0 0 80 81" fill="none" xmlns="http://www.w3.org/2000/svg">
<rect width="80" height="80" transform="translate(0 0.5)" fill="#F8F8F8"/>
<rect x="5" y="6" width="70" height="70" rx="13.3333" fill="#F7F9FC"/>
<path d="M40.6848 25.452L42.0199 25.8646C42.6813 23.7241 44.666 22.1743 46.9699 22.1743H67.5911C68.9702 22.1743 70.1026 23.3026 70.1026 24.7151V55.4512C70.1026 56.7405 69.0691 57.7667 67.8147 57.7667H46.9652C44.3071 57.7667 41.8577 58.929 40.3889 60.944C38.9202 58.929 36.4708 57.7667 33.8126 57.7667H12.9631C11.7087 57.7667 10.6753 56.7405 10.6753 55.4512V24.7151C10.6753 23.3001 11.8101 22.1743 13.1868 22.1743H33.8126C36.1165 22.1743 38.1012 23.7241 38.7626 25.8646L38.7647 25.8714L38.7668 25.8782C39.2639 27.4307 41.5212 27.5043 42.0217 25.8587L40.6848 25.452ZM40.6848 25.452C40.7057 25.3843 40.7277 25.3171 40.7507 25.2503L40.0977 25.452C40.1909 25.7431 40.5962 25.7431 40.6848 25.452Z" fill="white" stroke="#B9C2D2" stroke-width="2.79487"/>
<path d="M24.1524 34.9445L19.9982 31.4637L15.8889 34.9445V20.7769H24.1524V34.9445Z" fill="#00ADB2"/>
<path d="M40.2896 31.7734C39.3236 31.7734 38.5396 32.6864 38.5396 33.8114V51.1052C38.5396 52.2302 39.3236 53.1431 40.2896 53.1431C41.2556 53.1431 42.0396 52.2302 42.0396 51.1052V33.8114C42.0396 32.6864 41.2556 31.7734 40.2896 31.7734Z" fill="#DCEFE8"/>
<path d="M62.4596 18.272L69.5207 22.7183L53.8768 47.5312L47.301 50.138L46.8157 43.0849L62.4596 18.272Z" fill="#FFA943"/>
<path d="M46.8208 43.1479L47.3011 50.1386L53.8183 47.5541L46.8208 43.1479Z" fill="#F1EDCF"/>
<path d="M47.0755 46.8459L47.3015 50.1385L50.371 48.921L47.0755 46.8459Z" fill="#FFD255"/>
<path d="M67.1328 14.7741L70.6615 16.9961C71.6374 17.6106 71.9296 18.8982 71.3146 19.8738L69.5206 22.7191L62.4595 18.2728L64.2535 15.4275C64.8685 14.4519 66.1569 14.1595 67.1328 14.7741Z" fill="#FFD255"/>
</svg>
