<svg width="80" height="80" viewBox="0 0 80 80" fill="none" xmlns="http://www.w3.org/2000/svg">
<rect width="80" height="80" fill="#F8F8F8"/>
<path d="M18.5187 9H59.6203C62.485 9 64.5794 11.1439 64.5794 13.5166V65.5069C64.5794 67.8796 62.485 70.0235 59.6203 70.0235H18.5187C15.654 70.0235 13.5596 67.8796 13.5596 65.5069V13.5166C13.5596 11.1439 15.654 9 18.5187 9Z" fill="white" stroke="#B9C2D2" stroke-width="4"/>
<path d="M14.6789 24.437H8.63133C6.62712 24.437 5 22.9635 5 21.1484C5 19.3334 6.62712 17.8599 8.63133 17.8599H14.6789C16.6831 17.8599 18.3102 19.3334 18.3102 21.1484C18.3102 22.9635 16.6831 24.437 14.6789 24.437Z" fill="#FFD255"/>
<path d="M14.6789 37.5547H8.63133C6.62712 37.5547 5 36.0811 5 34.2661C5 32.4511 6.62712 30.9775 8.63133 30.9775H14.6789C16.6831 30.9775 18.3102 32.4511 18.3102 34.2661C18.3102 36.0811 16.6831 37.5547 14.6789 37.5547Z" fill="#FFD255"/>
<path d="M14.6789 44.0923H8.63133C6.6258 44.0923 5 45.5646 5 47.3808C5 49.1971 6.6258 50.6694 8.63133 50.6694H14.6789C16.6844 50.6694 18.3102 49.1971 18.3102 47.3808C18.3102 45.5646 16.6844 44.0923 14.6789 44.0923Z" fill="#FFD255"/>
<path d="M14.6789 63.7797H8.63133C6.62712 63.7797 5 62.3062 5 60.4912C5 58.6762 6.62712 57.2026 8.63133 57.2026H14.6789C16.6831 57.2026 18.3102 58.6762 18.3102 60.4912C18.3102 62.3062 16.6831 63.7797 14.6789 63.7797Z" fill="#FFD255"/>
<path d="M66.5222 14.5093H71.9413C73.6312 14.5093 75 15.7488 75 17.2792V22.7749C75 24.3054 73.6312 25.5449 71.9413 25.5449H66.5222V14.5029V14.5093Z" fill="#EF6250"/>
<path d="M66.5222 25.5761H71.9413C73.6312 25.5761 75 26.8157 75 28.3461V33.8418C75 35.3723 73.6312 36.6118 71.9413 36.6118H66.5222V25.5698V25.5761Z" fill="#FFA943"/>
<path d="M66.5222 36.6377H71.9413C73.6312 36.6377 75 37.8772 75 39.4076V44.9033C75 46.4338 73.6312 47.6733 71.9413 47.6733H66.5222V36.6313V36.6377Z" fill="#FFD255"/>
<path d="M54.4617 61.5522H41.1344C39.5036 61.5522 38.1831 60.1613 38.1831 58.4436C38.1831 56.7259 39.5036 55.335 41.1344 55.335H54.4617C56.0924 55.335 57.4129 56.7259 57.4129 58.4436C57.4129 60.1613 56.0924 61.5522 54.4617 61.5522Z" fill="#CDEDE1"/>
<path d="M31.7396 61.5522H27.9586C26.3279 61.5522 25.0073 60.1613 25.0073 58.4436C25.0073 56.7259 26.3279 55.335 27.9586 55.335H31.7396C33.3703 55.335 34.6908 56.7259 34.6908 58.4436C34.6908 60.1613 33.3703 61.5522 31.7396 61.5522Z" fill="#CDEDE1"/>
<path d="M45.2444 44.5547L40.7821 40.1945L36.4543 44.5547V31.9189H45.2444V44.5547Z" fill="#EF6250"/>
<path d="M40.849 15.9868L43.1254 18.7431L46.6187 17.8227L46.8048 21.3591L50.1884 22.6298L48.2127 25.6009L50.1884 28.5721L46.8048 29.8381L46.6187 33.3791L43.1254 32.4588L40.849 35.2151L38.5726 32.4588L35.0744 33.3791L34.8883 29.8381L31.5095 28.5721L33.4805 25.6009L31.5095 22.6298L34.8883 21.3591L35.0744 17.8227L38.5726 18.7431L40.849 15.9868Z" fill="#FFD255"/>
</svg>
