<svg width="80" height="81" viewBox="0 0 80 81" fill="none" xmlns="http://www.w3.org/2000/svg">
<rect width="80" height="80" transform="translate(0 0.5)" fill="#F8F8F8"/>
<path d="M39.44 52.6194L18.3113 52.6194C14.3771 52.6194 11.1874 49.4297 11.1795 45.4877L11.1795 43.403C11.1795 33.638 19.095 25.7226 28.86 25.7225L28.8913 25.7226C38.6563 25.7226 46.5718 33.638 46.5718 43.403L46.5718 45.4877C46.5718 49.4219 43.3821 52.6116 39.44 52.6194Z" fill="#00ADB2"/>
<ellipse cx="28.5244" cy="18.154" rx="9.97583" ry="10.154" fill="#00ADB2"/>
<path d="M32.2447 68.035L32.2447 26.4382C32.2447 24.579 33.953 22.8515 36.3459 22.8515L69.5656 22.8515C71.9585 22.8515 73.6668 24.579 73.6668 26.4382L73.6668 68.035C73.6668 69.8942 71.9585 71.6217 69.5656 71.6217L36.3459 71.6217C33.953 71.6217 32.2447 69.8942 32.2447 68.035Z" fill="white" stroke="#B9C2D2" stroke-width="2.66667"/>
<path d="M57.8015 54.3851L48.4137 54.3851C46.6657 54.3851 45.2484 52.9679 45.2449 51.2164L45.2449 50.2901C45.2449 45.9514 48.7619 42.4344 53.1006 42.4344L53.1146 42.4344C57.4533 42.4344 60.9702 45.9514 60.9702 50.2901L60.9702 51.2164C60.9702 52.9644 59.553 54.3816 57.8015 54.3851Z" fill="#FFA943"/>
<path d="M60.1605 61.499L58.6857 61.4991C57.7207 61.4991 56.9323 60.7107 56.9323 59.7456C56.9323 58.7805 57.7207 57.9922 58.6857 57.9922L60.1605 57.9922C61.1256 57.9922 61.914 58.7805 61.914 59.7456C61.914 60.7107 61.1256 61.499 60.1605 61.499Z" fill="#F9D2C0"/>
<path d="M53.7255 61.499L52.2507 61.499C51.2856 61.499 50.4972 60.7107 50.4972 59.7456C50.4972 58.7805 51.2856 57.9922 52.2507 57.9922L53.7255 57.9922C54.6905 57.9922 55.4789 58.7805 55.4789 59.7456C55.4789 60.7107 54.6905 61.499 53.7255 61.499Z" fill="#F9D2C0"/>
<path d="M47.3016 61.499L45.8269 61.499C44.8618 61.499 44.0734 60.7107 44.0734 59.7456C44.0734 58.7805 44.8618 57.9922 45.8269 57.9922L47.3016 57.9922C48.2667 57.9922 49.0551 58.7805 49.0551 59.7456C49.0551 60.7107 48.2667 61.499 47.3016 61.499Z" fill="#F9D2C0"/>
<path d="M57.4138 25.1139L48.3365 25.3156C47.2825 25.339 46.4137 26.2078 46.3903 27.2617C46.3669 28.3157 47.1979 29.1467 48.2518 29.1233L57.3291 28.9216C58.3831 28.8981 59.2519 28.0293 59.2753 26.9754C59.2987 25.9215 58.4677 25.0904 57.4138 25.1139Z" fill="#F9D2C0"/>
<path d="M52.5067 17.9414C52.5064 16.9293 52.664 16.0865 52.9531 15.5653C53.109 15.2838 53.2916 15.1164 53.4438 15.1165C53.8547 15.1166 54.5932 16.0605 54.5938 17.9402C54.5945 20.2042 54.0106 20.3899 53.7218 21.5199L55.4911 21.5205C55.8692 19.9739 56.3105 20.102 56.3098 17.9407C56.3089 14.9614 54.8644 13.399 53.4413 13.3985C52.6461 13.3982 51.9175 13.8832 51.4479 14.7296C51.0087 15.5228 50.7845 16.6034 50.785 17.9389C50.7864 22.3604 52.0546 25.9527 52.6011 27.2942C52.7362 27.6271 53.0578 27.8308 53.3984 27.829C53.5049 27.8291 53.6153 27.8101 53.7218 27.7644C54.1612 27.5876 54.3722 27.0836 54.1933 26.6459C53.7972 25.6717 52.5062 22.1707 52.5048 17.9395L52.5067 17.9414Z" fill="#FFA943"/>
<circle cx="52.9556" cy="39.0472" r="4.49052" fill="#FFA943"/>
<path d="M30.9114 65.1992H75.0001V66.2889C75.0001 69.9708 72.0154 72.9556 68.3335 72.9556H37.578C33.8961 72.9556 30.9114 69.9708 30.9114 66.2889V65.1992Z" fill="#FFA943"/>
</svg>
