<svg width="80" height="80" viewBox="0 0 80 80" fill="none" xmlns="http://www.w3.org/2000/svg">
<rect width="80" height="80" fill="#F8F8F8"/>
<path d="M10.8932 8H56.5696C58.7132 8 60.4627 9.74559 60.4627 11.9133V67.9971C60.4627 70.1649 58.7132 71.9104 56.5696 71.9104H10.8932C8.7495 71.9104 7 70.1648 7 67.9971V11.9133C7 9.74563 8.7495 8 10.8932 8Z" fill="white" stroke="#B9C2D2" stroke-width="4"/>
<path d="M35.796 63.4824H34.6936C33.3907 63.4824 32.3354 62.4283 32.3354 61.127C32.3354 59.8256 33.3907 58.7715 34.6936 58.7715H35.796C37.0989 58.7715 38.1541 59.8256 38.1541 61.127C38.1541 62.4283 37.0989 63.4824 35.796 63.4824Z" fill="#6270F4"/>
<path d="M27.7493 63.4824H20.9402C19.6373 63.4824 18.582 62.4283 18.582 61.127C18.582 59.8256 19.6373 58.7715 20.9402 58.7715H27.7493C29.0521 58.7715 30.1074 59.8256 30.1074 61.127C30.1074 62.4283 29.0521 63.4824 27.7493 63.4824Z" fill="#6270F4"/>
<path d="M33.6951 52.5932C29.0378 49.2602 19.1042 40.6863 19.1042 28.1847V24.4807C24.5574 23.462 29.5861 20.9711 33.6951 17.2671C37.7983 20.9711 42.8328 23.4679 48.286 24.4807V28.1847C48.286 40.6863 38.3524 49.2602 33.6951 52.5932Z" fill="#D0DEF7"/>
<path d="M32.7997 41.9354C32.2102 41.9354 31.6501 41.6822 31.2552 41.2405L26.474 35.8641C25.7194 35.0103 25.7961 33.7089 26.645 32.9551C27.4939 32.2014 28.8027 32.2779 29.5573 33.1259L32.67 36.6297L39.2314 28.0028C39.9212 27.0959 41.2182 26.9193 42.1202 27.6082C43.028 28.2972 43.2049 29.5927 42.5152 30.4937L34.4327 41.1168C34.0613 41.6056 33.4836 41.9059 32.8705 41.9295C32.8469 41.9295 32.8174 41.9295 32.7938 41.9295L32.7997 41.9354Z" fill="white"/>
<path d="M64.1249 53.2997C63.7485 53.2997 63.3722 53.1772 63.0711 52.9269C62.3989 52.3703 62.3236 51.4051 62.9097 50.7667L71.115 41.7837L68.1953 39.3784C67.5231 38.8217 67.4479 37.8565 68.034 37.2181C68.6201 36.5798 69.6363 36.5083 70.3084 37.0649L74.4433 40.4712C75.1154 41.0279 75.1907 41.9931 74.6046 42.6314L65.3401 52.7686C65.0229 53.1159 64.5712 53.2946 64.1195 53.2946L64.1249 53.2997Z" fill="#6270F4"/>
<path d="M71.5879 33.8833L67.5659 30.5689C66.5981 29.7723 65.1355 29.8693 64.2913 30.7885L60.8823 34.5217L68.4047 40.7214L71.8137 36.9883C72.6525 36.0691 72.5503 34.68 71.5825 33.8782L71.5879 33.8833Z" fill="#A6AEFF"/>
<path d="M60.8882 34.522L47.0102 50.624L45.8596 51.8854L44.3164 60.7918L53.3819 58.0852L54.5379 56.8289L68.4105 40.7217L60.8882 34.522Z" fill="#6270F4"/>
<path d="M44.7938 62.8749C44.2508 62.8749 43.7023 62.6962 43.2668 62.3233C42.3097 61.5216 42.2183 60.1325 43.0625 59.2235L47.3103 54.6477C48.1545 53.7387 49.617 53.6518 50.5741 54.4536C51.5312 55.2554 51.6226 56.6445 50.7784 57.5535L46.5307 62.1293C46.0736 62.6195 45.4337 62.8749 44.7938 62.8749Z" fill="#6270F4"/>
</svg>
