<svg width="440" height="440" viewBox="0 0 440 440" fill="none" xmlns="http://www.w3.org/2000/svg">
<g clip-path="url(#clip0_10_2906)">
<path d="M93.9292 216.355C95.8803 148.383 151.551 93.876 220 93.876C288.448 93.876 344.119 148.383 346.07 216.355H440C438.034 96.531 340.305 0 220 0C99.6944 0 1.96548 96.531 -0.000244141 216.355H93.9292Z" fill="#27C2CB"/>
<path d="M216.332 346.08C149.586 344.174 95.8509 290.444 93.9292 223.689H-0.000244141C1.93614 342.296 97.714 438.064 216.332 440V346.08Z" fill="#8CA5E7"/>
<path d="M346.07 223.689C344.163 290.429 290.428 344.159 223.667 346.08V440C342.285 438.064 438.063 342.296 439.999 223.689H346.07Z" fill="#47A5F1"/>
<path d="M141.359 60.805C140.207 60.069 139.183 59.221 138.287 58.261C137.391 57.285 136.743 56.269 136.343 55.213C135.927 56.349 135.239 57.461 134.279 58.549C133.783 59.109 133.279 59.621 132.767 60.085C132.271 60.549 131.767 60.965 131.255 61.333L129.023 59.533C129.903 59.005 130.703 58.397 131.423 57.709C132.159 57.021 132.775 56.245 133.271 55.381C133.783 54.517 134.175 53.565 134.447 52.525C134.735 51.485 134.879 50.349 134.879 49.117V47.365H130.559V45.109H142.151V47.365H137.783V49.237C137.783 51.365 138.215 53.245 139.079 54.877C139.959 56.509 141.359 57.869 143.279 58.957L141.359 60.805ZM147.671 65.341H144.959V43.861H147.671V65.341ZM167.761 56.653H165.025V53.053H160.777C160.265 53.773 159.601 54.333 158.785 54.733C157.969 55.117 157.049 55.309 156.025 55.309C155.161 55.309 154.385 55.173 153.697 54.901C153.009 54.629 152.409 54.245 151.897 53.749C151.401 53.253 151.009 52.669 150.721 51.997C150.449 51.309 150.313 50.557 150.313 49.741C150.313 48.957 150.449 48.229 150.721 47.557C151.009 46.869 151.401 46.269 151.897 45.757C152.409 45.261 153.009 44.869 153.697 44.581C154.385 44.293 155.161 44.149 156.025 44.149C156.985 44.149 157.849 44.333 158.617 44.701C159.401 45.053 160.049 45.541 160.561 46.165H165.025V43.861H167.761V56.653ZM165.025 50.821V48.397H161.665C161.761 48.861 161.809 49.309 161.809 49.741C161.809 49.933 161.801 50.125 161.785 50.317C161.769 50.493 161.745 50.661 161.713 50.821H165.025ZM157.273 52.789C157.833 52.533 158.265 52.141 158.569 51.613C158.889 51.085 159.049 50.461 159.049 49.741C159.049 49.277 158.977 48.845 158.833 48.445C158.689 48.045 158.489 47.701 158.233 47.413C157.977 47.109 157.657 46.877 157.273 46.717C156.905 46.541 156.497 46.453 156.049 46.453C155.089 46.453 154.345 46.765 153.817 47.389C153.305 47.997 153.049 48.781 153.049 49.741C153.049 50.205 153.113 50.637 153.241 51.037C153.385 51.437 153.585 51.789 153.841 52.093C154.097 52.381 154.409 52.613 154.777 52.789C155.145 52.949 155.569 53.029 156.049 53.029C156.561 53.029 156.969 52.949 157.273 52.789ZM167.761 65.437H165.049V59.773H152.857V57.517H167.089C167.537 57.517 167.761 57.741 167.761 58.189V65.437ZM187.587 53.581H173.163C172.907 53.581 172.731 53.533 172.635 53.437C172.555 53.341 172.515 53.165 172.515 52.909V44.941C172.515 44.701 172.563 44.533 172.659 44.437C172.755 44.325 172.931 44.269 173.187 44.269H187.371V46.213H175.275V47.965H187.275V49.861H175.275V51.613H187.587V53.581ZM189.843 57.229H170.043V55.045H189.843V57.229ZM187.371 65.461H184.587V61.021H172.299V58.813H186.699C187.147 58.813 187.371 59.037 187.371 59.485V65.461ZM203.476 49.693H191.452V47.581H203.476V49.693ZM200.764 46.261H194.164V44.173H200.764V46.261ZM204.748 60.901C204.268 60.965 203.692 61.029 203.02 61.093C202.348 61.157 201.596 61.221 200.764 61.285C199.948 61.333 199.068 61.373 198.124 61.405C197.18 61.437 196.204 61.453 195.196 61.453H190.708V59.125H196.156V57.349C194.94 57.189 193.964 56.821 193.228 56.245C192.492 55.653 192.124 54.901 192.124 53.989C192.124 53.477 192.244 53.013 192.484 52.597C192.74 52.181 193.1 51.821 193.564 51.517C194.028 51.213 194.588 50.981 195.244 50.821C195.9 50.661 196.636 50.581 197.452 50.581C198.252 50.581 198.98 50.661 199.636 50.821C200.292 50.981 200.852 51.213 201.316 51.517C201.78 51.821 202.14 52.181 202.396 52.597C202.652 53.013 202.78 53.477 202.78 53.989C202.78 54.853 202.436 55.573 201.748 56.149C201.06 56.725 200.164 57.109 199.06 57.301V59.053C199.364 59.053 199.756 59.045 200.236 59.029C200.716 58.997 201.22 58.965 201.748 58.933C202.292 58.885 202.82 58.837 203.332 58.789C203.86 58.725 204.332 58.661 204.748 58.597V60.901ZM199.372 55.045C199.804 54.789 200.02 54.437 200.02 53.989C200.02 53.573 199.804 53.229 199.372 52.957C198.956 52.669 198.316 52.525 197.452 52.525C196.572 52.525 195.924 52.669 195.508 52.957C195.092 53.229 194.884 53.573 194.884 53.989C194.884 54.421 195.092 54.773 195.508 55.045C195.94 55.317 196.588 55.453 197.452 55.453C198.316 55.453 198.956 55.317 199.372 55.045ZM208.06 65.341H205.348V43.861H208.06V52.813H210.94V55.237H208.06V65.341ZM222.439 65.965C221.671 65.277 220.983 64.485 220.375 63.589C219.783 62.709 219.287 61.773 218.887 60.781C218.487 59.789 218.183 58.757 217.975 57.685C217.767 56.613 217.663 55.549 217.663 54.493C217.663 53.421 217.767 52.357 217.975 51.301C218.183 50.229 218.487 49.197 218.887 48.205C219.287 47.213 219.783 46.277 220.375 45.397C220.983 44.517 221.671 43.725 222.439 43.021H224.575C223.791 44.029 223.143 45.029 222.631 46.021C222.119 47.013 221.711 47.989 221.407 48.949C221.119 49.909 220.911 50.853 220.783 51.781C220.671 52.709 220.615 53.613 220.615 54.493C220.615 55.373 220.671 56.277 220.783 57.205C220.911 58.133 221.119 59.077 221.407 60.037C221.711 60.997 222.119 61.973 222.631 62.965C223.143 63.957 223.791 64.957 224.575 65.965H222.439ZM236.589 60.805C235.437 60.069 234.413 59.221 233.517 58.261C232.621 57.285 231.973 56.269 231.573 55.213C231.157 56.349 230.469 57.461 229.509 58.549C229.013 59.109 228.509 59.621 227.997 60.085C227.501 60.549 226.997 60.965 226.485 61.333L224.253 59.533C225.133 59.005 225.933 58.397 226.653 57.709C227.389 57.021 228.005 56.245 228.501 55.381C229.013 54.517 229.405 53.565 229.677 52.525C229.965 51.485 230.109 50.349 230.109 49.117V47.365H225.789V45.109H237.381V47.365H233.013V49.237C233.013 51.365 233.445 53.245 234.309 54.877C235.189 56.509 236.589 57.869 238.509 58.957L236.589 60.805ZM242.901 65.341H240.189V53.101H236.109V50.653H240.189V43.861H242.901V65.341ZM262.126 56.533C261.31 56.277 260.534 55.949 259.798 55.549C259.062 55.133 258.358 54.677 257.686 54.181C257.046 53.669 256.462 53.125 255.934 52.549C255.422 51.957 255.014 51.349 254.71 50.725C254.022 52.085 253.046 53.237 251.782 54.181C250.518 55.125 249.038 55.917 247.342 56.557L245.446 54.541C246.566 54.205 247.598 53.773 248.542 53.245C249.486 52.701 250.318 52.069 251.038 51.349C251.726 50.661 252.262 49.901 252.646 49.069C253.046 48.221 253.246 47.341 253.246 46.429V44.581H256.174V46.429C256.158 47.309 256.35 48.181 256.75 49.045C257.15 49.893 257.71 50.677 258.43 51.397C259.15 52.133 259.974 52.781 260.902 53.341C261.83 53.885 262.822 54.293 263.878 54.565L262.126 56.533ZM264.646 62.917H244.798V60.637H253.318V55.981H256.102V60.637H264.646V62.917ZM282.84 51.877H268.392C268.136 51.877 267.96 51.829 267.864 51.733C267.784 51.637 267.744 51.461 267.744 51.205V45.061C267.744 44.821 267.792 44.653 267.888 44.557C267.984 44.445 268.16 44.389 268.416 44.389H282.624V46.669H270.504V49.621H282.84V51.877ZM285.072 56.029H265.272V53.725H285.072V56.029ZM282.6 65.461H279.84V60.349H267.48V58.021H281.928C282.376 58.021 282.6 58.245 282.6 58.693V65.461ZM299.81 45.637H291.362V43.549H299.81V45.637ZM305.522 56.749H285.722V54.613H305.522V56.749ZM303.578 61.933C303.578 63.085 302.914 64.005 301.586 64.693C300.258 65.397 298.266 65.749 295.61 65.749C292.938 65.749 290.938 65.397 289.61 64.693C288.298 64.005 287.642 63.085 287.642 61.933C287.642 60.813 288.306 59.901 289.634 59.197C290.978 58.477 292.97 58.117 295.61 58.117C298.25 58.117 300.234 58.477 301.562 59.197C302.906 59.901 303.578 60.813 303.578 61.933ZM299.186 63.229C300.082 62.941 300.53 62.517 300.53 61.957C300.53 61.429 300.082 60.989 299.186 60.637C298.306 60.285 297.114 60.109 295.61 60.109C294.058 60.109 292.85 60.285 291.986 60.637C291.122 60.989 290.69 61.429 290.69 61.957C290.69 62.517 291.122 62.941 291.986 63.229C292.85 63.533 294.058 63.685 295.61 63.685C297.178 63.685 298.37 63.533 299.186 63.229ZM302.978 53.653C299.106 52.981 296.658 51.965 295.634 50.605C295.154 51.229 294.314 51.805 293.114 52.333C291.914 52.845 290.282 53.293 288.218 53.677L286.562 51.613C290.514 51.133 292.906 50.245 293.738 48.949H287.786V46.837H303.386V48.949H297.458C298.498 50.325 300.874 51.205 304.586 51.589L302.978 53.653ZM305.403 65.965C306.187 64.957 306.827 63.957 307.323 62.965C307.835 61.973 308.243 60.997 308.547 60.037C308.851 59.077 309.059 58.133 309.171 57.205C309.299 56.277 309.363 55.373 309.363 54.493C309.363 53.613 309.299 52.709 309.171 51.781C309.059 50.853 308.851 49.909 308.547 48.949C308.243 47.989 307.835 47.013 307.323 46.021C306.827 45.029 306.187 44.029 305.403 43.021H307.539C308.307 43.725 308.987 44.517 309.579 45.397C310.187 46.277 310.691 47.213 311.091 48.205C311.491 49.197 311.795 50.229 312.003 51.301C312.211 52.357 312.315 53.421 312.315 54.493C312.315 55.549 312.211 56.613 312.003 57.685C311.795 58.757 311.491 59.789 311.091 60.781C310.691 61.773 310.187 62.709 309.579 63.589C308.987 64.485 308.307 65.277 307.539 65.965H305.403Z" fill="white"/>
<path d="M75.356 339.889C75.164 339.921 74.78 339.977 74.204 340.057C73.644 340.137 72.98 340.217 72.212 340.297C71.444 340.377 70.62 340.457 69.74 340.537C68.876 340.601 68.052 340.633 67.268 340.633L63.428 340.657C63.172 340.657 62.996 340.609 62.9 340.513C62.82 340.417 62.78 340.241 62.78 339.985V326.305C62.78 326.065 62.828 325.897 62.924 325.801C63.02 325.689 63.196 325.633 63.452 325.633H72.956V327.913H65.492V338.305L68.348 338.281C68.892 338.281 69.54 338.249 70.292 338.185C71.044 338.121 71.764 338.049 72.452 337.969C73.172 337.889 73.796 337.817 74.324 337.753C74.868 337.673 75.212 337.617 75.356 337.585V339.889ZM79.004 345.841H76.292V324.361H79.004V345.841ZM93.6937 341.305C92.5417 340.569 91.5177 339.721 90.6217 338.761C89.7257 337.785 89.0777 336.769 88.6777 335.713C88.2617 336.849 87.5737 337.961 86.6137 339.049C86.1177 339.609 85.6137 340.121 85.1017 340.585C84.6057 341.049 84.1017 341.465 83.5897 341.833L81.3577 340.033C82.2377 339.505 83.0377 338.897 83.7577 338.209C84.4937 337.521 85.1097 336.745 85.6057 335.881C86.1177 335.017 86.5097 334.065 86.7817 333.025C87.0697 331.985 87.2137 330.849 87.2137 329.617V327.865H82.8937V325.609H94.4857V327.865H90.1177V329.737C90.1177 331.865 90.5497 333.745 91.4137 335.377C92.2937 337.009 93.6937 338.369 95.6137 339.457L93.6937 341.305ZM100.006 345.841H97.2937V324.361H100.006V345.841ZM120.431 345.697H106.151C105.895 345.697 105.719 345.649 105.623 345.553C105.527 345.457 105.479 345.281 105.479 345.025V340.801C105.479 340.561 105.527 340.393 105.623 340.297C105.719 340.185 105.895 340.129 106.151 340.129H117.095V338.473H105.479V336.433H119.303C119.751 336.433 119.975 336.657 119.975 337.105V341.281C119.975 341.537 119.919 341.713 119.807 341.809C119.711 341.905 119.543 341.953 119.303 341.953H108.383V343.609H120.431V345.697ZM115.319 334.249C114.631 334.345 113.703 334.465 112.535 334.609C111.383 334.737 110.127 334.809 108.767 334.825H108.359C108.183 334.825 107.975 334.833 107.735 334.849C107.495 334.849 107.239 334.849 106.967 334.849H104.015C103.759 334.849 103.583 334.801 103.487 334.705C103.407 334.609 103.367 334.433 103.367 334.177V325.705C103.367 325.465 103.415 325.297 103.511 325.201C103.607 325.089 103.783 325.033 104.039 325.033H113.399V327.145H106.079V328.945H113.159V330.889H106.079V332.737L108.983 332.713C109.495 332.713 110.023 332.705 110.567 332.689C111.127 332.657 111.695 332.609 112.271 332.545C112.863 332.481 113.407 332.417 113.903 332.353C114.415 332.289 114.887 332.217 115.319 332.137V334.249ZM120.047 335.569H117.311V330.625H113.927V328.417H117.311V324.361H120.047V335.569Z" fill="white"/>
<path d="M344.852 343.465H325.004V341.161H333.5V335.809H328.028C327.772 335.809 327.596 335.761 327.5 335.665C327.42 335.569 327.38 335.393 327.38 335.137L327.404 325.081H330.116V333.505H342.908V335.809H336.308V341.161H344.852V343.465ZM356.11 334.393C355.614 334.921 355.006 335.337 354.286 335.641C353.582 335.945 352.79 336.097 351.91 336.097C350.998 336.097 350.19 335.945 349.486 335.641C348.782 335.337 348.182 334.921 347.686 334.393C347.19 333.881 346.814 333.281 346.558 332.593C346.302 331.889 346.174 331.145 346.174 330.361C346.174 328.761 346.678 327.417 347.686 326.329C348.182 325.817 348.782 325.409 349.486 325.105C350.19 324.801 350.998 324.649 351.91 324.649C352.822 324.649 353.63 324.801 354.334 325.105C355.038 325.409 355.63 325.817 356.11 326.329C356.606 326.857 356.982 327.465 357.238 328.153C357.51 328.841 357.646 329.577 357.646 330.361C357.646 331.145 357.51 331.889 357.238 332.593C356.982 333.281 356.606 333.881 356.11 334.393ZM351.91 333.793C352.87 333.793 353.614 333.457 354.142 332.785C354.67 332.113 354.934 331.305 354.934 330.361C354.934 329.881 354.862 329.433 354.718 329.017C354.59 328.601 354.398 328.241 354.142 327.937C353.886 327.633 353.566 327.393 353.182 327.217C352.814 327.041 352.39 326.953 351.91 326.953C351.43 326.953 350.998 327.041 350.614 327.217C350.246 327.393 349.934 327.633 349.678 327.937C349.422 328.241 349.222 328.601 349.078 329.017C348.95 329.433 348.886 329.881 348.886 330.361C348.886 331.305 349.15 332.113 349.678 332.785C350.206 333.457 350.95 333.793 351.91 333.793ZM363.67 340.201H360.982V324.361H363.67V340.201ZM364.174 345.433H349.87C349.614 345.433 349.438 345.385 349.342 345.289C349.262 345.193 349.222 345.017 349.222 344.761V338.233H351.958V343.129H364.174V345.433Z" fill="white"/>
<path d="M152.992 189.461C151.181 189.703 149.231 189.862 147.14 189.937C145.068 189.993 142.735 190.021 140.14 190.021H137.368V187.361H140.112L140.056 179.717H137.928V177.085H151.704V179.717H149.66L149.604 187.193C150.164 187.155 150.724 187.109 151.284 187.053C151.844 186.997 152.413 186.913 152.992 186.801V189.461ZM157.808 198.673C157.304 199.345 156.688 199.886 155.96 200.297C155.157 200.726 154.205 201.043 153.104 201.249C152.021 201.473 150.836 201.585 149.548 201.585C148.26 201.585 147.075 201.473 145.992 201.249C144.909 201.043 143.976 200.726 143.192 200.297C142.389 199.867 141.764 199.326 141.316 198.673C140.887 198.038 140.672 197.291 140.672 196.433C140.672 195.593 140.896 194.855 141.344 194.221C141.811 193.586 142.445 193.045 143.248 192.597C144.051 192.167 144.993 191.841 146.076 191.617C147.159 191.374 148.325 191.253 149.576 191.253C150.864 191.253 152.049 191.374 153.132 191.617C154.215 191.841 155.157 192.167 155.96 192.597C156.744 193.026 157.36 193.567 157.808 194.221C158.275 194.855 158.508 195.593 158.508 196.433C158.508 197.291 158.275 198.038 157.808 198.673ZM158.34 191.477H155.176V186.185H151.9V183.693H155.176V181.929H152.012V179.437H155.176V176.077H158.34V191.477ZM153.552 198.393C154.037 198.15 154.411 197.861 154.672 197.525C154.952 197.189 155.092 196.806 155.092 196.377C155.092 195.499 154.588 194.846 153.58 194.417C152.572 193.969 151.237 193.745 149.576 193.745C148.755 193.745 148.008 193.801 147.336 193.913C146.664 194.025 146.085 194.193 145.6 194.417C145.115 194.641 144.732 194.921 144.452 195.257C144.191 195.574 144.06 195.947 144.06 196.377C144.06 196.825 144.191 197.217 144.452 197.553C144.732 197.889 145.115 198.169 145.6 198.393C146.104 198.635 146.692 198.813 147.364 198.925C148.036 199.055 148.773 199.121 149.576 199.121C151.163 199.121 152.488 198.878 153.552 198.393ZM143.136 187.333H145.32C145.693 187.333 146.095 187.323 146.524 187.305L146.552 179.717H143.08L143.136 187.333ZM181.918 198.589C181.433 199.242 180.789 199.793 179.986 200.241C179.183 200.689 178.213 201.025 177.074 201.249C175.954 201.473 174.741 201.585 173.434 201.585C172.127 201.585 170.914 201.473 169.794 201.249C168.693 201.025 167.741 200.689 166.938 200.241C165.221 199.307 164.362 198.001 164.362 196.321C164.362 195.481 164.586 194.743 165.034 194.109C165.501 193.455 166.154 192.895 166.994 192.429C167.834 191.981 168.795 191.635 169.878 191.393C170.979 191.15 172.174 191.029 173.462 191.029C174.769 191.029 175.973 191.15 177.074 191.393C178.194 191.635 179.174 191.981 180.014 192.429C180.817 192.877 181.451 193.427 181.918 194.081C182.385 194.734 182.618 195.481 182.618 196.321C182.618 197.198 182.385 197.954 181.918 198.589ZM167.75 196.265C167.75 197.142 168.282 197.833 169.346 198.337C170.373 198.859 171.735 199.121 173.434 199.121C175.17 199.121 176.561 198.85 177.606 198.309C178.11 198.066 178.502 197.767 178.782 197.413C179.062 197.077 179.202 196.694 179.202 196.265C179.202 195.387 178.67 194.715 177.606 194.249C176.561 193.763 175.17 193.521 173.434 193.521C171.885 193.521 170.522 193.763 169.346 194.249C168.282 194.734 167.75 195.406 167.75 196.265ZM171.362 189.461C170.41 188.845 169.533 188.135 168.73 187.333C167.946 186.511 167.358 185.671 166.966 184.813C166.574 185.765 165.986 186.717 165.202 187.669C164.437 188.602 163.513 189.461 162.43 190.245L159.91 188.229C161.646 187.202 162.971 185.942 163.886 184.449C164.801 182.955 165.258 181.117 165.258 178.933V176.721H168.562V178.933C168.543 180.911 168.935 182.563 169.738 183.889C170.559 185.214 171.791 186.353 173.434 187.305L171.362 189.461ZM182.366 191.281H179.286V184.337H177.13V190.441H174.05V176.469H177.13V181.481H179.286V176.077H182.366V191.281ZM200.568 192.429C200.923 190.45 201.193 188.397 201.38 186.269C201.567 184.141 201.688 182.087 201.744 180.109H186.904V177.449H204.348C204.871 177.449 205.132 177.71 205.132 178.233C205.057 179.297 204.973 180.426 204.88 181.621C204.805 182.797 204.712 184.01 204.6 185.261C204.488 186.511 204.357 187.753 204.208 188.985C204.059 190.198 203.891 191.346 203.704 192.429H200.568ZM207.624 198.365H184.468V195.677H189.508V186.801H192.7V195.677H195.388V186.801H198.608V195.677H207.624V198.365ZM229.074 181.033C229.074 182.601 228.253 183.861 226.61 184.813C224.949 185.746 222.709 186.213 219.89 186.213C218.453 186.213 217.165 186.091 216.026 185.849C214.887 185.606 213.926 185.261 213.142 184.813C212.358 184.346 211.751 183.795 211.322 183.161C210.911 182.526 210.706 181.817 210.706 181.033C210.706 179.521 211.518 178.289 213.142 177.337C214.785 176.385 217.034 175.909 219.89 175.909C222.746 175.909 224.986 176.385 226.61 177.337C228.253 178.289 229.074 179.521 229.074 181.033ZM224.006 183.049C225.089 182.582 225.63 181.929 225.63 181.089C225.63 180.641 225.49 180.249 225.21 179.913C224.93 179.577 224.538 179.287 224.034 179.045C223.53 178.802 222.923 178.625 222.214 178.513C221.505 178.382 220.73 178.317 219.89 178.317C218.154 178.317 216.763 178.559 215.718 179.045C214.673 179.53 214.15 180.211 214.15 181.089C214.15 181.518 214.29 181.901 214.57 182.237C214.85 182.554 215.242 182.825 215.746 183.049C216.25 183.273 216.857 183.45 217.566 183.581C218.275 183.693 219.05 183.749 219.89 183.749C221.645 183.749 223.017 183.515 224.006 183.049ZM228.57 201.277H225.322V195.817H210.93V193.157H214.15V190.301H208.354V187.669H231.454V190.301H225.686V193.157H227.786C228.309 193.157 228.57 193.418 228.57 193.941V201.277ZM222.606 193.157V190.301H217.258V193.157H222.606ZM241.34 192.597C241.788 192.205 242.133 191.729 242.376 191.169C242.656 190.553 242.861 189.834 242.992 189.013C243.141 188.173 243.216 187.267 243.216 186.297C243.216 185.345 243.141 184.458 242.992 183.637C242.861 182.797 242.656 182.078 242.376 181.481C242.115 180.883 241.769 180.417 241.34 180.081C240.929 179.726 240.444 179.549 239.884 179.549C239.305 179.549 238.801 179.726 238.372 180.081C237.961 180.417 237.625 180.883 237.364 181.481C237.084 182.078 236.879 182.797 236.748 183.637C236.617 184.458 236.552 185.345 236.552 186.297C236.552 187.267 236.617 188.173 236.748 189.013C236.879 189.834 237.084 190.553 237.364 191.169C237.625 191.766 237.961 192.242 238.372 192.597C238.801 192.933 239.305 193.101 239.884 193.101C240.425 193.101 240.911 192.933 241.34 192.597ZM244.56 179.045C245.773 180.594 246.38 183.021 246.38 186.325C246.361 189.629 245.745 192.055 244.532 193.605C243.319 195.154 241.769 195.929 239.884 195.929C237.98 195.929 236.421 195.154 235.208 193.605C233.995 192.055 233.388 189.629 233.388 186.325C233.388 183.021 233.995 180.594 235.208 179.045C236.421 177.495 237.98 176.721 239.884 176.721C241.788 176.721 243.347 177.495 244.56 179.045ZM253.408 201.137H250.244V176.077H253.408V201.137ZM276.902 196.769C276.902 198.243 276.127 199.419 274.578 200.297C273.029 201.174 270.705 201.613 267.606 201.613C264.489 201.613 262.155 201.174 260.606 200.297C259.075 199.419 258.31 198.243 258.31 196.769C258.31 195.313 259.085 194.146 260.634 193.269C262.183 192.373 264.507 191.925 267.606 191.925C270.686 191.925 273.001 192.373 274.55 193.269C276.118 194.146 276.902 195.313 276.902 196.769ZM271.778 198.561C272.823 198.187 273.346 197.581 273.346 196.741C273.346 195.957 272.823 195.359 271.778 194.949C270.751 194.538 269.361 194.333 267.606 194.333C265.795 194.333 264.386 194.538 263.378 194.949C262.37 195.359 261.866 195.957 261.866 196.741C261.866 197.581 262.37 198.187 263.378 198.561C264.386 198.953 265.795 199.149 267.606 199.149C269.342 199.149 270.733 198.953 271.778 198.561ZM279.17 190.497H256.07V187.837H262.034V184.589C260.858 184.197 259.962 183.665 259.346 182.993C258.73 182.321 258.422 181.537 258.422 180.641C258.422 179.241 259.234 178.102 260.858 177.225C262.519 176.347 264.769 175.909 267.606 175.909C270.425 175.909 272.665 176.347 274.326 177.225C275.969 178.083 276.79 179.222 276.79 180.641C276.79 181.537 276.482 182.321 275.866 182.993C275.25 183.646 274.382 184.169 273.262 184.561V187.837H279.17V190.497ZM270.154 187.837V185.261C269.762 185.317 269.351 185.354 268.922 185.373C268.493 185.391 268.054 185.401 267.606 185.401C267.158 185.401 266.729 185.391 266.318 185.373C265.907 185.354 265.515 185.317 265.142 185.261V187.837H270.154ZM271.722 182.405C272.245 182.199 272.646 181.957 272.926 181.677C273.206 181.397 273.346 181.07 273.346 180.697C273.346 180.305 273.206 179.959 272.926 179.661C272.646 179.362 272.254 179.11 271.75 178.905C271.246 178.681 270.639 178.513 269.93 178.401C269.221 178.289 268.446 178.233 267.606 178.233C265.87 178.233 264.479 178.457 263.434 178.905C262.389 179.334 261.866 179.931 261.866 180.697C261.866 181.07 262.006 181.397 262.286 181.677C262.566 181.957 262.958 182.199 263.462 182.405C263.966 182.61 264.573 182.769 265.282 182.881C265.991 182.974 266.766 183.021 267.606 183.021C268.446 183.021 269.211 182.974 269.902 182.881C270.611 182.769 271.218 182.61 271.722 182.405ZM297.624 186.493C296.541 186.698 295.253 186.847 293.76 186.941C292.267 187.034 290.699 187.099 289.056 187.137V192.205H285.864V187.193H280.628V184.589H287.88C288.16 184.589 288.515 184.589 288.944 184.589C289.392 184.57 289.877 184.542 290.4 184.505C290.475 184.113 290.559 183.721 290.652 183.329C290.745 182.918 290.829 182.517 290.904 182.125C291.053 181.285 291.165 180.426 291.24 179.549H282.336V176.861H293.9C294.423 176.861 294.684 177.122 294.684 177.645C294.609 178.933 294.469 180.118 294.264 181.201C294.077 182.265 293.872 183.301 293.648 184.309C294.432 184.253 295.16 184.197 295.832 184.141C296.523 184.066 297.12 183.982 297.624 183.889V186.493ZM301.46 194.837H298.324V191.925H292.892V189.265H298.324V176.077H301.46V194.837ZM302.02 200.661H285.248C284.949 200.661 284.744 200.605 284.632 200.493C284.539 200.381 284.492 200.175 284.492 199.877V193.297H287.74V197.973H302.02V200.661Z" fill="black"/>
<path d="M158.054 240.961H156.632V229.369C156.308 229.717 155.906 230.047 155.426 230.359C154.946 230.671 154.412 230.977 153.824 231.277V229.909C154.364 229.669 154.868 229.375 155.336 229.027C155.816 228.667 156.266 228.265 156.686 227.821H157.712C157.844 227.821 157.934 227.845 157.982 227.893C158.03 227.941 158.054 228.031 158.054 228.163V240.961ZM165.173 235.219C164.657 234.991 164.219 234.679 163.859 234.283C163.487 233.899 163.199 233.449 162.995 232.933C162.791 232.417 162.689 231.865 162.689 231.277C162.689 230.689 162.791 230.137 162.995 229.621C163.199 229.105 163.487 228.649 163.859 228.253C164.219 227.869 164.657 227.563 165.173 227.335C165.689 227.107 166.259 226.993 166.883 226.993C167.495 226.993 168.059 227.107 168.575 227.335C169.091 227.563 169.535 227.869 169.907 228.253C170.279 228.649 170.567 229.105 170.771 229.621C170.987 230.137 171.095 230.689 171.095 231.277C171.095 231.865 170.987 232.417 170.771 232.933C170.567 233.449 170.279 233.899 169.907 234.283C169.535 234.679 169.091 234.991 168.575 235.219C168.059 235.435 167.495 235.543 166.883 235.543C166.259 235.543 165.689 235.435 165.173 235.219ZM166.883 234.247C167.735 234.247 168.407 233.959 168.899 233.383C169.379 232.831 169.619 232.129 169.619 231.277C169.619 230.449 169.379 229.741 168.899 229.153C168.419 228.565 167.747 228.271 166.883 228.271C166.019 228.271 165.347 228.565 164.867 229.153C164.387 229.741 164.147 230.449 164.147 231.277C164.147 232.129 164.387 232.831 164.867 233.383C165.347 233.959 166.019 234.247 166.883 234.247ZM175.415 238.495H173.993V226.777H175.415V238.495ZM175.847 242.401H165.425C165.281 242.401 165.179 242.371 165.119 242.311C165.071 242.263 165.047 242.167 165.047 242.023V237.181H166.505V241.177H175.847V242.401ZM188.016 233.941C187.476 234.049 186.894 234.145 186.27 234.229C185.658 234.301 185.01 234.367 184.326 234.427C183.642 234.475 182.94 234.511 182.22 234.535C181.512 234.559 180.816 234.571 180.132 234.571H178.89C178.734 234.571 178.632 234.547 178.584 234.499C178.536 234.451 178.512 234.355 178.512 234.211V227.893C178.512 227.749 178.536 227.653 178.584 227.605C178.644 227.545 178.746 227.515 178.89 227.515H185.82V228.739H179.916V233.293H180.798C181.998 233.293 183.228 233.245 184.488 233.149C185.748 233.053 186.924 232.897 188.016 232.681V233.941ZM190.176 236.299H188.772V226.795H190.176V229.927H192.39V231.169H190.176V236.299ZM190.59 239.755C190.59 240.739 190.092 241.531 189.096 242.131C188.112 242.719 186.792 243.013 185.136 243.013C183.456 243.013 182.142 242.719 181.194 242.131C180.714 241.843 180.348 241.501 180.096 241.105C179.844 240.709 179.718 240.259 179.718 239.755C179.718 239.275 179.844 238.837 180.096 238.441C180.36 238.033 180.732 237.685 181.212 237.397C181.692 237.109 182.256 236.887 182.904 236.731C183.564 236.563 184.308 236.479 185.136 236.479C185.964 236.479 186.708 236.563 187.368 236.731C188.04 236.887 188.616 237.109 189.096 237.397C189.576 237.685 189.942 238.033 190.194 238.441C190.458 238.837 190.59 239.275 190.59 239.755ZM187.962 241.321C188.31 241.141 188.586 240.919 188.79 240.655C188.994 240.391 189.096 240.097 189.096 239.773C189.096 239.125 188.718 238.609 187.962 238.225C187.218 237.841 186.276 237.649 185.136 237.649C184.584 237.649 184.068 237.703 183.588 237.811C183.12 237.907 182.706 238.045 182.346 238.225C181.998 238.405 181.722 238.627 181.518 238.891C181.326 239.143 181.23 239.431 181.23 239.755C181.23 240.079 181.326 240.373 181.518 240.637C181.722 240.901 182.004 241.129 182.364 241.321C182.712 241.513 183.12 241.657 183.588 241.753C184.068 241.849 184.584 241.897 185.136 241.897C186.276 241.897 187.218 241.705 187.962 241.321ZM210.932 238.495H209.528V233.545H205.964C205.604 234.133 205.118 234.607 204.506 234.967C203.894 235.315 203.192 235.489 202.4 235.489C201.776 235.489 201.206 235.381 200.69 235.165C200.174 234.937 199.736 234.625 199.376 234.229C199.004 233.845 198.716 233.395 198.512 232.879C198.308 232.363 198.206 231.811 198.206 231.223C198.206 230.635 198.308 230.083 198.512 229.567C198.716 229.051 199.004 228.595 199.376 228.199C199.736 227.815 200.174 227.509 200.69 227.281C201.206 227.053 201.776 226.939 202.4 226.939C203.12 226.939 203.774 227.095 204.362 227.407C204.95 227.719 205.43 228.133 205.802 228.649H209.528V226.777H210.932V238.495ZM209.528 232.339V229.855H206.414C206.546 230.383 206.612 230.839 206.612 231.223C206.612 231.415 206.594 231.607 206.558 231.799C206.534 231.979 206.504 232.159 206.468 232.339H209.528ZM202.4 234.193C203.252 234.193 203.924 233.905 204.416 233.329C204.896 232.777 205.136 232.075 205.136 231.223C205.136 230.395 204.896 229.687 204.416 229.099C203.936 228.511 203.264 228.217 202.4 228.217C201.536 228.217 200.864 228.511 200.384 229.099C199.904 229.687 199.664 230.395 199.664 231.223C199.664 232.075 199.904 232.777 200.384 233.329C200.864 233.905 201.536 234.193 202.4 234.193ZM211.364 242.401H200.96C200.816 242.401 200.714 242.371 200.654 242.311C200.606 242.263 200.582 242.167 200.582 242.023V237.199H202.04V241.177H211.364V242.401ZM213.075 235.543C214.947 234.919 216.477 234.019 217.665 232.843C218.865 231.679 219.573 230.317 219.789 228.757H214.119V227.515H220.995C221.139 227.515 221.235 227.545 221.283 227.605C221.343 227.653 221.373 227.749 221.373 227.893C221.277 228.985 221.031 229.975 220.635 230.863C220.251 231.751 219.735 232.555 219.087 233.275C218.427 234.031 217.677 234.685 216.837 235.237C215.997 235.777 215.067 236.233 214.047 236.605L213.075 235.543ZM225.747 238.441H224.361V226.777H225.747V231.583H227.961V232.843H225.747V238.441ZM226.269 242.401H216.153C216.009 242.401 215.907 242.371 215.847 242.311C215.799 242.263 215.775 242.167 215.775 242.023V237.271H217.197V241.177H226.269V242.401ZM239.466 237.397C239.67 239.149 240.624 240.025 242.328 240.025C243.228 240.025 243.93 239.791 244.434 239.323C244.95 238.855 245.208 238.189 245.208 237.325C245.208 236.881 245.124 236.503 244.956 236.191C244.788 235.867 244.566 235.603 244.29 235.399C244.014 235.195 243.696 235.045 243.336 234.949C242.976 234.841 242.61 234.781 242.238 234.769H241.518C241.386 234.769 241.302 234.757 241.266 234.733C241.242 234.697 241.23 234.613 241.23 234.481V233.815C241.23 233.671 241.242 233.575 241.266 233.527C241.302 233.479 241.386 233.455 241.518 233.455H242.112C242.484 233.443 242.838 233.395 243.174 233.311C243.51 233.215 243.804 233.077 244.056 232.897C244.32 232.705 244.53 232.465 244.686 232.177C244.842 231.889 244.92 231.535 244.92 231.115C244.92 230.347 244.668 229.765 244.164 229.369C243.672 228.961 243.048 228.757 242.292 228.757C240.696 228.757 239.82 229.549 239.664 231.133H238.224C238.236 230.581 238.344 230.083 238.548 229.639C238.752 229.183 239.034 228.799 239.394 228.487C239.754 228.175 240.18 227.935 240.672 227.767C241.176 227.599 241.734 227.515 242.346 227.515C242.886 227.515 243.396 227.587 243.876 227.731C244.356 227.863 244.782 228.073 245.154 228.361C245.526 228.649 245.82 229.015 246.036 229.459C246.252 229.903 246.36 230.431 246.36 231.043C246.36 231.427 246.294 231.793 246.162 232.141C246.042 232.477 245.862 232.783 245.622 233.059C245.394 233.335 245.112 233.569 244.776 233.761C244.452 233.953 244.092 234.085 243.696 234.157C244.14 234.217 244.542 234.343 244.902 234.535C245.262 234.727 245.568 234.967 245.82 235.255C246.084 235.543 246.288 235.879 246.432 236.263C246.576 236.647 246.648 237.055 246.648 237.487C246.648 238.159 246.522 238.735 246.27 239.215C246.03 239.683 245.706 240.073 245.298 240.385C244.902 240.685 244.44 240.907 243.912 241.051C243.384 241.195 242.838 241.267 242.274 241.267C241.626 241.267 241.044 241.177 240.528 240.997C240.012 240.829 239.574 240.577 239.214 240.241C238.854 239.905 238.572 239.497 238.368 239.017C238.164 238.537 238.056 237.997 238.044 237.397H239.466ZM249.771 237.757C249.891 238.489 250.197 239.059 250.689 239.467C251.193 239.863 251.811 240.061 252.543 240.061C252.915 240.061 253.263 239.989 253.587 239.845C253.923 239.689 254.205 239.467 254.433 239.179C254.673 238.891 254.859 238.549 254.991 238.153C255.135 237.745 255.207 237.289 255.207 236.785C255.207 235.669 254.955 234.841 254.451 234.301C253.959 233.749 253.329 233.473 252.561 233.473C251.949 233.473 251.421 233.623 250.977 233.923C250.533 234.223 250.233 234.643 250.077 235.183C250.041 235.279 250.005 235.357 249.969 235.417C249.933 235.465 249.849 235.489 249.717 235.489H248.853C248.745 235.489 248.679 235.477 248.655 235.453C248.631 235.417 248.619 235.339 248.619 235.219L248.817 228.163C248.829 228.031 248.853 227.941 248.889 227.893C248.925 227.845 248.997 227.821 249.105 227.821H255.963V229.045H250.203L249.951 233.473C250.227 233.089 250.617 232.795 251.121 232.591C251.637 232.387 252.219 232.285 252.867 232.285C253.383 232.285 253.869 232.381 254.325 232.573C254.793 232.753 255.195 233.029 255.531 233.401C255.879 233.761 256.149 234.223 256.341 234.787C256.545 235.351 256.647 236.011 256.647 236.767C256.647 237.427 256.545 238.033 256.341 238.585C256.149 239.137 255.873 239.611 255.513 240.007C255.153 240.403 254.715 240.709 254.199 240.925C253.683 241.153 253.113 241.267 252.489 241.267C251.925 241.267 251.397 241.189 250.905 241.033C250.413 240.889 249.981 240.667 249.609 240.367C249.249 240.067 248.955 239.701 248.727 239.269C248.511 238.825 248.385 238.321 248.349 237.757H249.771ZM264.449 233.869V228.757H259.931V233.869H264.449ZM265.853 234.697C265.853 234.841 265.823 234.943 265.763 235.003C265.715 235.051 265.619 235.075 265.475 235.075H258.923C258.779 235.075 258.677 235.051 258.617 235.003C258.569 234.943 258.545 234.841 258.545 234.697V227.911C258.545 227.767 258.569 227.671 258.617 227.623C258.677 227.563 258.779 227.533 258.923 227.533H265.475C265.619 227.533 265.715 227.563 265.763 227.623C265.823 227.671 265.853 227.767 265.853 227.911V234.697ZM270.335 238.495H268.931V226.813H270.335V230.845H272.531V232.105H270.335V238.495ZM270.839 242.401H260.651C260.507 242.401 260.405 242.371 260.345 242.311C260.297 242.263 260.273 242.167 260.273 242.023V237.181H261.713V241.177H270.839V242.401ZM274.638 229.747C274.638 228.907 274.968 228.193 275.628 227.605C276.288 226.993 277.272 226.687 278.58 226.687C279.228 226.687 279.798 226.765 280.29 226.921C280.782 227.077 281.196 227.293 281.532 227.569C281.868 227.845 282.12 228.169 282.288 228.541C282.468 228.913 282.558 229.315 282.558 229.747C282.558 230.647 282.21 231.367 281.514 231.907C280.83 232.447 279.852 232.717 278.58 232.717C277.284 232.717 276.3 232.441 275.628 231.889C274.968 231.325 274.638 230.611 274.638 229.747ZM280.542 231.025C280.926 230.677 281.118 230.251 281.118 229.747C281.118 229.495 281.07 229.255 280.974 229.027C280.89 228.799 280.746 228.607 280.542 228.451C280.35 228.283 280.092 228.151 279.768 228.055C279.444 227.959 279.048 227.911 278.58 227.911C278.1 227.911 277.698 227.959 277.374 228.055C277.05 228.151 276.786 228.283 276.582 228.451C276.39 228.619 276.252 228.817 276.168 229.045C276.084 229.261 276.042 229.495 276.042 229.747C276.042 230.251 276.228 230.671 276.6 231.007C276.984 231.343 277.644 231.511 278.58 231.511C279.504 231.511 280.158 231.349 280.542 231.025ZM284.394 234.553C284.07 234.613 283.68 234.667 283.224 234.715C282.768 234.763 282.27 234.805 281.73 234.841C281.19 234.877 280.638 234.907 280.074 234.931C279.522 234.955 278.988 234.967 278.472 234.967V237.541H277.05V235.003H273.414V233.797H278.202C278.634 233.797 279.138 233.785 279.714 233.761C280.302 233.737 280.902 233.701 281.514 233.653C282.102 233.605 282.654 233.557 283.17 233.509C283.698 233.461 284.106 233.407 284.394 233.347V234.553ZM286.446 238.945H285.06V237.397H281.28V236.245H285.06V226.795H286.446V238.945ZM286.788 242.401H276.384C276.24 242.401 276.138 242.371 276.078 242.311C276.03 242.263 276.006 242.167 276.006 242.023V238.387H277.482V241.177H286.788V242.401ZM135.61 270.301C135.034 269.713 134.518 269.071 134.062 268.375C133.618 267.679 133.234 266.959 132.91 266.215C132.598 265.459 132.358 264.697 132.19 263.929C132.034 263.149 131.956 262.393 131.956 261.661C131.956 260.929 132.04 260.179 132.208 259.411C132.376 258.631 132.616 257.869 132.928 257.125C133.24 256.381 133.618 255.661 134.062 254.965C134.518 254.269 135.034 253.621 135.61 253.021H136.69C135.598 254.437 134.8 255.877 134.296 257.341C133.804 258.805 133.558 260.245 133.558 261.661C133.558 263.077 133.804 264.517 134.296 265.981C134.8 267.445 135.598 268.885 136.69 270.301H135.61ZM138.248 257.701C138.248 256.585 138.752 255.685 139.76 255.001C140.744 254.305 142.13 253.957 143.918 253.957C144.794 253.957 145.58 254.047 146.276 254.227C146.984 254.395 147.578 254.641 148.058 254.965C148.55 255.289 148.922 255.685 149.174 256.153C149.438 256.609 149.57 257.125 149.57 257.701C149.57 258.817 149.072 259.717 148.076 260.401C147.08 261.073 145.694 261.409 143.918 261.409C143.042 261.409 142.256 261.325 141.56 261.157C140.864 260.977 140.264 260.725 139.76 260.401C138.752 259.741 138.248 258.841 138.248 257.701ZM148.058 257.701C148.058 256.873 147.668 256.243 146.888 255.811C146.12 255.367 145.13 255.145 143.918 255.145C143.294 255.145 142.724 255.205 142.208 255.325C141.704 255.433 141.266 255.595 140.894 255.811C140.534 256.027 140.252 256.297 140.048 256.621C139.856 256.933 139.76 257.293 139.76 257.701C139.76 258.109 139.862 258.469 140.066 258.781C140.282 259.093 140.576 259.357 140.948 259.573C141.32 259.789 141.758 259.951 142.262 260.059C142.778 260.167 143.33 260.221 143.918 260.221C145.106 260.221 146.09 260.005 146.87 259.573C147.662 259.129 148.058 258.505 148.058 257.701ZM151.226 264.127H144.674V269.761H143.216V264.127H136.628V262.903H151.226V264.127ZM164.925 260.851C164.349 260.707 163.773 260.521 163.197 260.293C162.621 260.053 162.075 259.771 161.559 259.447C161.043 259.123 160.581 258.763 160.173 258.367C159.777 257.971 159.477 257.533 159.273 257.053C159.009 257.557 158.673 258.013 158.265 258.421C157.857 258.817 157.401 259.165 156.897 259.465C156.393 259.777 155.865 260.047 155.313 260.275C154.761 260.503 154.197 260.695 153.621 260.851L152.631 259.735C156.519 258.799 158.463 257.221 158.463 255.001V254.155H160.047V254.983C160.047 255.631 160.209 256.213 160.533 256.729C160.857 257.233 161.289 257.683 161.829 258.079C162.369 258.475 162.987 258.811 163.683 259.087C164.379 259.363 165.093 259.573 165.825 259.717L164.925 260.851ZM166.563 263.821H160.047V269.761H158.589V263.821H151.965V262.597H166.563V263.821ZM174.863 264.793C174.503 265.297 174.083 265.675 173.603 265.927C173.135 266.167 172.631 266.287 172.091 266.287C171.539 266.287 171.023 266.167 170.543 265.927C170.063 265.687 169.643 265.315 169.283 264.811C168.923 264.307 168.641 263.683 168.437 262.939C168.233 262.183 168.131 261.277 168.131 260.221C168.131 259.165 168.233 258.259 168.437 257.503C168.641 256.747 168.917 256.117 169.265 255.613C169.625 255.109 170.039 254.743 170.507 254.515C170.987 254.275 171.515 254.155 172.091 254.155C172.631 254.155 173.135 254.281 173.603 254.533C174.083 254.773 174.503 255.145 174.863 255.649C175.223 256.153 175.505 256.777 175.709 257.521C175.925 258.265 176.033 259.165 176.033 260.221C176.033 261.277 175.925 262.177 175.709 262.921C175.505 263.665 175.223 264.289 174.863 264.793ZM173.207 264.631C173.375 264.499 173.525 264.343 173.657 264.163C173.789 263.983 173.903 263.791 173.999 263.587C174.203 263.155 174.353 262.651 174.449 262.075C174.557 261.487 174.611 260.869 174.611 260.221C174.611 259.573 174.557 258.967 174.449 258.403C174.353 257.827 174.203 257.317 173.999 256.873C173.795 256.441 173.531 256.093 173.207 255.829C172.895 255.565 172.523 255.433 172.091 255.433C171.647 255.433 171.263 255.565 170.939 255.829C170.615 256.093 170.351 256.447 170.147 256.891C169.931 257.335 169.775 257.845 169.679 258.421C169.583 258.997 169.535 259.597 169.535 260.221C169.535 260.869 169.583 261.487 169.679 262.075C169.787 262.651 169.943 263.155 170.147 263.587C170.363 264.031 170.627 264.379 170.939 264.631C171.263 264.883 171.647 265.009 172.091 265.009C172.523 265.009 172.895 264.883 173.207 264.631ZM180.569 269.761H179.147V253.777H180.569V269.761ZM195.276 268.267C194.928 268.807 194.316 269.239 193.44 269.563C192.564 269.887 191.4 270.049 189.948 270.049C188.988 270.049 188.148 269.971 187.428 269.815C186.72 269.671 186.126 269.467 185.646 269.203C185.166 268.939 184.806 268.627 184.566 268.267C184.338 267.907 184.224 267.511 184.224 267.079C184.224 266.215 184.698 265.507 185.646 264.955C186.606 264.403 188.04 264.127 189.948 264.127C190.896 264.127 191.724 264.205 192.432 264.361C193.152 264.505 193.746 264.709 194.214 264.973C194.694 265.237 195.048 265.549 195.276 265.909C195.516 266.269 195.636 266.665 195.636 267.097C195.636 267.493 195.516 267.883 195.276 268.267ZM192.936 268.447C193.68 268.123 194.052 267.673 194.052 267.097C194.052 266.485 193.686 266.017 192.954 265.693C192.222 265.357 191.22 265.189 189.948 265.189C188.604 265.189 187.572 265.357 186.852 265.693C186.144 266.029 185.79 266.491 185.79 267.079C185.79 267.667 186.144 268.123 186.852 268.447C187.572 268.783 188.604 268.951 189.948 268.951C191.268 268.951 192.264 268.783 192.936 268.447ZM191.892 261.625V259.609C191.592 259.681 191.274 259.729 190.938 259.753C190.602 259.777 190.266 259.789 189.93 259.789C189.594 259.789 189.258 259.777 188.922 259.753C188.598 259.729 188.304 259.687 188.04 259.627V261.625H191.892ZM192.864 258.133C193.632 257.773 194.016 257.305 194.016 256.729C194.016 256.153 193.65 255.679 192.918 255.307C192.186 254.935 191.19 254.749 189.93 254.749C188.622 254.749 187.614 254.929 186.906 255.289C186.21 255.649 185.862 256.117 185.862 256.693C185.862 257.245 186.234 257.713 186.978 258.097C187.71 258.469 188.694 258.655 189.93 258.655C191.022 258.655 192 258.481 192.864 258.133ZM197.238 262.849H182.622V261.625H186.636V259.285C185.868 258.997 185.292 258.631 184.908 258.187C184.536 257.743 184.35 257.251 184.35 256.711C184.35 255.883 184.818 255.169 185.754 254.569C186.714 253.969 188.106 253.669 189.93 253.669C191.826 253.669 193.236 253.975 194.16 254.587C195.084 255.187 195.546 255.907 195.546 256.747C195.546 257.263 195.354 257.743 194.97 258.187C194.598 258.631 194.034 258.997 193.278 259.285V261.625H197.238V262.849ZM207.193 255.901H203.683V257.449C203.683 259.081 204.037 260.521 204.745 261.769C205.477 263.113 206.587 264.211 208.075 265.063C207.919 265.195 207.739 265.363 207.535 265.567C207.331 265.771 207.169 265.939 207.049 266.071C206.641 265.819 206.245 265.531 205.861 265.207C205.477 264.883 205.123 264.523 204.799 264.127C204.019 263.239 203.407 262.225 202.963 261.085C202.807 261.625 202.585 262.153 202.297 262.669C202.021 263.173 201.703 263.659 201.343 264.127C200.983 264.631 200.593 265.087 200.173 265.495C199.753 265.891 199.345 266.227 198.949 266.503C198.781 266.359 198.577 266.197 198.337 266.017C198.109 265.837 197.887 265.675 197.671 265.531C198.403 265.087 199.051 264.583 199.615 264.019C200.179 263.455 200.653 262.813 201.037 262.093C201.421 261.409 201.715 260.659 201.919 259.843C202.123 259.027 202.225 258.151 202.225 257.215V255.901H198.823V254.695H207.193V255.901ZM210.631 269.743H209.227V253.777H210.631V259.897H213.007V261.175H210.631V269.743ZM221.793 267.961H220.191L225.123 256.063H218.517V254.821H226.293C226.521 254.821 226.635 254.935 226.635 255.163V255.847C226.635 255.943 226.617 256.033 226.581 256.117C226.557 256.201 226.527 256.279 226.491 256.351L221.793 267.961ZM233.628 266.755C234.024 266.515 234.336 266.179 234.564 265.747C234.804 265.315 234.984 264.841 235.104 264.325C235.236 263.809 235.32 263.287 235.356 262.759C235.392 262.231 235.41 261.751 235.41 261.319C235.41 260.815 235.38 260.233 235.32 259.573C235.26 258.901 235.128 258.265 234.924 257.665C234.732 257.065 234.444 256.561 234.06 256.153C233.676 255.733 233.16 255.523 232.512 255.523C231.876 255.523 231.372 255.733 231 256.153C230.64 256.561 230.364 257.065 230.172 257.665C229.992 258.265 229.878 258.901 229.83 259.573C229.782 260.233 229.758 260.815 229.758 261.319C229.758 261.655 229.764 262.027 229.776 262.435C229.8 262.843 229.842 263.263 229.902 263.695C229.962 264.115 230.052 264.529 230.172 264.937C230.292 265.333 230.454 265.687 230.658 265.999C230.862 266.311 231.114 266.563 231.414 266.755C231.714 266.947 232.08 267.043 232.512 267.043C232.956 267.043 233.328 266.947 233.628 266.755ZM236.058 266.071C235.746 266.731 235.302 267.265 234.726 267.673C234.15 268.093 233.412 268.303 232.512 268.303C231.624 268.303 230.904 268.093 230.352 267.673C229.8 267.265 229.368 266.731 229.056 266.071C228.744 265.411 228.534 264.667 228.426 263.839C228.318 262.999 228.264 262.159 228.264 261.319C228.264 260.479 228.318 259.639 228.426 258.799C228.534 257.959 228.744 257.203 229.056 256.531C229.368 255.859 229.8 255.319 230.352 254.911C230.904 254.491 231.624 254.281 232.512 254.281C233.412 254.281 234.144 254.491 234.708 254.911C235.284 255.319 235.734 255.859 236.058 256.531C236.382 257.203 236.604 257.959 236.724 258.799C236.844 259.639 236.904 260.479 236.904 261.319C236.904 262.183 236.844 263.023 236.724 263.839C236.604 264.643 236.382 265.387 236.058 266.071ZM244.598 260.869V255.757H240.08V260.869H244.598ZM246.002 261.697C246.002 261.841 245.972 261.943 245.912 262.003C245.864 262.051 245.768 262.075 245.624 262.075H239.072C238.928 262.075 238.826 262.051 238.766 262.003C238.718 261.943 238.694 261.841 238.694 261.697V254.911C238.694 254.767 238.718 254.671 238.766 254.623C238.826 254.563 238.928 254.533 239.072 254.533H245.624C245.768 254.533 245.864 254.563 245.912 254.623C245.972 254.671 246.002 254.767 246.002 254.911V261.697ZM250.484 265.495H249.08V253.813H250.484V257.845H252.68V259.105H250.484V265.495ZM250.988 269.401H240.8C240.656 269.401 240.554 269.371 240.494 269.311C240.446 269.263 240.422 269.167 240.422 269.023V264.181H241.862V268.177H250.988V269.401ZM254.787 256.747C254.787 255.907 255.117 255.193 255.777 254.605C256.437 253.993 257.421 253.687 258.729 253.687C259.377 253.687 259.947 253.765 260.439 253.921C260.931 254.077 261.345 254.293 261.681 254.569C262.017 254.845 262.269 255.169 262.437 255.541C262.617 255.913 262.707 256.315 262.707 256.747C262.707 257.647 262.359 258.367 261.663 258.907C260.979 259.447 260.001 259.717 258.729 259.717C257.433 259.717 256.449 259.441 255.777 258.889C255.117 258.325 254.787 257.611 254.787 256.747ZM260.691 258.025C261.075 257.677 261.267 257.251 261.267 256.747C261.267 256.495 261.219 256.255 261.123 256.027C261.039 255.799 260.895 255.607 260.691 255.451C260.499 255.283 260.241 255.151 259.917 255.055C259.593 254.959 259.197 254.911 258.729 254.911C258.249 254.911 257.847 254.959 257.523 255.055C257.199 255.151 256.935 255.283 256.731 255.451C256.539 255.619 256.401 255.817 256.317 256.045C256.233 256.261 256.191 256.495 256.191 256.747C256.191 257.251 256.377 257.671 256.749 258.007C257.133 258.343 257.793 258.511 258.729 258.511C259.653 258.511 260.307 258.349 260.691 258.025ZM264.543 261.553C264.219 261.613 263.829 261.667 263.373 261.715C262.917 261.763 262.419 261.805 261.879 261.841C261.339 261.877 260.787 261.907 260.223 261.931C259.671 261.955 259.137 261.967 258.621 261.967V264.541H257.199V262.003H253.563V260.797H258.351C258.783 260.797 259.287 260.785 259.863 260.761C260.451 260.737 261.051 260.701 261.663 260.653C262.251 260.605 262.803 260.557 263.319 260.509C263.847 260.461 264.255 260.407 264.543 260.347V261.553ZM266.595 265.945H265.209V264.397H261.429V263.245H265.209V253.795H266.595V265.945ZM266.937 269.401H256.533C256.389 269.401 256.287 269.371 256.227 269.311C256.179 269.263 256.155 269.167 256.155 269.023V265.387H257.631V268.177H266.937V269.401ZM267.875 270.301C268.967 268.885 269.759 267.445 270.251 265.981C270.755 264.517 271.007 263.077 271.007 261.661C271.007 260.245 270.755 258.805 270.251 257.341C269.759 255.877 268.967 254.437 267.875 253.021H268.955C269.531 253.621 270.041 254.269 270.485 254.965C270.941 255.661 271.325 256.381 271.637 257.125C271.949 257.869 272.189 258.631 272.357 259.411C272.525 260.179 272.609 260.929 272.609 261.661C272.609 262.393 272.525 263.149 272.357 263.929C272.201 264.697 271.961 265.459 271.637 266.215C271.325 266.959 270.941 267.679 270.485 268.375C270.041 269.071 269.531 269.713 268.955 270.301H267.875ZM287.902 266.125C287.482 265.849 287.074 265.537 286.678 265.189C286.282 264.841 285.892 264.457 285.508 264.037C284.752 263.209 284.188 262.243 283.816 261.139C283.648 261.679 283.414 262.213 283.114 262.741C282.814 263.257 282.472 263.755 282.088 264.235C281.716 264.703 281.314 265.135 280.882 265.531C280.462 265.927 280.054 266.269 279.658 266.557L278.488 265.567C279.928 264.667 281.05 263.527 281.854 262.147C282.67 260.767 283.078 259.141 283.078 257.269V255.901H279.64V254.695H288.028V255.901H284.554V257.503C284.554 259.243 284.908 260.731 285.616 261.967C286.324 263.191 287.428 264.235 288.928 265.099L287.902 266.125ZM292.096 269.761H290.674V253.813H292.096V269.761ZM295.535 256.747C295.535 255.907 295.865 255.193 296.525 254.605C297.185 253.993 298.169 253.687 299.477 253.687C300.125 253.687 300.695 253.765 301.187 253.921C301.679 254.077 302.093 254.293 302.429 254.569C302.765 254.845 303.017 255.169 303.185 255.541C303.365 255.913 303.455 256.315 303.455 256.747C303.455 257.647 303.107 258.367 302.411 258.907C301.727 259.447 300.749 259.717 299.477 259.717C298.181 259.717 297.197 259.441 296.525 258.889C295.865 258.325 295.535 257.611 295.535 256.747ZM301.439 258.025C301.823 257.677 302.015 257.251 302.015 256.747C302.015 256.495 301.967 256.255 301.871 256.027C301.787 255.799 301.643 255.607 301.439 255.451C301.247 255.283 300.989 255.151 300.665 255.055C300.341 254.959 299.945 254.911 299.477 254.911C298.997 254.911 298.595 254.959 298.271 255.055C297.947 255.151 297.683 255.283 297.479 255.451C297.287 255.619 297.149 255.817 297.065 256.045C296.981 256.261 296.939 256.495 296.939 256.747C296.939 257.251 297.125 257.671 297.497 258.007C297.881 258.343 298.541 258.511 299.477 258.511C300.401 258.511 301.055 258.349 301.439 258.025ZM305.291 261.553C304.967 261.613 304.577 261.667 304.121 261.715C303.665 261.763 303.167 261.805 302.627 261.841C302.087 261.877 301.535 261.907 300.971 261.931C300.419 261.955 299.885 261.967 299.369 261.967V264.541H297.947V262.003H294.311V260.797H299.099C299.531 260.797 300.035 260.785 300.611 260.761C301.199 260.737 301.799 260.701 302.411 260.653C302.999 260.605 303.551 260.557 304.067 260.509C304.595 260.461 305.003 260.407 305.291 260.347V261.553ZM307.343 265.945H305.957V264.397H302.177V263.245H305.957V253.795H307.343V265.945ZM307.685 269.401H297.281C297.137 269.401 297.035 269.371 296.975 269.311C296.927 269.263 296.903 269.167 296.903 269.023V265.387H298.379V268.177H307.685V269.401Z" fill="black"/>
</g>
<defs>
<clipPath id="clip0_10_2906">
<rect width="440" height="440" fill="white"/>
</clipPath>
</defs>
</svg>
