<svg width="80" height="80" viewBox="0 0 80 80" fill="none" xmlns="http://www.w3.org/2000/svg">
<rect width="80" height="80" fill="#F8F8F8"/>
<path d="M16 69.2996L16 21.1058C16 19.2446 17.7318 17.4054 20.2965 17.4054L58.7846 17.4054C61.3493 17.4054 63.0811 19.2446 63.0811 21.1058L63.0811 69.2996C63.0811 71.1608 61.3493 73 58.7846 73L20.2965 73C17.7318 73 16 71.1608 16 69.2996Z" fill="white" stroke="#B9C2D2" stroke-width="4"/>
<path d="M45.1549 53.4848L34.2782 53.4848C32.2529 53.4848 30.6109 51.8428 30.6069 49.8135L30.6069 48.7404C30.6069 43.7135 34.6816 39.6388 39.7085 39.6388L39.7246 39.6388C44.7515 39.6388 48.8262 43.7135 48.8262 48.7404L48.8262 49.8135C48.8262 51.8388 47.1842 53.4808 45.1549 53.4848Z" fill="#EF6250"/>
<path d="M47.8877 61.7264L46.179 61.7264C45.0608 61.7264 44.1474 60.813 44.1474 59.6948C44.1474 58.5767 45.0608 57.6633 46.179 57.6633L47.8876 57.6633C49.0058 57.6633 49.9192 58.5767 49.9192 59.6948C49.9192 60.813 49.0058 61.7264 47.8877 61.7264Z" fill="#F9D2C0"/>
<path d="M40.4323 61.7264L38.7236 61.7263C37.6055 61.7263 36.6921 60.813 36.6921 59.6948C36.6921 58.5767 37.6055 57.6633 38.7236 57.6633L40.4323 57.6633C41.5505 57.6633 42.4639 58.5767 42.4639 59.6948C42.4639 60.813 41.5505 61.7264 40.4323 61.7264Z" fill="#F9D2C0"/>
<path d="M32.9899 61.7264L31.2813 61.7264C30.1631 61.7264 29.2497 60.813 29.2497 59.6948C29.2497 58.5767 30.1631 57.6633 31.2813 57.6633L32.9899 57.6633C34.1081 57.6633 35.0215 58.5767 35.0215 59.6948C35.0215 60.813 34.1081 61.7264 32.9899 61.7264Z" fill="#F9D2C0"/>
<path d="M44.7056 19.5712L34.1887 19.8049C32.9676 19.832 31.961 20.8387 31.9339 22.0597C31.9067 23.2808 32.8696 24.2436 34.0906 24.2165L44.6076 23.9828C45.8286 23.9557 46.8353 22.949 46.8624 21.728C46.8895 20.5069 45.9267 19.5441 44.7056 19.5712Z" fill="#F9D2C0"/>
<path d="M39.0204 11.2595C39.02 10.0869 39.2026 9.11047 39.5375 8.50661C39.7181 8.18044 39.9297 7.98655 40.106 7.9866C40.5821 7.98676 41.4377 9.08034 41.4384 11.2581C41.4393 13.8812 40.7628 14.0964 40.4281 15.4056L42.4781 15.4063C42.9161 13.6144 43.4274 13.7628 43.4266 11.2588C43.4255 7.80691 41.7519 5.9967 40.1032 5.99617C39.1818 5.99587 38.3377 6.55769 37.7936 7.5384C37.2847 8.4574 37.025 9.70933 37.0255 11.2567C37.0272 16.3794 38.4965 20.5414 39.1297 22.0956C39.2863 22.4814 39.6589 22.7174 40.0534 22.7153C40.1769 22.7154 40.3047 22.6934 40.4281 22.6405C40.9372 22.4357 41.1817 21.8516 40.9744 21.3446C40.5155 20.2159 39.0197 16.1596 39.0182 11.2573L39.0204 11.2595Z" fill="#EF6250"/>
<path d="M14 66.0137H65.0811C65.0811 70.9768 61.0577 75.0002 56.0946 75.0002H22.9865C18.0234 75.0002 14 70.9768 14 66.0137Z" fill="#EF6250"/>
<circle cx="39.5406" cy="35.7149" r="5.2027" fill="#EF6250"/>
</svg>
