<svg width="80" height="80" viewBox="0 0 80 80" fill="none" xmlns="http://www.w3.org/2000/svg">
<rect width="80" height="80" fill="#F8F8F8"/>
<path d="M10.6006 11.9727H54.0093C55.9914 11.9727 57.6099 13.5868 57.6099 15.5924V68.8918C57.6099 70.8974 55.9914 72.5116 54.0093 72.5116H10.6006C8.61848 72.5116 7 70.8974 7 68.8918V15.5924C7 13.5868 8.61848 11.9727 10.6006 11.9727Z" fill="white" stroke="#B9C2D2" stroke-width="4"/>
<path d="M31.6077 29.3515H23.2764C22.0153 29.3515 20.9939 28.3312 20.9939 27.0715C20.9939 25.8118 22.0153 24.7915 23.2764 24.7915H31.6077C32.8688 24.7915 33.8903 25.8118 33.8903 27.0715C33.8903 28.3312 32.8688 29.3515 31.6077 29.3515Z" fill="#F9D2C0"/>
<path d="M40.8871 29.3515H38.9869C37.7258 29.3515 36.7043 28.3312 36.7043 27.0715C36.7043 25.8118 37.7258 24.7915 38.9869 24.7915H40.8871C42.1482 24.7915 43.1696 25.8118 43.1696 27.0715C43.1696 28.3312 42.1482 29.3515 40.8871 29.3515Z" fill="#F9D2C0"/>
<path d="M47.227 39.223H17.2115C15.9504 39.223 14.929 38.2028 14.929 36.9431C14.929 35.6834 15.9504 34.6631 17.2115 34.6631H47.227C48.4881 34.6631 49.5095 35.6834 49.5095 36.9431C49.5095 38.2028 48.4881 39.223 47.227 39.223Z" fill="#F9D2C0"/>
<path d="M42.0928 46.9926H26.8397C25.5786 46.9926 24.5571 45.9723 24.5571 44.7126C24.5571 43.4529 25.5786 42.4326 26.8397 42.4326H42.0928C43.3539 42.4326 44.3753 43.4529 44.3753 44.7126C44.3753 45.9723 43.3539 46.9926 42.0928 46.9926Z" fill="#F9D2C0"/>
<path d="M19.5801 46.9926H17.2176C15.9565 46.9926 14.9351 45.9723 14.9351 44.7126C14.9351 43.4529 15.9565 42.4326 17.2176 42.4326H19.5801C20.8412 42.4326 21.8626 43.4529 21.8626 44.7126C21.8626 45.9723 20.8412 46.9926 19.5801 46.9926Z" fill="#F9D2C0"/>
<path d="M42.0913 54.768H17.2115C15.9504 54.768 14.929 53.7477 14.929 52.488C14.929 51.2283 15.9504 50.208 17.2115 50.208H42.0913C43.3524 50.208 44.3738 51.2283 44.3738 52.488C44.3738 53.7477 43.3524 54.768 42.0913 54.768Z" fill="#F9D2C0"/>
<path d="M43.8048 62.5434H38.4979C37.2368 62.5434 36.2153 61.5231 36.2153 60.2634C36.2153 59.0037 37.2368 57.9834 38.4979 57.9834H43.8048C45.0659 57.9834 46.0873 59.0037 46.0873 60.2634C46.0873 61.5231 45.0659 62.5434 43.8048 62.5434Z" fill="#F9D2C0"/>
<path d="M31.2891 62.5434H17.2115C15.9504 62.5434 14.929 61.5231 14.929 60.2634C14.929 59.0037 15.9504 57.9834 17.2115 57.9834H31.2891C32.5502 57.9834 33.5717 59.0037 33.5717 60.2634C33.5717 61.5231 32.5502 62.5434 31.2891 62.5434Z" fill="#F9D2C0"/>
<path d="M39.8086 16.2314H21.5482C19.2885 16.2314 17.4568 14.4017 17.4568 12.1445V8.51368C17.4568 7.12859 18.5809 6 19.9733 6H41.3893C42.7759 6 43.9058 7.12289 43.9058 8.51368V12.1445C43.9058 14.4017 42.0741 16.2314 39.8143 16.2314H39.8086Z" fill="#FFA943"/>
<path d="M62.8345 70.4655C58.9513 67.8424 50.6738 61.0948 50.6738 51.2561V48.3411C55.2206 47.5394 59.4134 45.5791 62.8345 42.6641C66.2556 45.5791 70.4533 47.544 75 48.3411V51.2561C75 61.0948 66.7176 67.8424 62.8345 70.4655Z" fill="#FFA943"/>
<path d="M62.2347 62.5223C61.7521 62.5223 61.2936 62.3177 60.9703 61.9609L57.0565 57.6172C56.4388 56.9273 56.5016 55.8759 57.1965 55.2669C57.8914 54.6579 58.9628 54.7198 59.5805 55.4049L62.1285 58.2357L67.4997 51.2657C68.0643 50.533 69.126 50.3903 69.8643 50.9469C70.6075 51.5036 70.7523 52.5503 70.1877 53.2782L63.5714 61.861C63.2674 62.2559 62.7945 62.4985 62.2926 62.5175C62.2685 62.5175 62.2491 62.5175 62.2298 62.5175L62.2347 62.5223Z" fill="white"/>
</svg>
