<svg width="80" height="80" viewBox="0 0 80 80" fill="none" xmlns="http://www.w3.org/2000/svg">
<rect width="80" height="80" fill="#F8F8F8"/>
<g clip-path="url(#clip0_5_2237)">
<path d="M14.7899 11H44.3121L59.4627 26.431V65.091C59.4627 67.2167 57.7531 68.9048 55.7546 68.9048H14.7899C12.7914 68.9048 11.0818 67.2167 11.0818 65.091V14.8138C11.0818 12.6881 12.7914 11 14.7899 11Z" fill="white" stroke="#B9C2D2" stroke-width="4"/>
<path d="M44.5237 8.04785V19.8107C44.5237 23.2913 47.2254 26.1431 50.5228 26.1431H61.6665L44.5237 8.04785Z" fill="#95D8BB"/>
<path d="M32.2202 23.2746C32.4749 20.4117 30.1919 17.8984 27.1211 17.6611C24.0504 17.4237 21.3546 19.5521 21.1 22.4149C20.8453 25.2778 23.1283 27.7911 26.1991 28.0285C29.2698 28.2658 31.9656 26.1375 32.2202 23.2746Z" fill="#27C590"/>
<path d="M32.0381 39.3449H21.2737C19.7037 39.3449 18.4277 38.1553 18.4277 36.6917V34.5924C18.4277 30.3531 22.1118 26.9185 26.659 26.9185C31.2062 26.9185 34.8902 30.3531 34.8902 34.5924V36.6917C34.8902 38.1553 33.6143 39.3449 32.0443 39.3449H32.0381Z" fill="#27C590"/>
<path d="M23.7236 51.632H20.4617C19.3367 51.632 18.4216 50.6407 18.4216 49.422C18.4216 48.2032 19.3367 47.2119 20.4617 47.2119H23.7236C24.8486 47.2119 25.7637 48.2032 25.7637 49.422C25.7637 50.6407 24.8486 51.632 23.7236 51.632Z" fill="#C5E8DC"/>
<path d="M47.0245 51.632H29.9128C28.7879 51.632 27.8728 50.6407 27.8728 49.422C27.8728 48.2032 28.7879 47.2119 29.9128 47.2119H47.0245C48.1495 47.2119 49.0645 48.2032 49.0645 49.422C49.0645 50.6407 48.1495 51.632 47.0245 51.632Z" fill="#C5E8DC"/>
<path d="M32.9667 59.0319H20.468C19.343 59.0319 18.428 58.0406 18.428 56.8219C18.428 55.6031 19.343 54.6118 20.468 54.6118H32.9667C34.0917 54.6118 35.0067 55.6031 35.0067 56.8219C35.0067 58.0406 34.0917 59.0319 32.9667 59.0319Z" fill="#C5E8DC"/>
<path d="M40.2649 59.0319H39.156C38.031 59.0319 37.116 58.0406 37.116 56.8219C37.116 55.6031 38.031 54.6118 39.156 54.6118H40.2649C41.3898 54.6118 42.3049 55.6031 42.3049 56.8219C42.3049 58.0406 41.3898 59.0319 40.2649 59.0319Z" fill="#C5E8DC"/>
</g>
<path d="M62.619 71.381C69.4568 71.381 74.9999 65.8379 74.9999 59.0001C74.9999 52.1623 69.4568 46.6191 62.619 46.6191C55.7812 46.6191 50.238 52.1623 50.238 59.0001C50.238 65.8379 55.7812 71.381 62.619 71.381Z" fill="#7C9FEB"/>
<path d="M57.77 57.3146C58.0163 56.5217 58.4396 55.8213 59.0285 55.2286C60.9066 53.3505 63.9008 53.2581 65.8944 54.94L65.0939 55.7405C64.6667 56.1677 64.8899 56.8989 65.4826 57.0144L69.7353 57.8456C70.2587 57.9496 70.7205 57.4877 70.6205 56.9605L69.7892 52.7078C69.6737 52.1151 68.9425 51.8919 68.5153 52.3191L67.6917 53.1427C64.7052 50.4717 60.1061 50.5718 57.2389 53.4352C56.3652 54.3088 55.7148 55.3902 55.3492 56.5602C55.2068 57.0259 55.3415 57.5108 55.6648 57.8303C55.8072 57.9727 55.9804 58.0804 56.1843 58.142C56.854 58.3498 57.5621 57.9765 57.77 57.3068V57.3146Z" fill="white"/>
<path d="M68.004 64.5616C68.8776 63.688 69.528 62.6065 69.8936 61.4366C70.1015 60.7669 69.7282 60.0588 69.0585 59.8509C68.3888 59.6431 67.6807 60.0164 67.4729 60.6861C67.2266 61.4789 66.8032 62.1793 66.2144 62.772C64.3363 64.6502 61.342 64.7425 59.3485 63.0607L60.149 62.2602C60.5762 61.833 60.353 61.1017 59.7603 60.9863L55.5076 60.155C54.9842 60.0511 54.5223 60.5129 54.6224 61.0402L55.4537 65.2929C55.5691 65.8855 56.3004 66.1088 56.7276 65.6816L57.5512 64.858C60.5377 67.5289 65.1368 67.4288 68.004 64.5655V64.5616Z" fill="white"/>
<defs>
<clipPath id="clip0_5_2237">
<rect width="57.1429" height="61.9048" fill="white" transform="translate(5 9)"/>
</clipPath>
</defs>
</svg>
