<svg width="80" height="81" viewBox="0 0 80 81" fill="none" xmlns="http://www.w3.org/2000/svg">
<rect width="80" height="80" transform="translate(0 0.5)" fill="#F8F8F8"/>
<path d="M59.9305 8H28.6989C22.9219 8 22.0513 10.7471 22.0513 14.1358V31.0309C22.0513 34.4196 22.7043 37.1667 29.1342 37.1667H59.4952C63.407 37.1667 65.5836 34.4196 65.5836 31.0309V14.1358C65.5836 10.7471 63.8423 8 59.9305 8Z" fill="#00ADB2"/>
<rect x="22.0513" y="15.3999" width="43.5323" height="4.35323" fill="white"/>
<path d="M57.2776 32.9243C59.4986 32.9243 61.2991 31.1276 61.2991 28.9111C61.2991 26.6947 59.4986 24.8979 57.2776 24.8979C55.0566 24.8979 53.2561 26.6947 53.2561 28.9111C53.2561 31.1276 55.0566 32.9243 57.2776 32.9243Z" fill="#EF6250"/>
<path d="M52.0095 32.9243C54.2305 32.9243 56.031 31.1276 56.031 28.9111C56.031 26.6947 54.2305 24.8979 52.0095 24.8979C49.7885 24.8979 47.988 26.6947 47.988 28.9111C47.988 31.1276 49.7885 32.9243 52.0095 32.9243Z" fill="#FFD255"/>
<g clip-path="url(#clip0_5_2492)">
<path d="M56.0717 47.168C56.0717 60.8773 44.9581 71.9909 31.2488 71.9909C17.5395 71.9909 6.42586 60.8773 6.42586 47.168C6.42586 33.4586 17.5395 22.3451 31.2488 22.3451C44.9581 22.3451 56.0717 33.4586 56.0717 47.168Z" fill="white" stroke="#B9C2D2" stroke-width="2.66667"/>
<path d="M50.5511 51.798C53.1674 41.1384 46.647 30.3762 35.9874 27.7599C25.3278 25.1437 14.5656 31.6641 11.9493 42.3236C9.33307 52.9832 15.8535 63.7454 26.513 66.3617C37.1726 68.978 47.9348 62.4576 50.5511 51.798Z" fill="#E8E8EF"/>
<path d="M40.5806 44.3628H39.3549L40.1633 42.1091C40.4884 41.1953 40.0139 40.1892 39.1001 39.8641C38.1863 39.539 37.1802 40.0135 36.8551 40.9273L34.5442 47.3854L32.9978 41.371C32.7957 40.5934 32.0972 40.053 31.2976 40.053C30.4981 40.053 29.7951 40.5978 29.5974 41.371L28.051 47.3854L25.7401 40.9273C25.415 40.0135 24.4046 39.539 23.4952 39.8641C22.5814 40.1892 22.1069 41.1953 22.432 42.1091L23.2403 44.3628H22.0146C21.0437 44.3628 20.2573 45.1492 20.2573 46.1201C20.2573 47.091 21.0437 47.8774 22.0146 47.8774H24.4968L26.6715 53.9621C26.9307 54.687 27.6248 55.1615 28.4068 55.1264C29.1801 55.0912 29.8347 54.5552 30.028 53.8084L31.302 48.8572L32.5761 53.8084C32.7694 54.5552 33.4284 55.0912 34.1972 55.1264C34.2235 55.1264 34.2499 55.1264 34.2763 55.1264C35.0143 55.1264 35.6777 54.6607 35.9325 53.9621L38.1072 47.8774H40.5894C41.5603 47.8774 42.3467 47.091 42.3467 46.1201C42.3467 45.1492 41.5603 44.3628 40.5894 44.3628H40.5806Z" fill="#00ADB2"/>
</g>
<path d="M75.0001 58.0311C75.0001 66.5809 68.0691 73.5118 59.5193 73.5118C50.9696 73.5118 44.0386 66.5809 44.0386 58.0311C44.0386 49.4813 50.9696 42.5503 59.5193 42.5503C68.0691 42.5503 75.0001 49.4813 75.0001 58.0311Z" fill="#FFA943"/>
<path d="M59.7576 62.5562C58.443 62.5562 57.376 63.6249 57.376 64.9378C57.376 66.2507 58.443 67.3195 59.7576 67.3195C61.0723 67.3195 62.1393 66.2507 62.1393 64.9378C62.1393 63.6249 61.0723 62.5562 59.7576 62.5562Z" fill="white"/>
<path d="M60.2185 61.1275H59.7758C59.0123 61.1275 58.3835 60.5185 58.3386 59.7393L57.8542 50.7679C57.8093 49.9265 58.4637 49.2192 59.2914 49.2192H60.6997C61.5241 49.2192 62.1818 49.9265 62.1369 50.7679L61.6525 59.7393C61.6108 60.5185 60.9788 61.1275 60.2153 61.1275H60.2185Z" fill="white"/>
<defs>
<clipPath id="clip0_5_2492">
<rect width="52.5" height="52.5" fill="white" transform="translate(5 21.0117)"/>
</clipPath>
</defs>
</svg>
