<svg width="80" height="81" viewBox="0 0 80 81" fill="none" xmlns="http://www.w3.org/2000/svg">
<rect width="80" height="80" transform="translate(0 0.5)" fill="#F8F8F8"/>
<g clip-path="url(#clip0_5_2442)">
<rect x="5" y="6" width="70" height="70" rx="13.3333" fill="#F7F9FC"/>
<path d="M13.0266 36.4135L13.0267 36.4047V36.3958V15.1675C13.0267 13.3736 14.4096 12.016 15.999 12.016H52.6108C52.0264 12.9419 51.6895 14.0438 51.6895 15.2139V36.3869L51.6797 37.1203L51.6796 37.1292V37.1381V56.7374C51.6796 58.5313 50.2967 59.8889 48.7073 59.8889H12.0955C12.6799 58.963 13.0168 57.8611 13.0168 56.691V37.147L13.0266 36.4135Z" fill="white" stroke="#B9C2D2" stroke-width="2.66667"/>
<path d="M18.9146 27.8179V15.1675C18.9146 12.6879 20.8447 10.6826 23.2202 10.6826H33.0639C30.6636 10.6826 28.7137 12.7137 28.7137 15.2139V27.823L23.8982 22.9464L18.9195 27.823L18.9146 27.8179Z" fill="#00ADB2"/>
<path d="M53.0273 25.8841V15.2235C53.0273 12.7079 54.9872 10.6665 57.4023 10.6665C59.8174 10.6665 61.7773 12.7079 61.7773 15.2235V25.8841H53.0323H53.0273Z" fill="#00ADB2"/>
<path d="M35.4675 39.1323H19.9027C18.809 39.1323 17.9231 38.2096 17.9231 37.0703C17.9231 35.931 18.809 35.0083 19.9027 35.0083H35.4675C36.5612 35.0083 37.4471 35.931 37.4471 37.0703C37.4471 38.2096 36.5612 39.1323 35.4675 39.1323Z" fill="#C5E8DC"/>
<path d="M45.0643 45.8442H19.9083C18.8146 45.8442 17.9287 44.9215 17.9287 43.7822C17.9287 42.643 18.8146 41.7202 19.9083 41.7202H45.0643C46.1581 41.7202 47.0439 42.643 47.0439 43.7822C47.0439 44.9215 46.1581 45.8442 45.0643 45.8442Z" fill="#C5E8DC"/>
<path d="M45.0642 52.5615H29.3312C28.2374 52.5615 27.3516 51.6388 27.3516 50.4995C27.3516 49.3602 28.2374 48.4375 29.3312 48.4375H45.0642C46.1579 48.4375 47.0438 49.3602 47.0438 50.4995C47.0438 51.6388 46.1579 52.5615 45.0642 52.5615Z" fill="#C5E8DC"/>
<path d="M22.8128 52.5615H19.9027C18.809 52.5615 17.9231 51.6388 17.9231 50.4995C17.9231 49.3602 18.809 48.4375 19.9027 48.4375H22.8128C23.9065 48.4375 24.7924 49.3602 24.7924 50.4995C24.7924 51.6388 23.9065 52.5615 22.8128 52.5615Z" fill="#C5E8DC"/>
<path d="M62.6068 68.4906L45.4042 68.4906C42.201 68.4906 39.604 65.8936 39.5977 62.6841L39.5976 60.9868C39.5977 53.0363 46.0423 46.5917 53.9927 46.5917L54.0182 46.5917C61.9687 46.5917 68.4133 53.0363 68.4133 60.9868L68.4133 62.6841C68.4133 65.8872 65.8163 68.4842 62.6068 68.4906Z" fill="#FFA943"/>
<ellipse cx="54.0539" cy="41.0333" rx="7.02604" ry="7.38635" fill="#FFA943"/>
<path d="M54.0839 59.4287C52.9383 59.4287 52.0085 60.3612 52.0085 61.5068C52.0085 62.6524 52.9383 63.585 54.0839 63.585C55.2295 63.585 56.1593 62.6524 56.1593 61.5068C56.1593 60.3612 55.2295 59.4287 54.0839 59.4287Z" fill="white"/>
<path d="M54.2639 58.3219H53.8821C53.2235 58.3219 52.6811 57.8072 52.6424 57.1487L52.2245 49.5667C52.1858 48.8555 52.7503 48.2578 53.4642 48.2578H54.679C55.3902 48.2578 55.9574 48.8555 55.9187 49.5667L55.5008 57.1487C55.4649 57.8072 54.9197 58.3219 54.2612 58.3219H54.2639Z" fill="white"/>
</g>
<defs>
<clipPath id="clip0_5_2442">
<rect x="5" y="6" width="70" height="70" rx="13.3333" fill="white"/>
</clipPath>
</defs>
</svg>
