<svg width="80" height="80" viewBox="0 0 80 80" fill="none" xmlns="http://www.w3.org/2000/svg">
<rect width="80" height="80" fill="#F8F8F8"/>
<g clip-path="url(#clip0_5_2397)">
<path d="M67.3128 38.4302H35.4415C31.196 38.4302 27.7544 41.8647 27.7544 46.1014V67.2243C27.7544 71.461 31.196 74.8955 35.4415 74.8955H67.3128C71.5583 74.8955 74.9999 71.461 74.9999 67.2243V46.1014C74.9999 41.8647 71.5583 38.4302 67.3128 38.4302Z" fill="#00ADB2"/>
<path d="M40.4967 45.5977H36.7998C35.6084 45.5977 34.6426 46.5615 34.6426 47.7504V51.4397C34.6426 52.6286 35.6084 53.5924 36.7998 53.5924H40.4967C41.688 53.5924 42.6538 52.6286 42.6538 51.4397V47.7504C42.6538 46.5615 41.688 45.5977 40.4967 45.5977Z" fill="white"/>
<path d="M64.6383 69.5244C67.4089 69.5244 69.6549 67.283 69.6549 64.5181C69.6549 61.7531 67.4089 59.5117 64.6383 59.5117C61.8676 59.5117 59.6216 61.7531 59.6216 64.5181C59.6216 67.283 61.8676 69.5244 64.6383 69.5244Z" fill="#EF6250"/>
<path d="M58.0667 69.5244C60.8374 69.5244 63.0834 67.283 63.0834 64.5181C63.0834 61.7531 60.8374 59.5117 58.0667 59.5117C55.2961 59.5117 53.05 61.7531 53.05 64.5181C53.05 67.283 55.2961 69.5244 58.0667 69.5244Z" fill="#FFD255"/>
<path d="M40.862 59.1774C40.8487 59.1774 40.8317 59.1753 40.8122 59.1673L40.763 59.1146L38.5831 56.7772C37.4506 55.5629 35.5718 55.5629 34.4393 56.7772L32.2594 59.1146C32.2093 59.1683 32.1656 59.1774 32.1377 59.1774C32.1098 59.1774 32.0661 59.1683 32.016 59.1146L29.836 56.7772C28.7036 55.5629 26.8247 55.5629 25.6923 56.7772L23.5124 59.1146C23.4623 59.1683 23.4185 59.1774 23.3906 59.1774C23.3628 59.1774 23.319 59.1683 23.2689 59.1146L21.089 56.7772C19.9565 55.5629 18.0777 55.5629 16.9452 56.7772L17.9203 57.6865L16.9452 56.7772L14.7653 59.1146C14.7152 59.1683 14.6715 59.1774 14.6436 59.1774C14.6157 59.1774 14.572 59.1683 14.5219 59.1146L12.342 56.7772L11.3669 57.6865L12.3419 56.7772C11.2095 55.5629 9.33066 55.5629 8.1982 56.7772L6.33333 58.7767V11.4803C6.33333 8.5465 8.52966 6.33333 11.0437 6.33333H44.4618C46.9792 6.33333 49.1722 8.55003 49.1722 11.4803V58.7767L47.3074 56.7772C46.1749 55.5629 44.2961 55.5629 43.1636 56.7772L40.9837 59.1146C40.9336 59.1683 40.8898 59.1774 40.862 59.1774Z" fill="white" stroke="#B9C2D2" stroke-width="2.66667"/>
<path d="M15.4581 40.8349H30.5493C31.555 40.8349 32.3697 39.9615 32.3697 38.883C32.3697 37.8046 31.555 36.9312 30.5493 36.9312H15.4581C14.4523 36.9312 13.6377 37.8046 13.6377 38.883C13.6377 39.9615 14.4523 40.8349 15.4581 40.8349Z" fill="#F9D2C0"/>
<path d="M37.0572 40.8349H40.0791C41.0849 40.8349 41.8995 39.9615 41.8995 38.883C41.8995 37.8046 41.0849 36.9312 40.0791 36.9312H37.0572C36.0514 36.9312 35.2368 37.8046 35.2368 38.883C35.2368 39.9615 36.0514 40.8349 37.0572 40.8349Z" fill="#F9D2C0"/>
<path d="M40.0745 43.9775H15.4581C14.4523 43.9775 13.6377 44.851 13.6377 45.9294C13.6377 47.0079 14.4523 47.8813 15.4581 47.8813H40.0745C41.0803 47.8813 41.8949 47.0079 41.8949 45.9294C41.8949 44.851 41.0803 43.9775 40.0745 43.9775Z" fill="#F9D2C0"/>
<path d="M37.3897 18.9036H36.1199L36.9573 16.4002C37.2941 15.3853 36.8026 14.2678 35.856 13.9067C34.9094 13.5456 33.8672 14.0726 33.5304 15.0876L31.1366 22.2608L29.5346 15.5805C29.3298 14.7167 28.6017 14.1165 27.7734 14.1165C26.9451 14.1165 26.2169 14.7216 26.0121 15.5805L24.4102 22.2608L22.0163 15.0876C21.6796 14.0726 20.6328 13.5456 19.6908 13.9067C18.7442 14.2678 18.2526 15.3853 18.5894 16.4002L19.4268 18.9036H18.1571C17.1513 18.9036 16.3367 19.777 16.3367 20.8554C16.3367 21.9339 17.1513 22.8073 18.1571 22.8073H20.7284L22.9811 29.5658C23.2497 30.3709 23.9687 30.898 24.7788 30.8589C25.5798 30.8199 26.2579 30.2246 26.4581 29.395L27.7779 23.8955L29.0977 29.395C29.298 30.2246 29.9806 30.8199 30.777 30.8589C30.8043 30.8589 30.8316 30.8589 30.859 30.8589C31.6235 30.8589 32.3107 30.3417 32.5747 29.5658L34.8274 22.8073H37.3988C38.4045 22.8073 39.2192 21.9339 39.2192 20.8554C39.2192 19.777 38.4045 18.9036 37.3988 18.9036H37.3897Z" fill="#FFA943"/>
</g>
<defs>
<clipPath id="clip0_5_2397">
<rect width="70" height="70" fill="white" transform="translate(5 5)"/>
</clipPath>
</defs>
</svg>
