<svg width="80" height="80" viewBox="0 0 80 80" fill="none" xmlns="http://www.w3.org/2000/svg">
<rect width="80" height="80" fill="#F8F8F8"/>
<path d="M17.6826 7H63.3945C67.6896 7 71.3847 10.7491 71.3847 15.6453V64.3547C71.3847 69.2509 67.6896 73 63.3945 73H17.6826C13.3875 73 9.69238 69.2509 9.69238 64.3547V15.6453C9.69238 10.7491 13.3875 7 17.6826 7Z" fill="white" stroke="#B9C2D2" stroke-width="4"/>
<path d="M17.6826 5H63.3945C68.9102 5 73.3847 9.76792 73.3847 15.6453V23.3179H7.69238V15.6453C7.69238 9.76792 12.1669 5 17.6826 5Z" fill="#6270F4"/>
<path d="M38.8769 14.4321C38.8769 16.0648 37.5693 17.3847 35.9518 17.3847C34.3343 17.3847 33.0266 16.0648 33.0266 14.4321C33.0266 12.7994 34.3343 11.4795 35.9518 11.4795C37.5693 11.4795 38.8769 12.8057 38.8769 14.4321Z" fill="#F9EDBD"/>
<path d="M26.7865 17.3847C28.402 17.3847 29.7117 16.0628 29.7117 14.4321C29.7117 12.8014 28.402 11.4795 26.7865 11.4795C25.171 11.4795 23.8613 12.8014 23.8613 14.4321C23.8613 16.0628 25.171 17.3847 26.7865 17.3847Z" fill="#F9EDBD"/>
<path d="M20.5461 14.4321C20.5461 16.0648 19.2385 17.3847 17.621 17.3847C16.0035 17.3847 14.6958 16.0648 14.6958 14.4321C14.6958 12.7994 16.0096 11.4795 17.621 11.4795C19.2323 11.4795 20.5461 12.8057 20.5461 14.4321Z" fill="#F9EDBD"/>
<path d="M40.9232 62.6568C32.9904 62.6568 26.5386 56.489 26.5386 48.9053C26.5386 41.3217 32.9904 35.1538 40.9232 35.1538C48.856 35.1538 55.3078 41.3217 55.3078 48.9053C55.3078 56.489 48.856 62.6568 40.9232 62.6568ZM40.9232 40.0721C35.83 40.0721 31.6897 44.0301 31.6897 48.8992C31.6897 53.7682 35.83 57.7262 40.9232 57.7262C46.0164 57.7262 50.1566 53.7682 50.1566 48.8992C50.1566 44.0301 46.0164 40.0721 40.9232 40.0721Z" fill="#6270F4"/>
<path d="M58.4379 68.1407C57.7812 68.1407 57.118 67.9007 56.6157 67.4205L47.4338 58.6427C46.4293 57.6825 46.4293 56.1251 47.4338 55.1587C48.4383 54.1984 50.0673 54.1984 51.0782 55.1587L60.2602 63.9365C61.2646 64.8968 61.2646 66.4541 60.2602 67.4205C59.7579 67.9007 59.1012 68.1407 58.4379 68.1407Z" fill="#6270F4"/>
</svg>
